<?xml version="1.0" standalone="no"?>
<!DOCTYPE svg PUBLIC "-//W3C//DTD SVG 20010904//EN"
 "http://www.w3.org/TR/2001/REC-SVG-20010904/DTD/svg10.dtd">
<svg version="1.0" xmlns="http://www.w3.org/2000/svg"
 width="1161.000000pt" height="383.000000pt" viewBox="0 0 1161.000000 383.000000"
 preserveAspectRatio="xMidYMid meet">

<g transform="translate(0.000000,383.000000) scale(0.100000,-0.100000)"
fill="#000000" stroke="none">
<path d="M9565 3385 c-242 -40 -477 -140 -677 -290 -118 -89 -274 -254 -355
-378 -60 -90 -71 -102 -81 -88 -10 13 -10 12 -2 -7 8 -17 7 -32 -8 -66 l-19
-43 34 -34 c35 -34 93 -112 93 -124 0 -4 8 -19 18 -33 17 -25 66 -138 62 -144
-1 -2 4 -16 10 -33 27 -69 35 -140 35 -300 -1 -137 -7 -173 -48 -290 -37 -107
-103 -217 -179 -299 -22 -24 -22 -38 -2 -78 15 -29 15 -34 -1 -62 -17 -31 -17
-31 2 -8 l19 23 48 -75 c355 -561 1027 -829 1671 -666 272 68 504 200 704 400
465 464 583 1177 291 1760 -211 422 -588 716 -1055 822 -120 27 -428 34 -560
13z m589 -1255 c79 -38 124 -151 113 -280 -9 -90 -23 -135 -58 -174 -86 -98
-228 -79 -288 39 -24 45 -26 60 -26 170 0 104 3 125 22 160 52 98 144 131 237
85z m449 6 c44 -18 93 -77 109 -128 19 -64 16 -203 -5 -264 -41 -117 -164
-165 -265 -104 -65 40 -95 119 -94 252 1 160 70 256 185 258 21 0 52 -6 70
-14z m-843 -256 l0 -260 -40 0 -40 0 -2 220 -3 219 -62 -40 -63 -39 0 38 c0
37 4 42 63 81 48 32 72 41 105 41 l42 0 0 -260z m-640 105 l0 -65 70 0 70 0 0
-35 0 -35 -70 0 -70 0 0 -70 0 -70 -35 0 -35 0 0 65 0 65 -70 0 -70 0 0 40 0
40 70 0 70 0 0 65 0 65 35 0 35 0 0 -65z"/>
<path d="M10023 2056 c-38 -32 -53 -84 -53 -182 1 -123 38 -188 107 -188 74 0
123 107 108 237 -16 137 -88 195 -162 133z"/>
<path d="M10481 2054 c-37 -31 -51 -77 -51 -173 0 -129 35 -195 105 -195 71 0
109 68 109 194 1 164 -77 247 -163 174z"/>
<path d="M1818 3383 c28 -2 76 -2 105 0 28 2 5 3 -53 3 -58 0 -81 -1 -52 -3z"/>
<path d="M4458 3383 c29 -2 74 -2 100 0 26 2 2 3 -53 3 -55 0 -76 -1 -47 -3z"/>
<path d="M7098 3383 c29 -2 74 -2 100 0 26 2 2 3 -53 3 -55 0 -76 -1 -47 -3z"/>
<path d="M1688 3373 c12 -2 30 -2 40 0 9 3 -1 5 -23 4 -22 0 -30 -2 -17 -4z"/>
<path d="M2028 3373 c12 -2 30 -2 40 0 9 3 -1 5 -23 4 -22 0 -30 -2 -17 -4z"/>
<path d="M4323 3373 c9 -2 25 -2 35 0 9 3 1 5 -18 5 -19 0 -27 -2 -17 -5z"/>
<path d="M4658 3373 c12 -2 30 -2 40 0 9 3 -1 5 -23 4 -22 0 -30 -2 -17 -4z"/>
<path d="M6958 3373 c12 -2 30 -2 40 0 9 3 -1 5 -23 4 -22 0 -30 -2 -17 -4z"/>
<path d="M7288 3373 c12 -2 30 -2 40 0 9 3 -1 5 -23 4 -22 0 -30 -2 -17 -4z"/>
<path d="M1618 3363 c6 -2 18 -2 25 0 6 3 1 5 -13 5 -14 0 -19 -2 -12 -5z"/>
<path d="M2103 3363 c9 -2 23 -2 30 0 6 3 -1 5 -18 5 -16 0 -22 -2 -12 -5z"/>
<path d="M4253 3363 c9 -2 23 -2 30 0 6 3 -1 5 -18 5 -16 0 -22 -2 -12 -5z"/>
<path d="M4743 3363 c9 -2 23 -2 30 0 6 3 -1 5 -18 5 -16 0 -22 -2 -12 -5z"/>
<path d="M6883 3363 c9 -2 23 -2 30 0 6 3 -1 5 -18 5 -16 0 -22 -2 -12 -5z"/>
<path d="M7368 3363 c6 -2 18 -2 25 0 6 3 1 5 -13 5 -14 0 -19 -2 -12 -5z"/>
<path d="M1568 3353 c7 -3 16 -2 19 1 4 3 -2 6 -13 5 -11 0 -14 -3 -6 -6z"/>
<path d="M2158 3353 c6 -2 18 -2 25 0 6 3 1 5 -13 5 -14 0 -19 -2 -12 -5z"/>
<path d="M4198 3353 c6 -2 18 -2 25 0 6 3 1 5 -13 5 -14 0 -19 -2 -12 -5z"/>
<path d="M4798 3353 c6 -2 18 -2 25 0 6 3 1 5 -13 5 -14 0 -19 -2 -12 -5z"/>
<path d="M6838 3353 c7 -3 16 -2 19 1 4 3 -2 6 -13 5 -11 0 -14 -3 -6 -6z"/>
<path d="M7428 3353 c6 -2 18 -2 25 0 6 3 1 5 -13 5 -14 0 -19 -2 -12 -5z"/>
<path d="M1518 3343 c7 -3 16 -2 19 1 4 3 -2 6 -13 5 -11 0 -14 -3 -6 -6z"/>
<path d="M2208 3343 c7 -3 16 -2 19 1 4 3 -2 6 -13 5 -11 0 -14 -3 -6 -6z"/>
<path d="M4158 3343 c7 -3 16 -2 19 1 4 3 -2 6 -13 5 -11 0 -14 -3 -6 -6z"/>
<path d="M4848 3343 c7 -3 16 -2 19 1 4 3 -2 6 -13 5 -11 0 -14 -3 -6 -6z"/>
<path d="M6788 3343 c7 -3 16 -2 19 1 4 3 -2 6 -13 5 -11 0 -14 -3 -6 -6z"/>
<path d="M7478 3343 c7 -3 16 -2 19 1 4 3 -2 6 -13 5 -11 0 -14 -3 -6 -6z"/>
<path d="M1478 3333 c7 -3 16 -2 19 1 4 3 -2 6 -13 5 -11 0 -14 -3 -6 -6z"/>
<path d="M2248 3333 c7 -3 16 -2 19 1 4 3 -2 6 -13 5 -11 0 -14 -3 -6 -6z"/>
<path d="M4895 3330 c11 -5 27 -9 35 -9 9 0 8 4 -5 9 -11 5 -27 9 -35 9 -9 0
-8 -4 5 -9z"/>
<path d="M6748 3333 c7 -3 16 -2 19 1 4 3 -2 6 -13 5 -11 0 -14 -3 -6 -6z"/>
<path d="M7518 3333 c7 -3 16 -2 19 1 4 3 -2 6 -13 5 -11 0 -14 -3 -6 -6z"/>
<path d="M2295 3320 c11 -5 27 -9 35 -9 9 0 8 4 -5 9 -11 5 -27 9 -35 9 -9 0
-8 -4 5 -9z"/>
<path d="M4078 3323 c7 -3 16 -2 19 1 4 3 -2 6 -13 5 -11 0 -14 -3 -6 -6z"/>
<path d="M6678 3313 c7 -3 16 -2 19 1 4 3 -2 6 -13 5 -11 0 -14 -3 -6 -6z"/>
<path d="M7595 3310 c27 -12 43 -12 25 0 -8 5 -22 9 -30 9 -10 0 -8 -3 5 -9z"/>
<path d="M2360 3302 c8 -5 26 -13 40 -16 17 -5 20 -4 10 2 -8 5 -26 13 -40 16
-17 5 -20 4 -10 -2z"/>
<path d="M6630 3300 c-8 -5 -10 -10 -5 -10 6 0 17 5 25 10 8 5 11 10 5 10 -5
0 -17 -5 -25 -10z"/>
<path d="M5050 3280 c8 -5 20 -10 25 -10 6 0 3 5 -5 10 -8 5 -19 10 -25 10 -5
0 -3 -5 5 -10z"/>
<path d="M2440 3270 c8 -5 20 -10 25 -10 6 0 3 5 -5 10 -8 5 -19 10 -25 10 -5
0 -3 -5 5 -10z"/>
<path d="M6550 3270 c-8 -5 -10 -10 -5 -10 6 0 17 5 25 10 8 5 11 10 5 10 -5
0 -17 -5 -25 -10z"/>
<path d="M1260 3260 c-8 -5 -10 -10 -5 -10 6 0 17 5 25 10 8 5 11 10 5 10 -5
0 -17 -5 -25 -10z"/>
<path d="M7730 3260 c8 -5 20 -10 25 -10 6 0 3 5 -5 10 -8 5 -19 10 -25 10 -5
0 -3 -5 5 -10z"/>
<path d="M3828 3229 c-32 -16 -58 -32 -58 -34 0 -5 119 52 129 61 13 12 -22
-1 -71 -27z"/>
<path d="M5111 3256 c10 -9 149 -76 149 -71 0 5 -136 75 -146 75 -4 0 -5 -2
-3 -4z"/>
<path d="M2501 3246 c10 -9 89 -46 89 -41 0 5 -75 45 -86 45 -4 0 -5 -2 -3 -4z"/>
<path d="M1128 3194 c-38 -20 -36 -28 2 -9 17 9 30 18 30 20 0 7 -1 6 -32 -11z"/>
<path d="M7850 3206 c0 -3 14 -12 30 -21 17 -9 30 -13 30 -11 0 3 -13 12 -30
21 -16 9 -30 13 -30 11z"/>
<path d="M6363 3174 c-24 -14 -43 -27 -43 -30 0 -6 67 33 85 48 17 15 1 8 -42
-18z"/>
<path d="M2620 3186 c0 -3 9 -10 20 -16 11 -6 20 -8 20 -6 0 3 -9 10 -20 16
-11 6 -20 8 -20 6z"/>
<path d="M3649 3123 c-46 -32 -136 -109 -199 -172 l-115 -114 115 109 c64 60
151 133 195 163 83 56 103 71 94 71 -3 0 -43 -26 -90 -57z"/>
<path d="M5270 3176 c0 -3 9 -10 20 -16 11 -6 20 -8 20 -6 0 3 -9 10 -20 16
-11 6 -20 8 -20 6z"/>
<path d="M7920 3167 c0 -2 26 -21 58 -41 31 -20 45 -27 30 -14 -30 26 -88 62
-88 55z"/>
<path d="M991 3105 c-34 -25 -61 -47 -61 -50 0 -5 101 65 125 86 26 24 -10 4
-64 -36z"/>
<path d="M6195 3056 c-44 -35 -107 -93 -140 -127 -50 -53 -46 -50 25 17 47 44
111 99 143 123 50 38 64 51 54 51 -1 0 -39 -29 -82 -64z"/>
<path d="M5380 3106 c0 -2 8 -10 18 -17 15 -13 16 -12 3 4 -13 16 -21 21 -21
13z"/>
<path d="M2760 3096 c0 -2 8 -10 18 -17 15 -13 16 -12 3 4 -13 16 -21 21 -21
13z"/>
<path d="M8040 3086 c0 -2 8 -10 18 -17 15 -13 16 -12 3 4 -13 16 -21 21 -21
13z"/>
<path d="M5420 3078 c0 -2 26 -26 58 -53 31 -27 48 -39 37 -26 -21 24 -95 86
-95 79z"/>
<path d="M2815 3050 c10 -11 20 -20 23 -20 3 0 -3 9 -13 20 -10 11 -20 20 -23
20 -3 0 3 -9 13 -20z"/>
<path d="M8100 3035 c13 -14 26 -25 28 -25 3 0 -5 11 -18 25 -13 14 -26 25
-28 25 -3 0 5 -11 18 -25z"/>
<path d="M807 2948 c-57 -57 -113 -119 -126 -138 -13 -20 -3 -12 25 20 26 30
86 92 133 137 47 46 82 83 78 83 -4 0 -54 -46 -110 -102z"/>
<path d="M2935 2940 c49 -49 92 -90 95 -90 2 0 -36 41 -85 90 -49 50 -92 90
-95 90 -2 0 36 -40 85 -90z"/>
<path d="M8205 2940 c38 -38 72 -70 74 -70 3 0 -26 32 -64 70 -38 39 -72 70
-74 70 -3 0 26 -31 64 -70z"/>
<path d="M5570 2945 c13 -14 26 -25 28 -25 3 0 -5 11 -18 25 -13 14 -26 25
-28 25 -3 0 5 -11 18 -25z"/>
<path d="M5610 2904 c0 -6 17 -26 38 -45 l37 -34 -35 40 c-19 22 -36 42 -37
44 -2 2 -3 0 -3 -5z"/>
<path d="M8300 2835 c13 -14 26 -25 28 -25 3 0 -5 11 -18 25 -13 14 -26 25
-28 25 -3 0 5 -11 18 -25z"/>
<path d="M3060 2803 c18 -24 35 -43 37 -43 7 0 -35 56 -54 71 -9 8 -2 -5 17
-28z"/>
<path d="M5959 2823 c-13 -16 -12 -17 4 -4 16 13 21 21 13 21 -2 0 -10 -8 -17
-17z"/>
<path d="M3309 2803 c-13 -16 -12 -17 4 -4 16 13 21 21 13 21 -2 0 -10 -8 -17
-17z"/>
<path d="M5695 2800 c10 -11 20 -20 23 -20 3 0 -3 9 -13 20 -10 11 -20 20 -23
20 -3 0 3 -9 13 -20z"/>
<path d="M8330 2796 c0 -2 8 -10 18 -17 15 -13 16 -12 3 4 -13 16 -21 21 -21
13z"/>
<path d="M3279 2763 c-13 -16 -12 -17 4 -4 16 13 21 21 13 21 -2 0 -10 -8 -17
-17z"/>
<path d="M618 2723 c-44 -62 -81 -123 -77 -127 2 -2 30 36 61 85 62 97 70 117
16 42z"/>
<path d="M5756 2718 c20 -32 39 -58 41 -58 7 0 -29 58 -55 88 -13 15 -6 1 14
-30z"/>
<path d="M8396 2708 c20 -32 39 -58 41 -58 7 0 -29 58 -55 88 -13 15 -6 1 14
-30z"/>
<path d="M3125 2713 c15 -24 30 -43 32 -43 7 0 -31 61 -46 73 -8 7 -2 -7 14
-30z"/>
<path d="M3170 2640 c6 -11 15 -20 20 -20 6 0 2 9 -7 20 -10 11 -19 20 -21 20
-1 0 2 -9 8 -20z"/>
<path d="M1861 2632 c-9 -18 -20 -22 -57 -22 -51 0 -104 -23 -104 -45 0 -13
-23 -15 -139 -15 -131 0 -139 1 -153 22 -13 19 -26 22 -104 26 -50 2 -108 -1
-131 -7 l-43 -12 0 -470 c0 -541 1 -551 82 -718 43 -90 62 -116 132 -185 94
-94 161 -136 283 -180 85 -30 93 -31 248 -31 148 1 166 3 234 28 124 45 199
93 293 187 72 72 94 103 132 181 75 156 76 159 76 706 l0 481 -31 11 c-18 6
-67 11 -109 11 -85 0 -140 -14 -140 -36 0 -11 -27 -14 -140 -14 -117 0 -140 2
-140 15 0 19 -62 45 -109 45 -40 0 -56 8 -63 30 -4 12 -7 10 -17 -8z m649
-593 c0 -462 -2 -476 -71 -610 -88 -170 -252 -293 -436 -329 -97 -19 -263 -8
-345 22 -187 70 -339 224 -401 408 -20 62 -22 84 -25 493 l-3 427 640 0 641 0
0 -411z"/>
<path d="M1460 2018 c0 -363 15 -430 116 -538 82 -88 229 -132 368 -110 167
26 279 125 320 285 13 47 16 119 16 347 l0 288 -125 0 -125 0 0 -285 c0 -313
-2 -326 -59 -380 -29 -27 -39 -30 -96 -30 -72 0 -106 18 -140 76 -19 32 -20
55 -23 327 l-3 292 -125 0 -124 0 0 -272z"/>
<path d="M1513 1418 c2 -7 -5 -23 -16 -35 -27 -30 -14 -43 16 -16 12 11 29 18
37 15 9 -3 5 6 -9 22 -27 29 -35 33 -28 14z"/>
<path d="M2200 1395 c0 -24 37 -58 54 -52 20 8 21 47 1 47 -8 0 -15 5 -15 10
0 6 -9 10 -20 10 -11 0 -20 -7 -20 -15z m30 -5 c0 -5 -4 -10 -10 -10 -5 0 -10
5 -10 10 0 6 5 10 10 10 6 0 10 -4 10 -10z m24 -31 c-3 -5 -10 -7 -15 -3 -5 3
-7 10 -3 15 3 5 10 7 15 3 5 -3 7 -10 3 -15z"/>
<path d="M2148 1356 c-10 -7 -18 -17 -18 -21 0 -4 6 -2 13 4 16 13 27 5 27
-20 0 -10 5 -21 10 -24 7 -4 8 3 4 22 -11 47 -17 53 -36 39z"/>
<path d="M1568 1349 c-24 -14 -23 -56 2 -69 44 -23 80 29 44 64 -18 19 -23 19
-46 5z m45 -21 c7 -21 -4 -38 -23 -38 -23 0 -34 16 -26 35 7 18 43 20 49 3z"/>
<path d="M2074 1307 c-6 -16 12 -67 23 -67 5 0 14 4 22 9 12 7 12 13 0 40 -14
32 -36 41 -45 18z m26 -7 c0 -5 -4 -10 -10 -10 -5 0 -10 5 -10 10 0 6 5 10 10
10 6 0 10 -4 10 -10z m15 -30 c3 -5 -1 -10 -10 -10 -9 0 -13 5 -10 10 3 6 8
10 10 10 2 0 7 -4 10 -10z"/>
<path d="M1660 1285 c-14 -37 -12 -54 4 -26 11 19 14 21 19 7 4 -9 13 -13 22
-10 13 5 15 1 9 -22 -9 -38 10 -20 24 24 9 26 8 32 -3 32 -8 0 -17 -4 -20 -10
-9 -15 -25 -12 -25 4 0 27 -20 27 -30 1z"/>
<path d="M2005 1280 c-3 -5 -2 -10 4 -10 6 0 13 -11 17 -25 3 -14 10 -25 14
-25 5 0 3 16 -3 35 -10 35 -21 43 -32 25z"/>
<path d="M1780 1261 c0 -11 5 -23 10 -26 16 -10 12 -25 -5 -19 -8 4 -15 1 -15
-5 0 -6 9 -11 20 -11 27 0 38 30 16 42 -9 5 -14 14 -11 19 4 5 11 7 16 4 5 -4
9 -1 9 4 0 6 -9 11 -20 11 -13 0 -20 -7 -20 -19z"/>
<path d="M1862 1235 c0 -27 2 -34 7 -22 6 17 8 17 20 3 7 -9 18 -16 24 -16 5
0 2 9 -7 19 -11 12 -14 21 -7 26 6 3 11 11 11 17 0 6 -9 3 -19 -6 -18 -17 -19
-17 -24 1 -3 10 -5 0 -5 -22z"/>
<path d="M1960 1240 c-13 -8 -12 -10 3 -10 9 0 17 5 17 10 0 12 -1 12 -20 0z"/>
<path d="M5806 2636 c7 -19 20 -21 30 -3 4 6 4 9 -1 5 -4 -4 -14 -3 -22 4 -11
8 -12 7 -7 -6z"/>
<path d="M510 2539 c-12 -23 -20 -43 -18 -45 3 -2 14 17 26 41 27 56 20 60 -8
4z"/>
<path d="M3908 2541 c-53 -20 -99 -39 -102 -42 -4 -3 45 -24 108 -47 l115 -40
106 39 c58 21 115 39 125 39 10 0 67 -18 126 -39 l106 -40 110 40 c60 21 117
39 126 39 9 0 65 -18 124 -40 l107 -39 117 43 117 43 -80 31 c-158 60 -145 59
-274 12 l-114 -42 -109 41 c-60 23 -115 41 -122 41 -7 0 -62 -18 -123 -41
l-111 -40 -111 40 c-61 23 -118 41 -127 40 -9 -1 -61 -18 -114 -38z"/>
<path d="M456 2415 c-14 -36 -26 -71 -26 -78 1 -6 14 22 30 62 16 41 28 76 26
78 -2 2 -15 -26 -30 -62z"/>
<path d="M6610 2341 c-5 -11 -10 -27 -10 -35 0 -9 -12 -19 -27 -22 -32 -8 -63
-32 -63 -48 0 -6 4 -4 10 4 5 8 26 19 46 25 36 10 71 50 73 83 1 19 -17 14
-29 -7z"/>
<path d="M7661 2348 c1 -31 37 -73 70 -83 19 -5 41 -14 49 -19 9 -6 8 -2 -4
12 -10 11 -27 22 -39 24 -11 2 -24 11 -28 21 -5 9 -13 25 -17 34 -11 21 -32
29 -31 11z"/>
<path d="M405 2260 c-4 -17 -5 -34 -2 -36 2 -3 7 10 11 27 8 42 0 50 -9 9z"/>
<path d="M6565 2241 c-3 -6 2 -22 11 -35 l16 -25 -59 -28 c-49 -24 -59 -32
-61 -58 -4 -29 -3 -29 15 -12 11 9 26 17 34 17 8 0 29 9 47 20 28 17 32 25 32
64 0 43 -21 78 -35 57z"/>
<path d="M7710 2230 c-6 -12 -10 -37 -8 -58 3 -37 7 -41 82 -74 41 -18 56 -45
34 -62 -10 -7 -18 -26 -18 -42 0 -26 1 -27 16 -12 21 21 28 85 15 122 -8 20
-25 34 -61 49 -48 20 -65 47 -40 62 13 8 13 35 0 35 -5 0 -14 -9 -20 -20z"/>
<path d="M391 2194 c0 -11 3 -14 6 -6 3 7 2 16 -1 19 -3 4 -6 -2 -5 -13z"/>
<path d="M382 2145 c0 -16 2 -22 5 -12 2 9 2 23 0 30 -3 6 -5 -1 -5 -18z"/>
<path d="M3913 2077 l-113 -41 0 -148 c0 -81 2 -148 4 -148 2 0 54 18 115 40
l110 39 107 -39 c59 -22 111 -40 115 -40 5 0 9 66 9 148 l0 147 -108 39 c-59
21 -111 40 -117 42 -5 1 -61 -16 -122 -39z"/>
<path d="M4376 2077 c-126 -47 -126 -46 21 -96 l100 -35 109 41 109 40 3 -144
c1 -78 7 -143 11 -143 5 0 59 18 120 40 l111 39 108 -39 c59 -22 110 -40 115
-40 4 0 7 66 7 148 l0 147 -116 42 -115 42 -117 -43 -116 -42 -100 37 c-56 20
-110 39 -121 41 -11 3 -69 -13 -129 -35z"/>
<path d="M372 2080 c0 -19 2 -27 5 -17 2 9 2 25 0 35 -3 9 -5 1 -5 -18z"/>
<path d="M6590 2088 c0 -10 -5 -18 -11 -18 -8 0 -7 -5 2 -16 10 -13 10 -17 0
-24 -11 -6 -11 -8 -1 -12 7 -2 15 -14 17 -27 2 -18 0 -21 -17 -16 -16 5 -20 2
-20 -18 0 -33 7 -37 38 -21 15 8 35 14 45 14 9 0 17 5 17 10 0 6 -7 10 -16 10
-13 0 -14 3 -5 13 6 8 8 17 4 20 -3 4 -1 13 6 21 9 11 9 15 -1 18 -10 4 -10 8
1 21 12 15 11 17 -4 17 -11 0 -15 5 -11 15 4 11 -1 14 -19 13 -17 -2 -25 -8
-25 -20z"/>
<path d="M7666 2095 c4 -8 1 -15 -6 -15 -7 0 -10 -7 -7 -15 4 -8 2 -17 -4 -21
-6 -4 -6 -11 1 -19 7 -8 9 -19 5 -25 -3 -5 -1 -10 4 -10 6 0 11 -4 11 -10 0
-5 -5 -9 -11 -7 -6 1 -14 -4 -16 -10 -3 -8 4 -13 19 -13 13 0 33 -7 44 -15 26
-17 34 -11 34 28 0 25 -2 28 -15 17 -8 -7 -15 -11 -16 -9 -8 43 -7 49 6 49 8
0 15 5 15 11 0 5 -4 7 -10 4 -5 -3 -10 -2 -10 4 0 5 5 13 10 16 6 3 10 11 10
16 0 6 -4 7 -10 4 -5 -3 -10 3 -10 14 0 16 -6 21 -25 21 -18 0 -23 -4 -19 -15z"/>
<path d="M6742 2033 c-9 -13 -14 -15 -18 -5 -8 17 -24 5 -24 -20 0 -14 -5 -18
-16 -14 -12 4 -14 0 -12 -22 6 -46 20 -60 55 -55 22 4 30 9 26 19 -3 9 2 14
17 14 19 0 21 4 16 25 -5 20 -3 25 11 25 14 0 13 5 -9 25 -32 30 -30 29 -46 8z"/>
<path d="M7516 2034 c-18 -18 -21 -34 -5 -34 6 0 8 -9 4 -21 -5 -15 -2 -22 14
-26 12 -3 21 -11 21 -18 0 -15 43 -25 60 -15 15 9 30 79 19 86 -5 3 -9 0 -9
-5 0 -6 -4 -11 -10 -11 -5 0 -10 11 -10 25 0 26 -15 34 -24 13 -3 -9 -8 -8
-16 5 -14 21 -24 22 -44 1z"/>
<path d="M363 1975 c0 -38 2 -53 4 -32 2 20 2 52 0 70 -2 17 -4 1 -4 -38z"/>
<path d="M6470 2016 c0 -13 7 -29 15 -36 13 -11 15 -8 15 18 0 17 -6 32 -15
36 -11 4 -15 -1 -15 -18z"/>
<path d="M6612 1923 c-6 -2 -10 -9 -7 -13 3 -5 0 -19 -7 -30 -11 -17 -11 -22
2 -30 12 -8 13 -12 1 -19 -10 -7 -8 -12 9 -24 12 -8 19 -20 16 -26 -4 -5 -2
-12 3 -15 11 -7 25 119 15 135 -5 8 -3 9 6 4 8 -5 11 -24 7 -58 -6 -70 0 -89
25 -76 15 8 17 13 8 25 -10 11 -9 15 4 20 9 3 16 12 16 20 0 8 -6 11 -16 7
-14 -5 -15 -3 -5 15 15 29 14 45 -4 38 -10 -4 -15 1 -15 14 0 20 -27 26 -58
13z"/>
<path d="M7630 1910 c0 -13 -5 -18 -15 -14 -17 7 -19 -9 -5 -36 8 -16 8 -18
-5 -14 -19 8 -20 -10 -1 -26 8 -6 12 -18 9 -27 -6 -16 15 -35 30 -26 4 3 5 33
2 68 -5 45 -4 65 6 70 7 5 10 4 5 -3 -4 -6 -4 -40 0 -76 5 -47 10 -63 20 -59
7 2 11 10 8 17 -3 7 2 19 11 26 12 10 13 15 4 21 -9 5 -8 12 5 25 15 15 16 18
3 26 -9 5 -13 16 -10 28 5 17 0 20 -31 20 -29 0 -36 -4 -36 -20z"/>
<path d="M6721 1882 c-6 -12 -5 -23 4 -35 15 -21 29 -22 21 -2 -3 9 0 15 10
15 12 0 12 4 4 20 -13 25 -26 25 -39 2z"/>
<path d="M7540 1880 c-9 -16 -8 -20 6 -20 10 0 14 -5 10 -15 -8 -22 7 -18 21
5 15 22 7 50 -13 50 -7 0 -18 -9 -24 -20z"/>
<path d="M363 1775 c0 -38 2 -53 4 -32 2 20 2 52 0 70 -2 17 -4 1 -4 -38z"/>
<path d="M6525 1767 c-18 -28 -12 -52 12 -43 8 3 22 2 31 -3 9 -4 29 -11 45
-15 23 -5 27 -3 27 15 0 15 -4 19 -16 15 -11 -4 -18 1 -21 15 -4 14 -12 19
-24 16 -11 -3 -23 2 -28 10 -7 14 -11 12 -26 -10z"/>
<path d="M7750 1777 c0 -13 -6 -16 -24 -11 -18 4 -25 1 -29 -15 -3 -14 -10
-19 -21 -15 -12 4 -16 0 -16 -15 0 -12 -6 -21 -14 -21 -9 0 -12 7 -9 19 3 12
-3 24 -18 34 -22 16 -44 14 -34 -4 4 -5 2 -9 -4 -9 -13 0 -8 -39 8 -69 l14
-24 11 22 c7 12 14 19 17 16 3 -3 28 4 55 16 27 12 61 22 77 21 24 -1 27 2 21
21 -3 12 -12 29 -20 37 -12 12 -14 12 -14 -3z"/>
<path d="M6682 1754 c-15 -11 -22 -23 -19 -35 3 -13 0 -19 -10 -19 -13 0 -13
-3 -3 -15 10 -12 15 -13 21 -4 4 8 9 5 13 -9 6 -19 37 -22 34 -4 0 4 0 9 2 12
8 22 6 61 -3 74 -11 15 -14 15 -35 0z"/>
<path d="M6532 1704 c-14 -15 -5 -24 26 -24 22 0 23 -2 11 -17 -13 -15 -11
-16 18 -10 20 4 33 2 35 -5 3 -7 12 -9 22 -5 18 7 18 8 2 26 -25 28 -99 51
-114 35z"/>
<path d="M7724 1705 c-70 -23 -104 -65 -53 -65 12 0 17 4 13 11 -4 8 3 9 25 4
26 -5 30 -4 25 9 -4 11 0 16 14 16 25 0 34 12 18 25 -7 7 -21 7 -42 0z"/>
<path d="M372 1660 c0 -19 2 -27 5 -17 2 9 2 25 0 35 -3 9 -5 1 -5 -18z"/>
<path d="M3910 1611 l-105 -38 -3 -151 -3 -151 98 36 c54 19 107 38 118 40 16
3 120 -29 228 -72 16 -7 17 4 17 139 0 80 3 146 8 146 4 0 56 -18 115 -40
l109 -39 110 39 c61 22 113 40 115 40 2 0 3 -65 3 -145 0 -80 2 -145 4 -145 3
0 55 19 118 42 l113 41 100 -35 c55 -20 108 -39 118 -43 16 -7 17 4 17 143 l0
150 -115 42 -115 43 -116 -43 -117 -42 -113 41 c-61 23 -116 41 -121 41 -4 0
-58 -18 -120 -41 l-112 -42 -113 42 c-62 23 -117 41 -123 40 -5 0 -57 -17
-115 -38z"/>
<path d="M6720 1635 c0 -8 -5 -15 -11 -15 -8 0 -9 -12 -4 -37 4 -21 8 -46 7
-55 0 -12 6 -15 25 -12 43 8 50 18 18 24 -19 3 -30 12 -31 23 -2 13 -1 14 3 2
6 -21 29 -13 25 9 -2 9 2 16 7 16 13 0 10 42 -4 52 -17 13 -35 9 -35 -7z"/>
<path d="M7541 1641 c-10 -6 -10 -10 -1 -16 9 -6 9 -10 -1 -16 -12 -8 -12 -10
0 -18 7 -5 11 -13 7 -19 -10 -16 15 -26 26 -11 8 12 9 11 5 -1 -2 -8 -17 -17
-33 -20 -31 -6 -23 -16 18 -24 21 -3 26 0 26 17 -1 12 3 37 7 55 5 21 4 32 -4
32 -6 0 -11 7 -11 15 0 17 -18 19 -39 6z"/>
<path d="M382 1600 c0 -14 2 -19 5 -12 2 6 2 18 0 25 -3 6 -5 1 -5 -13z"/>
<path d="M6559 1571 c-23 -19 -24 -19 -5 -40 11 -12 22 -38 25 -59 6 -34 9
-37 36 -35 90 6 85 3 85 44 0 40 4 38 -93 55 -45 8 -55 21 -31 39 11 8 16 15
13 15 -4 0 -17 -9 -30 -19z"/>
<path d="M7728 1573 c27 -11 11 -31 -30 -38 -101 -15 -98 -13 -98 -55 0 -30 4
-39 18 -38 9 0 35 -3 58 -7 38 -6 42 -5 47 16 4 13 7 33 7 43 0 11 7 28 16 38
14 14 14 20 4 33 -7 8 -18 15 -24 14 -7 0 -6 -2 2 -6z"/>
<path d="M392 1550 c0 -14 2 -19 5 -12 2 6 2 18 0 25 -3 6 -5 1 -5 -13z"/>
<path d="M406 1490 c4 -19 11 -44 15 -55 6 -14 7 -9 3 15 -4 19 -11 44 -15 55
-6 14 -7 9 -3 -15z"/>
<path d="M6714 1454 c3 -9 6 -22 6 -30 0 -10 13 -14 45 -14 34 0 47 5 55 20 6
11 18 20 28 20 15 0 15 2 2 10 -8 5 -44 10 -79 10 -53 0 -62 -2 -57 -16z"/>
<path d="M7446 1454 c-16 -16 -22 -74 -8 -74 4 0 13 5 20 12 9 9 8 16 -4 29
-12 13 -12 19 -3 25 8 4 18 -1 27 -14 11 -17 24 -22 58 -22 24 0 44 3 44 8 0
4 3 17 6 30 6 21 4 22 -59 22 -46 0 -70 -5 -81 -16z"/>
<path d="M6846 1421 c-17 -19 -17 -20 3 -31 19 -10 21 -8 21 20 0 35 -1 36
-24 11z"/>
<path d="M6980 1362 c0 -36 3 -40 42 -58 59 -26 207 -27 261 0 33 16 37 22 37
57 0 38 -1 39 -22 27 -31 -18 -264 -18 -295 0 -22 12 -23 11 -23 -26z m138
-35 c2 -12 -3 -17 -17 -17 -13 0 -21 6 -21 17 0 15 -2 14 -14 -3 -14 -18 -15
-18 -13 3 1 19 7 22 32 20 19 -2 31 -9 33 -20z m52 1 c0 -11 -7 -18 -20 -18
-13 0 -20 7 -20 18 0 11 7 18 20 18 13 0 20 -7 20 -18z m36 2 c0 -11 -6 -20
-13 -20 -14 0 -18 22 -6 33 12 12 19 7 19 -13z m42 2 c-5 -23 -28 -27 -28 -4
0 10 7 19 15 19 9 0 15 -7 13 -15z"/>
<path d="M6741 1320 c-18 -85 -15 -99 32 -143 204 -191 486 -209 702 -44 89
68 100 87 91 158 -9 75 -18 87 -48 65 -148 -108 -226 -138 -363 -138 -136 -1
-226 29 -335 111 -30 23 -58 41 -61 41 -4 0 -12 -23 -18 -50z m111 -75 c15
-14 32 -25 38 -25 5 0 10 -4 10 -10 0 -5 -4 -10 -10 -10 -5 0 -10 -9 -10 -20
0 -11 -4 -20 -10 -20 -5 0 -10 7 -10 15 0 8 -6 12 -12 10 -7 -3 -26 6 -43 19
-30 24 -30 24 -11 45 24 26 26 26 58 -4z m654 -25 c8 0 14 -4 14 -10 0 -5 -7
-10 -15 -10 -8 0 -15 -4 -15 -10 0 -5 -4 -10 -10 -10 -5 0 -10 6 -10 14 0 17
-18 31 -27 22 -3 -3 0 -12 7 -21 7 -8 10 -22 6 -30 -8 -22 -43 -18 -56 6 -14
25 -3 41 11 16 14 -25 32 -22 19 4 -9 17 -8 23 7 34 10 7 21 11 24 9 4 -2 10
4 15 14 7 15 8 14 11 -5 3 -13 11 -23 19 -23z m-528 -56 c4 -25 -22 -49 -43
-40 -15 5 -21 47 -8 60 14 14 48 1 51 -20z m387 -5 c4 -12 12 -18 21 -15 8 3
14 1 14 -3 0 -5 -8 -12 -17 -15 -18 -7 -43 17 -43 41 0 21 18 15 25 -8z m-337
2 c9 -5 11 -17 6 -34 -6 -26 -24 -38 -24 -17 0 5 -7 7 -15 4 -16 -7 -18 -1 -9
34 7 23 20 27 42 13z m272 -11 c-12 -8 -12 -10 -1 -10 11 0 11 -3 0 -17 -12
-15 -12 -16 4 -10 9 3 17 2 17 -3 0 -6 -4 -10 -9 -10 -5 0 -16 -3 -24 -6 -10
-3 -17 3 -21 20 -8 33 -26 34 -26 1 0 -14 -4 -25 -10 -25 -5 0 -10 9 -10 20 0
11 -4 20 -10 20 -5 0 -10 -11 -10 -25 0 -26 -14 -33 -25 -15 -5 8 -11 8 -19 1
-15 -13 -26 -4 -26 21 0 11 -7 18 -17 18 -15 0 -16 -2 -3 -10 13 -9 13 -10 0
-10 -13 0 -13 -1 0 -10 18 -11 7 -25 -15 -17 -9 4 -15 19 -15 37 0 29 2 31 33
29 17 -2 40 -9 50 -18 15 -12 17 -12 17 0 0 10 13 16 37 17 21 2 39 5 42 7 2
3 16 5 30 5 21 0 23 -2 11 -10z m-230 -17 c0 -20 -17 -50 -24 -43 -2 3 -2 17
1 33 6 30 23 37 23 10z"/>
<path d="M6827 1234 c4 -10 0 -12 -13 -7 -17 6 -17 5 -5 -10 7 -9 20 -17 27
-17 19 0 18 36 0 43 -10 4 -13 1 -9 -9z"/>
<path d="M6940 1155 c0 -8 5 -15 10 -15 6 0 10 7 10 15 0 8 -4 15 -10 15 -5 0
-10 -7 -10 -15z"/>
<path d="M450 1345 c0 -5 5 -17 10 -25 5 -8 10 -10 10 -5 0 6 -5 17 -10 25 -5
8 -10 11 -10 5z"/>
<path d="M471 1295 c0 -5 6 -21 14 -35 8 -14 14 -20 14 -15 0 6 -6 21 -14 35
-8 14 -14 21 -14 15z"/>
<path d="M548 1135 c11 -22 28 -49 37 -60 9 -11 4 3 -11 30 -34 62 -54 85 -26
30z"/>
<path d="M3180 1126 c0 -2 8 -10 18 -17 15 -13 16 -12 3 4 -13 16 -21 21 -21
13z"/>
<path d="M5813 1118 c-15 -20 -25 -38 -20 -38 3 0 12 11 21 25 17 26 16 35 -1
13z"/>
<path d="M3160 1090 c-6 -11 -8 -20 -6 -20 3 0 10 9 16 20 6 11 8 20 6 20 -3
0 -10 -9 -16 -20z"/>
<path d="M8395 1038 c-16 -24 -22 -38 -14 -31 15 12 53 73 46 73 -2 0 -17 -19
-32 -42z"/>
<path d="M5755 1028 c-16 -24 -22 -38 -14 -31 15 12 53 73 46 73 -2 0 -17 -19
-32 -42z"/>
<path d="M3125 1034 c-9 -15 -12 -23 -6 -20 11 7 35 46 28 46 -3 0 -12 -12
-22 -26z"/>
<path d="M651 973 c18 -26 78 -92 133 -148 96 -96 97 -97 15 -11 -47 50 -105
117 -128 149 -52 69 -65 76 -20 10z"/>
<path d="M3074 963 c-15 -20 -23 -33 -16 -29 13 8 56 66 49 66 -3 0 -17 -17
-33 -37z"/>
<path d="M5900 996 c0 -2 8 -10 18 -17 15 -13 16 -12 3 4 -13 16 -21 21 -21
13z"/>
<path d="M5709 963 c-13 -16 -12 -17 4 -4 16 13 21 21 13 21 -2 0 -10 -8 -17
-17z"/>
<path d="M3290 966 c0 -2 8 -10 18 -17 15 -13 16 -12 3 4 -13 16 -21 21 -21
13z"/>
<path d="M5930 956 c0 -2 8 -10 18 -17 15 -13 16 -12 3 4 -13 16 -21 21 -21
13z"/>
<path d="M8294 903 c-27 -31 -44 -54 -37 -50 14 9 97 107 90 107 -2 0 -26 -26
-53 -57z"/>
<path d="M5591 827 c-66 -71 -80 -88 -37 -47 61 58 153 161 144 160 -1 -1 -50
-51 -107 -113z"/>
<path d="M3335 910 c10 -11 20 -20 23 -20 3 0 -3 9 -13 20 -10 11 -20 20 -23
20 -3 0 3 -9 13 -20z"/>
<path d="M2930 802 c-73 -75 -91 -97 -50 -61 54 47 181 181 169 178 -2 0 -56
-53 -119 -117z"/>
<path d="M5990 885 c13 -14 26 -25 28 -25 3 0 -5 11 -18 25 -13 14 -26 25 -28
25 -3 0 5 -11 18 -25z"/>
<path d="M3430 805 c35 -36 67 -65 69 -65 3 0 -24 29 -59 65 -35 36 -67 65
-69 65 -3 0 24 -29 59 -65z"/>
<path d="M6065 800 c10 -11 20 -20 23 -20 3 0 -3 9 -13 20 -10 11 -20 20 -23
20 -3 0 3 -9 13 -20z"/>
<path d="M8140 747 c-25 -23 -63 -57 -85 -75 -33 -28 -34 -30 -6 -11 34 22
150 128 141 128 -3 0 -25 -19 -50 -42z"/>
<path d="M6165 715 c42 -39 95 -79 95 -72 0 2 -30 27 -67 56 -38 29 -50 36
-28 16z"/>
<path d="M3530 715 c13 -14 26 -25 28 -25 3 0 -5 11 -18 25 -13 14 -26 25 -28
25 -3 0 5 -11 18 -25z"/>
<path d="M909 706 c21 -25 191 -145 191 -134 0 3 -26 22 -57 43 -32 21 -78 54
-103 74 -25 19 -38 27 -31 17z"/>
<path d="M5461 706 c-7 -8 -47 -38 -89 -67 -80 -54 -119 -86 -67 -54 85 51
192 135 172 135 -2 0 -10 -6 -16 -14z"/>
<path d="M2770 659 c-35 -31 -35 -31 -3 -9 18 11 35 25 38 30 10 16 2 11 -35
-21z"/>
<path d="M3574 682 c8 -13 66 -56 66 -49 0 3 -17 17 -37 33 -20 15 -33 23 -29
16z"/>
<path d="M7972 616 c-46 -33 -53 -43 -14 -20 19 10 38 25 44 32 15 17 8 14
-30 -12z"/>
<path d="M2644 574 c-18 -14 -18 -15 4 -4 12 6 22 13 22 15 0 8 -5 6 -26 -11z"/>
<path d="M3710 586 c0 -3 9 -10 20 -16 11 -6 20 -8 20 -6 0 3 -9 10 -20 16
-11 6 -20 8 -20 6z"/>
<path d="M6360 576 c0 -3 14 -12 30 -21 17 -9 30 -13 30 -11 0 3 -13 12 -30
21 -16 9 -30 13 -30 11z"/>
<path d="M7894 564 c-18 -14 -18 -15 4 -4 12 6 22 13 22 15 0 8 -5 6 -26 -11z"/>
<path d="M1110 565 c0 -7 161 -87 166 -83 2 2 -35 23 -81 46 -47 23 -85 40
-85 37z"/>
<path d="M5238 554 c-38 -20 -36 -28 2 -9 17 9 30 18 30 20 0 7 -1 6 -32 -11z"/>
<path d="M2540 520 c-30 -16 -51 -29 -47 -30 10 0 107 49 107 55 0 7 1 7 -60
-25z"/>
<path d="M3780 545 c0 -7 101 -57 106 -53 2 2 -21 16 -51 31 -30 15 -55 25
-55 22z"/>
<path d="M5110 490 c-8 -5 -10 -10 -5 -10 6 0 17 5 25 10 8 5 11 10 5 10 -5 0
-17 -5 -25 -10z"/>
<path d="M6530 485 c14 -8 30 -14 35 -14 6 0 -1 6 -15 14 -14 8 -29 14 -35 14
-5 0 1 -6 15 -14z"/>
<path d="M7720 480 c-8 -5 -10 -10 -5 -10 6 0 17 5 25 10 8 5 11 10 5 10 -5 0
-17 -5 -25 -10z"/>
<path d="M1300 470 c8 -5 20 -10 25 -10 6 0 3 5 -5 10 -8 5 -19 10 -25 10 -5
0 -3 -5 5 -10z"/>
<path d="M2430 470 c-8 -5 -10 -10 -5 -10 6 0 17 5 25 10 8 5 11 10 5 10 -5 0
-17 -5 -25 -10z"/>
<path d="M3930 470 c8 -5 20 -10 25 -10 6 0 3 5 -5 10 -8 5 -19 10 -25 10 -5
0 -3 -5 5 -10z"/>
<path d="M6590 460 c8 -5 20 -10 25 -10 6 0 3 5 -5 10 -8 5 -19 10 -25 10 -5
0 -3 -5 5 -10z"/>
<path d="M1350 450 c8 -5 20 -10 25 -10 6 0 3 5 -5 10 -8 5 -19 10 -25 10 -5
0 -3 -5 5 -10z"/>
<path d="M4010 440 c8 -5 22 -9 30 -9 10 0 8 3 -5 9 -27 12 -43 12 -25 0z"/>
<path d="M1435 420 c11 -5 27 -9 35 -9 9 0 8 4 -5 9 -11 5 -27 9 -35 9 -9 0
-8 -4 5 -9z"/>
<path d="M4938 423 c7 -3 16 -2 19 1 4 3 -2 6 -13 5 -11 0 -14 -3 -6 -6z"/>
<path d="M2268 413 c7 -3 16 -2 19 1 4 3 -2 6 -13 5 -11 0 -14 -3 -6 -6z"/>
<path d="M4125 405 c22 -8 49 -13 60 -13 11 0 -2 6 -30 14 -63 17 -84 16 -30
-1z"/>
<path d="M6728 413 c7 -3 16 -2 19 1 4 3 -2 6 -13 5 -11 0 -14 -3 -6 -6z"/>
<path d="M7538 413 c7 -3 16 -2 19 1 4 3 -2 6 -13 5 -11 0 -14 -3 -6 -6z"/>
<path d="M1498 403 c7 -3 16 -2 19 1 4 3 -2 6 -13 5 -11 0 -14 -3 -6 -6z"/>
<path d="M2228 403 c7 -3 16 -2 19 1 4 3 -2 6 -13 5 -11 0 -14 -3 -6 -6z"/>
<path d="M4868 403 c7 -3 16 -2 19 1 4 3 -2 6 -13 5 -11 0 -14 -3 -6 -6z"/>
<path d="M6768 403 c7 -3 16 -2 19 1 4 3 -2 6 -13 5 -11 0 -14 -3 -6 -6z"/>
<path d="M7498 403 c7 -3 16 -2 19 1 4 3 -2 6 -13 5 -11 0 -14 -3 -6 -6z"/>
<path d="M1538 393 c6 -2 18 -2 25 0 6 3 1 5 -13 5 -14 0 -19 -2 -12 -5z"/>
<path d="M2188 393 c7 -3 16 -2 19 1 4 3 -2 6 -13 5 -11 0 -14 -3 -6 -6z"/>
<path d="M4818 393 c6 -2 18 -2 25 0 6 3 1 5 -13 5 -14 0 -19 -2 -12 -5z"/>
<path d="M6808 393 c7 -3 16 -2 19 1 4 3 -2 6 -13 5 -11 0 -14 -3 -6 -6z"/>
<path d="M7458 393 c7 -3 16 -2 19 1 4 3 -2 6 -13 5 -11 0 -14 -3 -6 -6z"/>
<path d="M1588 383 c6 -2 18 -2 25 0 6 3 1 5 -13 5 -14 0 -19 -2 -12 -5z"/>
<path d="M2138 383 c6 -2 18 -2 25 0 6 3 1 5 -13 5 -14 0 -19 -2 -12 -5z"/>
<path d="M4218 383 c6 -2 18 -2 25 0 6 3 1 5 -13 5 -14 0 -19 -2 -12 -5z"/>
<path d="M4768 383 c6 -2 18 -2 25 0 6 3 1 5 -13 5 -14 0 -19 -2 -12 -5z"/>
<path d="M6853 383 c9 -2 23 -2 30 0 6 3 -1 5 -18 5 -16 0 -22 -2 -12 -5z"/>
<path d="M7398 383 c6 -2 18 -2 25 0 6 3 1 5 -13 5 -14 0 -19 -2 -12 -5z"/>
<path d="M1643 373 c9 -2 25 -2 35 0 9 3 1 5 -18 5 -19 0 -27 -2 -17 -5z"/>
<path d="M2073 373 c9 -2 23 -2 30 0 6 3 -1 5 -18 5 -16 0 -22 -2 -12 -5z"/>
<path d="M4283 373 c9 -2 23 -2 30 0 6 3 -1 5 -18 5 -16 0 -22 -2 -12 -5z"/>
<path d="M4703 373 c9 -2 23 -2 30 0 6 3 -1 5 -18 5 -16 0 -22 -2 -12 -5z"/>
<path d="M6913 373 c9 -2 25 -2 35 0 9 3 1 5 -18 5 -19 0 -27 -2 -17 -5z"/>
<path d="M7333 373 c9 -2 25 -2 35 0 9 3 1 5 -18 5 -19 0 -27 -2 -17 -5z"/>
<path d="M1738 363 c18 -2 45 -2 60 0 15 2 0 4 -33 4 -33 0 -45 -2 -27 -4z"/>
<path d="M1948 363 c18 -2 45 -2 60 0 15 2 0 4 -33 4 -33 0 -45 -2 -27 -4z"/>
<path d="M4368 363 c17 -2 47 -2 65 0 17 2 3 4 -33 4 -36 0 -50 -2 -32 -4z"/>
<path d="M4578 363 c17 -2 47 -2 65 0 17 2 3 4 -33 4 -36 0 -50 -2 -32 -4z"/>
<path d="M7008 363 c18 -2 45 -2 60 0 15 2 0 4 -33 4 -33 0 -45 -2 -27 -4z"/>
<path d="M7218 363 c18 -2 45 -2 60 0 15 2 0 4 -33 4 -33 0 -45 -2 -27 -4z"/>
</g>
</svg>
