<svg width="86" height="86" viewBox="0 0 86 86" fill="none" xmlns="http://www.w3.org/2000/svg">
<g id="logo-university " filter="url(#filter0_b_340_1243)">
<rect x="3" y="3" width="80" height="80" rx="40" fill="white"/>
<rect x="3" y="3" width="80" height="80" rx="40" stroke="white" stroke-opacity="0.5" stroke-width="5"/>
<g id="Group 169404">
<path id="Vector" d="M31.4136 45.8675V31.2597H38.6021V46.3344C38.6021 48.5804 40.0743 50.8854 42.985 50.8854C45.8957 50.8854 47.3343 48.5804 47.3343 46.3344V31.2597H54.5228V45.8296C54.5228 51.6509 50.8759 57.3754 42.985 57.3754C35.0941 57.3754 31.4136 51.6551 31.4136 45.8675Z" fill="#0072BC"/>
<path id="Vector_2" d="M61.5851 22.4269H58.0561L55.709 23.0747V23.9159H48.0199V23.0242L45.6644 22.103H43.7548L43.3552 21.8843C43.3732 21.8366 43.3815 21.7858 43.3796 21.7348C43.3777 21.6838 43.3656 21.6337 43.344 21.5875C43.3225 21.5412 43.2919 21.4998 43.2541 21.4655C43.2163 21.4313 43.172 21.4049 43.1239 21.388V20H42.8294V21.4006C42.7567 21.4323 42.6945 21.4838 42.6498 21.5493C42.6052 21.6148 42.58 21.6916 42.577 21.7708C42.5814 21.813 42.5928 21.8542 42.6107 21.8927L42.1901 22.103H40.2047L37.9586 23.0578V23.8991H30.219V23.0578L27.8888 22.4269H24.3471L22 23.0747V47.2261C22.0067 52.7336 24.1976 58.0137 28.0922 61.9081C31.9867 65.8025 37.267 67.9933 42.7747 68H43.1617C48.6695 67.9933 53.9497 65.8025 57.8443 61.9081C61.7389 58.0137 63.9298 52.7336 63.9364 47.2261V24.3491V23.0873L61.5851 22.4269ZM60.9416 47.2429C60.9316 51.9536 59.0546 56.4683 55.7219 59.7977C52.3892 63.1271 47.8726 64.9997 43.1617 65.0053H42.7747C38.0609 64.9997 33.5418 63.1247 30.2086 59.7917C26.8754 56.4587 25.0004 51.9397 24.9949 47.2261V26.7718H60.9416V47.2429Z" fill="#0072BC"/>
<path id="Vector_3" d="M32.9574 55.3396L34.3286 56.7276L33.9669 57.0809L33.4747 56.5804L32.1582 57.8801L31.7796 57.4931L33.0962 56.1976L32.5998 55.6929L32.9574 55.3396Z" fill="#0072BC"/>
<path id="Vector_4" d="M35.6914 57.6656C35.8344 57.7469 35.9587 57.8573 36.0563 57.9896C36.1538 58.122 36.2225 58.2734 36.2578 58.434C36.2931 58.5946 36.2942 58.7609 36.2612 58.922C36.2281 59.083 36.1615 59.2354 36.0658 59.3691C35.9785 59.5078 35.8636 59.6271 35.7282 59.7195C35.5929 59.8119 35.44 59.8754 35.279 59.9062C35.118 59.937 34.9525 59.9343 34.7926 59.8983C34.6327 59.8624 34.4819 59.7939 34.3496 59.6972C34.2063 59.6163 34.0816 59.5062 33.9836 59.374C33.8856 59.2417 33.8165 59.0904 33.7808 58.9298C33.7451 58.7691 33.7436 58.6028 33.7764 58.4415C33.8091 58.2802 33.8755 58.1277 33.971 57.9937C34.058 57.8547 34.1726 57.735 34.3078 57.6422C34.443 57.5494 34.5958 57.4854 34.7568 57.4542C34.9178 57.4231 35.0835 57.4254 35.2436 57.461C35.4036 57.4967 35.5546 57.5649 35.6872 57.6614L35.6914 57.6656ZM34.6188 59.2808C34.6944 59.3356 34.7808 59.3735 34.8723 59.392C34.9638 59.4105 35.0582 59.4091 35.1492 59.388C35.2401 59.3668 35.3254 59.3264 35.3994 59.2695C35.4733 59.2125 35.5342 59.1403 35.5778 59.0578C35.6337 58.9835 35.6737 58.8985 35.6954 58.8081C35.7172 58.7177 35.7202 58.6237 35.7043 58.5321C35.6884 58.4405 35.6539 58.3531 35.6029 58.2753C35.5519 58.1976 35.4856 58.131 35.408 58.0798C35.3303 58.0287 35.243 57.9939 35.1515 57.9777C35.0599 57.9616 34.966 57.9643 34.8755 57.9858C34.785 58.0073 34.6999 58.047 34.6254 58.1026C34.5508 58.1583 34.4885 58.2285 34.4421 58.3092C34.3888 58.3842 34.3511 58.4691 34.3311 58.5589C34.3111 58.6487 34.3092 58.7416 34.3257 58.8322C34.3422 58.9227 34.3766 59.0091 34.4269 59.0861C34.4773 59.1631 34.5425 59.2293 34.6188 59.2808Z" fill="#0072BC"/>
<path id="Vector_5" d="M37.2225 58.6288L37.7357 58.8012L38.1016 59.9747L39.0691 59.2555L39.5528 59.4195L38.7915 61.6488L38.2825 61.4763L38.7662 60.0547L37.8492 60.715L37.7777 60.6898L37.4497 59.6172L36.9701 61.0305L36.4612 60.8538L37.2225 58.6288Z" fill="#0072BC"/>
<path id="Vector_6" d="M40.192 60.164C40.2064 60.0695 40.2401 59.979 40.291 59.898C40.3418 59.8171 40.4087 59.7474 40.4876 59.6934C40.5664 59.6394 40.6555 59.6021 40.7494 59.584C40.8432 59.5658 40.9397 59.5671 41.0331 59.5878C41.1602 59.5974 41.2839 59.633 41.3967 59.6923C41.5096 59.7516 41.6091 59.8334 41.6891 59.9327L41.3527 60.2986C41.3157 60.2424 41.2667 60.1952 41.2092 60.1603C41.1518 60.1254 41.0873 60.1037 41.0204 60.0967C40.8733 60.0967 40.7765 60.1345 40.7639 60.2397C40.7135 60.6267 41.7017 60.6603 41.605 61.4174C41.587 61.5151 41.5495 61.6081 41.4947 61.6908C41.4399 61.7736 41.3689 61.8444 41.286 61.8991C41.2031 61.9537 41.11 61.991 41.0124 62.0087C40.9147 62.0264 40.8144 62.0241 40.7177 62.0021C40.5627 61.9936 40.4127 61.9444 40.2827 61.8595C40.1528 61.7746 40.0475 61.6569 39.9775 61.5184L40.3266 61.1945C40.3768 61.2775 40.4446 61.3484 40.5253 61.4022C40.6059 61.456 40.6975 61.4913 40.7934 61.5057C40.9321 61.5057 41.0204 61.4637 41.0373 61.3543C41.0835 61.0052 40.1037 60.9337 40.1962 60.1682" fill="#0072BC"/>
<path id="Vector_7" d="M42.5308 59.7603L43.069 59.7476L43.0943 60.7739L43.8386 59.7308L44.4862 59.714L43.6283 60.8202L44.6124 62.0694L43.9269 62.082L43.0985 60.9842L43.1237 62.1031L42.5854 62.1157L42.5308 59.7603Z" fill="#0072BC"/>
<path id="Vector_8" d="M46.0522 60.5242L45.1759 60.6633L45.2498 61.1285L46.1261 60.9894L46.0522 60.5242Z" fill="#0072BC"/>
<path id="Vector_9" d="M46.9977 59.2219L47.3467 59.1251L47.9901 61.388L47.5065 61.5268L47.0608 59.9495L46.8757 60.1724L46.5099 59.8444L46.9977 59.2219Z" fill="#0072BC"/>
<path id="Vector_10" d="M48.798 60.4795C48.739 60.3707 48.7143 60.2467 48.7271 60.1236C48.7398 60.0005 48.7895 59.8841 48.8695 59.7897C48.7577 59.781 48.6506 59.7413 48.56 59.6752C48.4694 59.6091 48.3989 59.5192 48.3565 59.4154C48.3209 59.2365 48.3462 59.0509 48.4284 58.8882C48.5106 58.7254 48.645 58.5949 48.81 58.5174C48.9751 58.4399 49.1613 58.42 49.339 58.4608C49.5167 58.5016 49.6757 58.6007 49.7904 58.7424C49.8398 58.8454 49.8596 58.9601 49.8477 59.0737C49.8358 59.1873 49.7927 59.2954 49.7232 59.386C49.845 59.3663 49.9699 59.3884 50.0775 59.4487C50.1852 59.5091 50.2693 59.604 50.3161 59.7182C50.5053 60.1388 50.2909 60.4964 49.8451 60.7067C49.3994 60.917 48.9704 60.8455 48.798 60.4837V60.4795ZM49.2185 59.3397C49.2461 59.3288 49.2711 59.3123 49.292 59.2912C49.3129 59.2702 49.3292 59.245 49.3398 59.2174C49.3505 59.1897 49.3553 59.1601 49.354 59.1305C49.3527 59.1009 49.3452 59.0718 49.3321 59.0453C49.2774 58.9275 49.1639 58.8938 49.0083 58.9653C48.8527 59.0368 48.8232 59.1588 48.8737 59.2598C48.886 59.2876 48.9041 59.3125 48.9268 59.3328C48.9495 59.3531 48.9763 59.3683 49.0053 59.3775C49.0344 59.3866 49.065 59.3895 49.0953 59.3859C49.1255 59.3823 49.1546 59.3723 49.1807 59.3565L49.2185 59.3397ZM49.3952 59.815C49.3608 59.8261 49.3292 59.8443 49.3023 59.8683C49.2753 59.8923 49.2537 59.9216 49.2386 59.9544C49.2236 59.9873 49.2156 60.0228 49.215 60.0589C49.2144 60.095 49.2214 60.1308 49.2354 60.1641C49.29 60.2818 49.4204 60.3491 49.618 60.2524C49.8157 60.1557 49.8535 60.0127 49.7947 59.8991C49.7794 59.8664 49.7573 59.8373 49.7299 59.8139C49.7025 59.7905 49.6703 59.7732 49.6357 59.7632C49.601 59.7532 49.5646 59.7508 49.5289 59.7561C49.4932 59.7614 49.4591 59.7743 49.4288 59.7939L49.3952 59.815Z" fill="#0072BC"/>
<path id="Vector_11" d="M50.0052 57.9264L51.2584 57.0221L51.4603 57.2997L51.9901 59.3943L51.5444 59.7182L51.065 57.7834L50.2996 58.3344L50.0052 57.9264Z" fill="#0072BC"/>
<path id="Vector_12" d="M52.9118 57.8969C52.8178 57.8158 52.7505 57.708 52.719 57.5879C52.6874 57.4677 52.6931 57.3408 52.7352 57.224C52.6275 57.2544 52.5135 57.2543 52.4059 57.2239C52.2982 57.1934 52.2011 57.1338 52.1253 57.0515C52.0277 56.897 51.9849 56.7141 52.0036 56.5323C52.0224 56.3505 52.1016 56.1803 52.2287 56.0489C52.3557 55.9175 52.5232 55.8325 52.7043 55.8076C52.8853 55.7828 53.0695 55.8194 53.2273 55.9117C53.3099 55.9907 53.369 56.0912 53.398 56.2018C53.4269 56.3125 53.4246 56.429 53.3913 56.5384C53.4984 56.4767 53.6232 56.4531 53.7455 56.4714C53.8677 56.4897 53.9801 56.5489 54.0643 56.6393C54.1366 56.7146 54.1919 56.8046 54.2266 56.903C54.2612 57.0015 54.2744 57.1062 54.2652 57.2102C54.2561 57.3142 54.2248 57.415 54.1734 57.5058C54.1221 57.5967 54.0519 57.6756 53.9676 57.7371C53.6269 58.0904 53.1979 58.1577 52.9118 57.8969ZM52.9118 56.673C52.9336 56.6529 52.951 56.6285 52.9629 56.6013C52.9748 56.5742 52.981 56.5449 52.981 56.5152C52.981 56.4856 52.9748 56.4563 52.9629 56.4291C52.951 56.402 52.9336 56.3776 52.9118 56.3575C52.8151 56.265 52.7015 56.2734 52.5795 56.3996C52.555 56.4182 52.5347 56.4418 52.5201 56.4689C52.5055 56.496 52.4969 56.526 52.495 56.5567C52.493 56.5874 52.4976 56.6182 52.5086 56.647C52.5195 56.6758 52.5366 56.7018 52.5585 56.7234C52.5786 56.7459 52.6033 56.7639 52.6308 56.7762C52.6583 56.7885 52.6882 56.7949 52.7183 56.7949C52.7485 56.7949 52.7783 56.7885 52.8059 56.7762C52.8334 56.7639 52.8581 56.7459 52.8782 56.7234L52.9118 56.673ZM53.2483 57.0515C53.2196 57.0741 53.196 57.1026 53.1789 57.1349C53.1619 57.1673 53.1519 57.2029 53.1495 57.2394C53.1471 57.2759 53.1524 57.3125 53.1651 57.3468C53.1778 57.3811 53.1976 57.4123 53.2231 57.4385C53.3156 57.531 53.4586 57.5478 53.6143 57.388C53.7699 57.2282 53.7489 57.081 53.6563 56.9926C53.6303 56.9677 53.5993 56.9487 53.5654 56.9368C53.5314 56.9248 53.4953 56.9203 53.4594 56.9235C53.4236 56.9267 53.3888 56.9375 53.3575 56.9552C53.3261 56.973 53.299 56.9972 53.2778 57.0263L53.2483 57.0515Z" fill="#0072BC"/>
</g>
</g>
<defs>
<filter id="filter0_b_340_1243" x="-19.5" y="-19.5" width="125" height="125" filterUnits="userSpaceOnUse" color-interpolation-filters="sRGB">
<feFlood flood-opacity="0" result="BackgroundImageFix"/>
<feGaussianBlur in="BackgroundImageFix" stdDeviation="10"/>
<feComposite in2="SourceAlpha" operator="in" result="effect1_backgroundBlur_340_1243"/>
<feBlend mode="normal" in="SourceGraphic" in2="effect1_backgroundBlur_340_1243" result="shape"/>
</filter>
</defs>
</svg>
