<svg width="40" height="40" viewBox="0 0 40 40" fill="none" xmlns="http://www.w3.org/2000/svg">
<g id="Frame" clip-path="url(#clip0_340_1258)">
<g id="sign-color-inverse__x28_&#208;&#186;&#208;&#190;&#208;&#191;&#208;&#184;&#209;&#143;_x29_">
<g id="Layer_1__x28_&#208;&#186;&#208;&#190;&#208;&#191;&#208;&#184;&#209;&#143;_x29_">
<g id="Group">
<path id="Vector" d="M39.2244 15.4563L32.7059 13.0653L26.1591 15.4563L19.6122 13.0653L13.0938 15.4563L6.54688 13.0653L0 15.4563V23.768L6.54688 26.1591L13.0938 23.768L19.6122 26.1591L26.1591 23.768L32.7059 26.1591L39.2244 23.768V15.4563Z" fill="black"/>
<path id="Vector_2" d="M39.2244 2.39104L32.7059 0L26.1591 2.39104L19.6122 0L13.0653 2.39104L6.54688 0L0 2.39104V10.7027L6.54688 13.0653L13.0938 10.7027L19.6122 13.0653L26.1591 10.7027L32.7059 13.0653L39.2244 10.7027V2.39104Z" fill="#28BE46"/>
<path id="Vector_3" d="M13.0653 2.39104L6.54688 4.75361L0 2.39104L6.54688 0L13.0653 2.39104Z" fill="black"/>
<path id="Vector_4" d="M26.1591 2.39104L19.6122 4.75361L13.0653 2.39104L19.6122 0L26.1591 2.39104Z" fill="black"/>
<path id="Vector_5" d="M39.2244 2.39104L32.7059 4.75361L26.1591 2.39104L32.7059 0L39.2244 2.39104Z" fill="black"/>
<path id="Vector_6" d="M0 23.768L6.54688 21.4055L13.0653 23.768L6.54688 26.1591L0 23.768Z" fill="#28BE46"/>
<path id="Vector_7" d="M26.1591 23.768L32.7059 21.4055L39.2244 23.768L32.7059 26.1591L26.1591 23.768Z" fill="#28BE46"/>
<g id="Group_2">
<path id="Vector_8" d="M26.1591 15.4563L19.6122 17.8474L13.0653 15.4563V23.768L19.6122 26.1591L26.1591 23.768V15.4563Z" fill="#28BE46"/>
</g>
<path id="Vector_9" d="M39.2244 28.5501L32.7059 26.1591L26.1591 28.5501L19.6122 26.1591L13.0938 28.5501L6.54688 26.1591L0 28.5501V36.8618L6.54688 39.2244L13.0938 36.8618L19.6122 39.2244L26.1591 36.8618L32.7059 39.2244L39.2244 36.8618V28.5501Z" fill="black"/>
<path id="Vector_10" d="M0 36.8618L6.54688 34.4708L13.0653 36.8618L6.54688 39.2244L0 36.8618Z" fill="#28BE46"/>
<path id="Vector_11" d="M26.1591 36.8618L32.7059 34.4708L39.2244 36.8618L32.7059 39.2244L26.1591 36.8618Z" fill="#28BE46"/>
<g id="Group_3">
<path id="Vector_12" d="M26.1591 28.5501L19.6122 30.9127L13.0653 28.5501V36.8618L19.6122 39.2244L26.1591 36.8618V28.5501Z" fill="#28BE46"/>
</g>
</g>
</g>
</g>
</g>
<defs>
<clipPath id="clip0_340_1258">
<rect width="39.2244" height="39.2244" fill="white"/>
</clipPath>
</defs>
</svg>
