<?xml version="1.0" encoding="UTF-8" standalone="no"?>
<svg
   width="86"
   height="86"
   viewBox="0 0 86 86"
   fill="none"
   version="1.1"
   id="svg2"
   sodipodi:docname="un2b.svg"
   inkscape:version="1.3.2 (091e20ef0f, 2023-11-25, custom)"
   xmlns:inkscape="http://www.inkscape.org/namespaces/inkscape"
   xmlns:sodipodi="http://sodipodi.sourceforge.net/DTD/sodipodi-0.dtd"
   xmlns="http://www.w3.org/2000/svg"
   xmlns:svg="http://www.w3.org/2000/svg">
  <sodipodi:namedview
     id="namedview2"
     pagecolor="#232323"
     bordercolor="#000000"
     borderopacity="0.25"
     inkscape:showpageshadow="2"
     inkscape:pageopacity="0.0"
     inkscape:pagecheckerboard="0"
     inkscape:deskcolor="#d1d1d1"
     inkscape:zoom="6.5777375"
     inkscape:cx="32.229927"
     inkscape:cy="42.719856"
     inkscape:window-width="1920"
     inkscape:window-height="1004"
     inkscape:window-x="0"
     inkscape:window-y="0"
     inkscape:window-maximized="1"
     inkscape:current-layer="logo-university " />
  <g
     id="logo-university "
     filter="url(#filter0_b_340_1243)">
    <rect
       x="3"
       y="3"
       width="80"
       height="80"
       rx="40"
       fill="white"
       id="rect1" />
    <rect
       x="3"
       y="3"
       width="80"
       height="80"
       rx="40"
       stroke="white"
       stroke-opacity="0.5"
       stroke-width="5"
       id="rect2" />
    <g
       id="Frame"
       clip-path="url(#clip0_340_1258)"
       transform="matrix(1.2747168,0,0,1.2747168,17.999999,17.999999)">
      <g
         id="sign-color-inverse__x28_копия_x29_">
        <g
           id="Layer_1__x28_копия_x29_">
          <g
             id="Group">
            <path
               id="Vector"
               d="m 39.2244,15.4563 -6.5185,-2.391 -6.5468,2.391 -6.5469,-2.391 -6.5184,2.391 L 6.54688,13.0653 0,15.4563 v 8.3117 l 6.54688,2.3911 6.54692,-2.3911 6.5184,2.3911 6.5469,-2.3911 6.5468,2.3911 6.5185,-2.3911 z"
               fill="#000000" />
            <path
               id="Vector_2"
               d="M 39.2244,2.39104 32.7059,0 26.1591,2.39104 19.6122,0 13.0653,2.39104 6.54688,0 0,2.39104 v 8.31166 l 6.54688,2.3626 6.54692,-2.3626 6.5184,2.3626 6.5469,-2.3626 6.5468,2.3626 6.5185,-2.3626 z"
               fill="#28be46" />
            <path
               id="Vector_3"
               d="M 13.0653,2.39104 6.54688,4.75361 0,2.39104 6.54688,0 Z"
               fill="#000000" />
            <path
               id="Vector_4"
               d="M 26.1591,2.39104 19.6122,4.75361 13.0653,2.39104 19.6122,0 Z"
               fill="#000000" />
            <path
               id="Vector_5"
               d="M 39.2244,2.39104 32.7059,4.75361 26.1591,2.39104 32.7059,0 Z"
               fill="#000000" />
            <path
               id="Vector_6"
               d="M 0,23.768 6.54688,21.4055 13.0653,23.768 6.54688,26.1591 Z"
               fill="#28be46" />
            <path
               id="Vector_7"
               d="m 26.1591,23.768 6.5468,-2.3625 6.5185,2.3625 -6.5185,2.3911 z"
               fill="#28be46" />
            <g
               id="Group_2">
              <path
                 id="Vector_8"
                 d="m 26.1591,15.4563 -6.5469,2.3911 -6.5469,-2.3911 v 8.3117 l 6.5469,2.3911 6.5469,-2.3911 z"
                 fill="#28be46" />
            </g>
            <path
               id="Vector_9"
               d="m 39.2244,28.5501 -6.5185,-2.391 -6.5468,2.391 -6.5469,-2.391 -6.5184,2.391 L 6.54688,26.1591 0,28.5501 v 8.3117 l 6.54688,2.3626 6.54692,-2.3626 6.5184,2.3626 6.5469,-2.3626 6.5468,2.3626 6.5185,-2.3626 z"
               fill="#000000" />
            <path
               id="Vector_10"
               d="m 0,36.8618 6.54688,-2.391 6.51842,2.391 -6.51842,2.3626 z"
               fill="#28be46" />
            <path
               id="Vector_11"
               d="m 26.1591,36.8618 6.5468,-2.391 6.5185,2.391 -6.5185,2.3626 z"
               fill="#28be46" />
            <g
               id="Group_3">
              <path
                 id="Vector_12"
                 d="m 26.1591,28.5501 -6.5469,2.3626 -6.5469,-2.3626 v 8.3117 l 6.5469,2.3626 6.5469,-2.3626 z"
                 fill="#28be46" />
            </g>
          </g>
        </g>
      </g>
    </g>
  </g>
  <defs
     id="defs2">
    <filter
       id="filter0_b_340_1243"
       x="-19.5"
       y="-19.5"
       width="125"
       height="125"
       filterUnits="userSpaceOnUse"
       color-interpolation-filters="sRGB">
      <feFlood
         flood-opacity="0"
         result="BackgroundImageFix"
         id="feFlood2" />
      <feGaussianBlur
         in="BackgroundImageFix"
         stdDeviation="10"
         id="feGaussianBlur2" />
      <feComposite
         in2="SourceAlpha"
         operator="in"
         result="effect1_backgroundBlur_340_1243"
         id="feComposite2" />
      <feBlend
         mode="normal"
         in="SourceGraphic"
         in2="effect1_backgroundBlur_340_1243"
         result="shape"
         id="feBlend2" />
    </filter>
    <clipPath
       id="clip0_340_1258">
      <rect
         width="39.2244"
         height="39.2244"
         fill="#ffffff"
         id="rect1-3"
         x="0"
         y="0" />
    </clipPath>
  </defs>
</svg>
