<svg width="86" height="86" viewBox="0 0 86 86" fill="none" xmlns="http://www.w3.org/2000/svg">
<g id="logo-university " filter="url(#filter0_b_340_1276)">
<rect x="3" y="3" width="80" height="80" rx="40" fill="white"/>
<rect x="3" y="3" width="80" height="80" rx="40" stroke="white" stroke-opacity="0.5" stroke-width="5"/>
<g id="Group 170729">
<path id="Vector" d="M37.8524 62.6443C37.7975 62.6167 37.735 62.6078 37.6746 62.6189C37.6208 62.628 37.5708 62.6525 37.5306 62.6895C37.4831 62.7314 37.4431 62.781 37.4121 62.8363C37.375 62.8956 37.3429 62.958 37.3161 63.0226C37.2857 63.0938 37.2612 63.1675 37.2427 63.2427C37.2259 63.3004 37.2211 63.3609 37.2286 63.4206C37.2341 63.4719 37.2537 63.5207 37.285 63.5617C37.322 63.6071 37.3709 63.6413 37.4262 63.6605C37.4761 63.6846 37.5321 63.6934 37.5871 63.6859C37.6387 63.6778 37.6873 63.6564 37.7282 63.6238C37.7747 63.5842 37.8147 63.5375 37.8468 63.4855C37.8857 63.4214 37.9197 63.3544 37.9484 63.2851C37.9766 63.2173 37.9992 63.1496 38.019 63.0847C38.0349 63.0249 38.0415 62.963 38.0387 62.9012C38.0361 62.8471 38.0196 62.7946 37.9907 62.7488C37.9559 62.7011 37.9078 62.6647 37.8524 62.6443Z" fill="#A51C30"/>
<path id="Vector_2" d="M39.5297 63.2601L39.3431 63.2064L39.2328 63.605L39.4194 63.6588C39.4457 63.6617 39.4723 63.6617 39.4986 63.6588C39.5241 63.6565 39.549 63.6498 39.5721 63.639C39.5965 63.627 39.6177 63.6096 39.6343 63.5881C39.655 63.5636 39.6696 63.5345 39.6768 63.5033C39.6861 63.4769 39.6896 63.4489 39.6872 63.4211C39.6847 63.3933 39.6763 63.3664 39.6626 63.3421C39.6298 63.2995 39.5825 63.2703 39.5297 63.2601Z" fill="#A51C30"/>
<path id="Vector_3" d="M54.0689 57.0133C51.0882 59.6102 48.1187 61.4365 43.2919 61.4365C38.6852 61.4365 35.4616 59.5961 32.4724 56.9766C32.1901 56.8694 31.9925 57.1686 31.7639 58.5235C31.682 59.0146 31.109 60.7816 31.8034 61.7301C34.9649 65.0806 38.6146 67.0001 43.2919 67.0001C48.0255 67.0001 51.7205 65.0242 54.8932 61.6087C55.4577 60.7083 54.9327 59.0146 54.8508 58.5235C54.6024 57.05 54.3823 56.827 54.0689 57.0133ZM32.8083 61.0865L33.9374 59.7683L34.9282 60.6151L34.708 60.872L34.0983 60.3498L33.8838 60.601L34.3947 61.0385L34.1773 61.2897L33.6664 60.8522L33.4124 61.1514L34.0475 61.6934L33.8216 61.9559L32.8083 61.0865ZM35.5125 62.0321C35.5125 62.2071 35.5125 62.3849 35.5125 62.5628C35.5125 62.7406 35.5125 62.9213 35.5125 63.0963L35.0298 62.7886L35.0778 62.1224L34.4906 62.4301L34.0221 62.1196L34.516 61.9079L35.0128 61.6962V60.6998L35.487 61.0131L35.4306 61.62L35.7129 61.476L35.9951 61.3349L36.4665 61.6454L35.5125 62.0321ZM38.2448 63.7991C38.172 63.8832 38.0826 63.9514 37.9823 63.9995C37.8804 64.0458 37.7696 64.0689 37.6577 64.0673C37.5294 64.0644 37.4028 64.0366 37.2851 63.9854C37.163 63.937 37.0509 63.8662 36.9549 63.7765C36.8738 63.6981 36.8128 63.6013 36.777 63.4943C36.7395 63.3904 36.726 63.2795 36.7375 63.1697C36.748 63.047 36.7785 62.9268 36.8278 62.814C36.8745 62.7028 36.9372 62.5992 37.0141 62.5063C37.0822 62.417 37.1703 62.345 37.2713 62.2959C37.3723 62.2469 37.4834 62.2223 37.5956 62.224C37.728 62.2257 37.8587 62.2545 37.9795 62.3087C38.1026 62.3566 38.2148 62.4286 38.3098 62.5204C38.3893 62.5985 38.4498 62.6939 38.4865 62.7991C38.5232 62.9044 38.5352 63.0167 38.5215 63.1273C38.5093 63.2458 38.4799 63.3618 38.434 63.4717C38.3898 63.5907 38.3258 63.7014 38.2448 63.7991ZM40.1671 63.6185C40.1533 63.6615 40.1354 63.7031 40.1135 63.7427C40.0909 63.7817 40.0623 63.817 40.0288 63.8471C39.9947 63.8782 39.9567 63.9047 39.9159 63.9261C39.8702 63.9465 39.8216 63.9599 39.7719 63.9657C39.803 63.9856 39.8299 64.0115 39.851 64.0419C39.8699 64.0689 39.8851 64.0983 39.8961 64.1294C39.907 64.1594 39.9137 64.1907 39.9159 64.2225C39.9159 64.2564 39.9159 64.2874 39.9159 64.3213V64.8125L39.4417 64.6826V64.2253C39.4475 64.1582 39.4316 64.0909 39.3965 64.0334C39.3588 63.9885 39.3071 63.9577 39.2497 63.9459L39.1425 63.9148L38.9646 64.5471L38.4876 64.4145L38.9533 62.7434L39.7155 62.9551C39.8092 62.9777 39.8981 63.0169 39.978 63.0709C40.0385 63.1135 40.0894 63.1683 40.1276 63.2318C40.1599 63.2889 40.1792 63.3526 40.184 63.4181C40.1888 63.4853 40.183 63.5529 40.1671 63.6185ZM40.7683 64.9677L40.2828 64.8774L40.6018 63.1838L41.0873 63.2741L40.7683 64.9677ZM42.6426 63.7906L41.8438 63.7088L41.8099 64.0362L42.4761 64.1068L42.4422 64.4371L41.7761 64.3665L41.7337 64.756L42.5805 64.8435L42.5438 65.1879L41.2143 65.0468L41.395 63.3221L42.6906 63.4547L42.6426 63.7906ZM44.0822 65.202C43.989 65.0637 43.8987 64.9197 43.7999 64.7927C43.7011 64.6657 43.6249 64.5104 43.5346 64.3778C43.5092 64.3411 43.4866 64.3016 43.464 64.2649L43.3963 64.1548V65.2077H42.9193L42.8938 63.4745H43.3963C43.4866 63.6015 43.5713 63.7285 43.6532 63.8527C43.735 63.9769 43.8197 64.1068 43.9072 64.2366L44.0596 64.485H44.0794L44.0624 63.4632H44.5451L44.5705 65.1964L44.0822 65.202ZM45.9226 65.0411L45.4343 65.1032L45.2564 63.7229L44.7173 63.7935L44.675 63.4519L46.2416 63.2487L46.2867 63.5931L45.7561 63.6608L45.9226 65.0411ZM46.7694 64.9084L46.3658 63.2148L47.6332 62.9128L47.7122 63.2402L46.9332 63.4265L47.0093 63.7455L47.6614 63.5902L47.7376 63.9148L47.0856 64.0701L47.1759 64.4512L47.9888 64.2592L48.0679 64.5923L46.7694 64.9084ZM49.2308 64.2141L48.5675 62.6108L49.0248 62.4216L49.5611 63.7116L50.3486 63.3842L50.4785 63.6975L49.2308 64.2141ZM51.8785 62.7604C51.8494 62.8478 51.8001 62.9271 51.7346 62.9918C51.6514 63.0759 51.5563 63.1472 51.4523 63.2035C51.3462 63.2641 51.2322 63.3097 51.1136 63.339C51.0207 63.3601 50.9242 63.3601 50.8313 63.339C50.7483 63.3184 50.6717 63.2777 50.6083 63.2205C50.5377 63.1545 50.4786 63.0772 50.4333 62.9918L49.9026 62.0462L50.326 61.8091L50.8708 62.7745C50.8877 62.8136 50.9124 62.8488 50.9435 62.8779C50.9746 62.9071 51.0114 62.9295 51.0515 62.9438C51.0902 62.9516 51.1301 62.9516 51.1689 62.9439C51.2077 62.9361 51.2445 62.9207 51.2773 62.8987C51.3106 62.8807 51.3411 62.8579 51.3676 62.8309C51.3917 62.805 51.41 62.7742 51.4212 62.7406C51.4298 62.7035 51.4298 62.6648 51.4212 62.6277C51.4117 62.5801 51.3946 62.5343 51.3704 62.4922L50.8256 61.5268L51.2491 61.2897L51.7769 62.2353C51.8269 62.3228 51.8613 62.4183 51.8785 62.5176C51.8939 62.5971 51.892 62.6789 51.8729 62.7575L51.8785 62.7604ZM53.3548 61.9135L52.7451 61.6454L52.8382 62.3031L52.3866 62.6418C52.3866 62.4612 52.364 62.2805 52.3556 62.1027C52.3471 61.9248 52.3358 61.7442 52.3217 61.5635L51.3874 61.222L51.8419 60.8833L52.4064 61.1401C52.3951 61.0404 52.381 60.9388 52.364 60.8353C52.3471 60.7308 52.333 60.632 52.3217 60.5332L52.7733 60.1945L52.8213 61.2079L53.3181 61.3913L53.8205 61.5776L53.3548 61.9135Z" fill="#A51C30"/>
<path id="Vector_4" d="M41.6996 58.552C41.713 58.5794 41.7335 58.6028 41.7589 58.6197C41.788 58.6397 41.8224 58.6505 41.8577 58.6508C41.8915 58.6544 41.9257 58.6486 41.9564 58.6339C41.9847 58.6203 42.0083 58.5987 42.0242 58.5718C42.0449 58.541 42.0592 58.5065 42.0665 58.4701C42.0777 58.4258 42.0843 58.3804 42.0863 58.3347C42.0891 58.2924 42.0891 58.2499 42.0863 58.2076C42.0845 58.1697 42.0759 58.1324 42.0609 58.0975C42.0497 58.0673 42.0301 58.0408 42.0044 58.0213C41.9764 57.9987 41.9417 57.9859 41.9056 57.9846C41.8697 57.9816 41.8336 57.9884 41.8012 58.0044C41.7711 58.0203 41.7465 58.0449 41.7306 58.075C41.7124 58.1076 41.6991 58.1428 41.6911 58.1794C41.6813 58.2212 41.6747 58.2636 41.6714 58.3064C41.6685 58.3525 41.6685 58.3987 41.6714 58.4447C41.6736 58.482 41.6832 58.5185 41.6996 58.552Z" fill="#A51C30"/>
<path id="Vector_5" d="M38.6256 58.47C39.9099 59.297 40.5112 59.6329 43.3056 59.6329C46.1001 59.6329 46.6929 59.297 47.9829 58.47C48.2652 58.2357 48.1071 57.084 48.1071 56.957C48.1071 56.3417 48.3103 56.1102 48.2002 56.1356C47.4579 56.9598 45.2561 56.9965 43.3847 56.9965H43.2153C41.3439 56.9965 39.1422 56.9598 38.3998 56.1356C38.2897 56.1102 38.4929 56.3417 38.4929 56.957C38.5014 57.084 38.3433 58.2357 38.6256 58.47ZM45.5187 57.705L45.5779 58.0946H45.6655H45.7134C45.7282 58.0888 45.7416 58.0802 45.7529 58.0692C45.7655 58.0568 45.776 58.0425 45.784 58.0268C45.7929 58.0052 45.7987 57.9824 45.8009 57.9591L45.832 57.6768L46.1143 57.6345L46.0804 57.9534C46.075 57.9939 46.0626 58.033 46.0437 58.0692C46.0279 58.1031 46.0023 58.1316 45.9703 58.151C45.9949 58.1547 46.0187 58.1623 46.0409 58.1736C46.0594 58.1835 46.0764 58.1958 46.0917 58.2103C46.1068 58.2227 46.1193 58.2381 46.1284 58.2555C46.1414 58.2726 46.1519 58.2917 46.1594 58.3119L46.3147 58.6535L46.0126 58.6986L45.88 58.4022C45.8678 58.3663 45.844 58.3355 45.8122 58.3147C45.7765 58.3027 45.7379 58.3027 45.7022 58.3147H45.6062L45.6711 58.7494L45.3888 58.7946L45.2307 57.7615L45.5187 57.705ZM44.1948 58.168C44.2056 58.1022 44.2307 58.0396 44.2682 57.9845C44.3083 57.925 44.3626 57.8764 44.4263 57.8433C44.5071 57.7998 44.597 57.7756 44.6888 57.7728H44.8384C44.8869 57.7762 44.9351 57.7837 44.9823 57.7954L44.9598 58.0127H44.8469H44.7453C44.7078 58.0156 44.6708 58.0232 44.6352 58.0353C44.6049 58.0492 44.5779 58.0694 44.5561 58.0946C44.5329 58.1235 44.5165 58.1573 44.5081 58.1934C44.5008 58.2401 44.5008 58.2877 44.5081 58.3345C44.5088 58.3856 44.5183 58.4362 44.5364 58.4841C44.549 58.5185 44.5681 58.5501 44.5928 58.5772C44.6195 58.5983 44.6502 58.6137 44.6831 58.6224C44.7243 58.6282 44.7661 58.6282 44.8073 58.6224H44.8553H44.9174L44.9852 58.6055C45.0067 58.6032 45.0276 58.5975 45.0473 58.5885L45.1094 58.7918C45.0545 58.8158 44.9979 58.8356 44.94 58.851C44.8806 58.8653 44.8202 58.8748 44.7593 58.8793C44.6703 58.8889 44.5802 58.8813 44.494 58.8567C44.4295 58.837 44.3712 58.801 44.3247 58.7522C44.2805 58.7058 44.2477 58.6497 44.2287 58.5885C44.2087 58.5224 44.1963 58.4542 44.192 58.3853C44.1827 58.3131 44.1836 58.2399 44.1948 58.168ZM42.6847 57.849H43.0629L43.204 58.2244L43.2887 58.4672L43.3875 58.2103L43.5343 57.8518H43.9013V58.9019H43.619V58.2978L43.523 58.5377L43.4101 58.8059H43.1758L43.0657 58.5236L42.9811 58.2922V58.9103H42.6988L42.6847 57.849ZM41.358 58.2809C41.3633 58.2083 41.3795 58.1369 41.406 58.0692C41.4292 58.0066 41.4669 57.9505 41.5161 57.9054C41.5643 57.8575 41.6234 57.8217 41.6883 57.801C41.7648 57.7767 41.8456 57.769 41.9253 57.7784C42.005 57.7812 42.083 57.8014 42.154 57.8377C42.2155 57.8664 42.2689 57.9101 42.3092 57.9647C42.3499 58.0169 42.3779 58.0778 42.3911 58.1425C42.4083 58.2136 42.414 58.287 42.408 58.3599C42.4032 58.4328 42.386 58.5044 42.3572 58.5716C42.3313 58.6335 42.2939 58.69 42.2471 58.7381C42.1975 58.7837 42.1389 58.8184 42.075 58.8398C42 58.8621 41.9214 58.8697 41.8435 58.8623C41.7643 58.859 41.6865 58.8398 41.6149 58.8059C41.554 58.7773 41.5008 58.7347 41.4596 58.6817C41.4182 58.6297 41.3892 58.5688 41.3749 58.5039C41.3576 58.4309 41.3519 58.3556 41.358 58.2809ZM40.3729 57.6203L41.3185 57.7502L41.2931 57.9562L40.9656 57.9111L40.8527 58.7438L40.5705 58.7043L40.6834 57.8716L40.3587 57.8264L40.3729 57.6203Z" fill="#A51C30"/>
<path id="Vector_6" d="M31.2358 53.115C31.2753 52.9654 31.4052 52.9739 31.4645 53.0614C31.4961 53.1092 31.5378 53.1495 31.5865 53.1797C31.6352 53.2099 31.6899 53.2293 31.7467 53.2364C31.8766 53.2533 31.9895 53.2195 31.9217 53.0642C31.854 52.909 32.0516 52.8638 32.1222 52.9513C32.1527 53.0039 32.1994 53.0453 32.2554 53.0692C32.3113 53.0931 32.3735 53.0983 32.4327 53.084C32.6077 53.0642 32.6161 52.8638 32.5682 52.7255C32.5202 52.5872 32.6302 52.5448 32.7149 52.6069C32.7996 52.669 32.952 52.7452 32.9972 52.6436C33.0424 52.542 32.9633 52.4235 32.9436 52.3614C32.9451 52.3568 32.9451 52.3518 32.9436 52.3472C32.7742 52.223 32.2661 52.2541 31.8483 52.271C31.7625 52.2747 31.6773 52.288 31.5943 52.3106C31.582 52.2809 31.5776 52.2486 31.5815 52.2168C31.5853 52.1849 31.5974 52.1546 31.6164 52.1287C31.6354 52.1029 31.6608 52.0824 31.6901 52.0693C31.7193 52.0561 31.7515 52.0508 31.7834 52.0537C31.878 52.0522 31.9711 52.0302 32.0564 51.9893C32.1417 51.9483 32.2171 51.8894 32.2774 51.8166C32.4157 51.6529 32.4665 51.475 32.1984 51.4214C31.9302 51.3678 32.0459 51.0742 32.2266 51.0573C32.3238 51.0612 32.4197 51.0343 32.5008 50.9806C32.5818 50.9269 32.6439 50.8491 32.6782 50.7581C32.8081 50.504 32.5456 50.3177 32.3141 50.2584C32.0826 50.1992 32.1278 50.0157 32.2887 49.9564C32.4496 49.8971 32.6811 49.7588 32.5992 49.5923C32.5173 49.4257 32.2943 49.4399 32.1899 49.4144C32.1741 49.3826 32.1552 49.3523 32.1334 49.3241C31.9838 49.1096 31.8709 49.3439 31.7129 49.3693C31.5548 49.3947 31.5858 49.1435 31.3177 49.2338C31.0495 49.3241 31.1342 49.6826 31.1003 49.8858C31.0665 50.0891 30.7673 50.0185 30.7616 49.9564C30.756 49.8943 30.7616 49.6741 30.4963 49.8548C30.6233 50.4052 30.7249 51.0065 30.8152 51.667C30.8519 51.9238 30.7334 52.5138 30.8152 53.0134V53.0557C30.8633 53.1019 30.9163 53.1426 30.9733 53.1771C31.1455 53.2449 31.1991 53.2618 31.2358 53.115ZM31.0947 52.2851C31.1711 52.085 31.2112 51.8728 31.2132 51.6585C31.1615 51.2975 31.1558 50.9314 31.1963 50.5689C31.2114 50.4054 31.2586 50.2465 31.3351 50.1012C31.4116 49.9559 31.516 49.8271 31.6423 49.7221C31.4442 49.9208 31.3214 50.1823 31.2951 50.4617C31.2594 50.8106 31.2699 51.1627 31.3262 51.5089C31.3533 51.7214 31.3389 51.937 31.2838 52.144C31.2402 52.2945 31.1836 52.4409 31.1145 52.5815C31.0609 52.6332 30.9988 52.6752 30.931 52.7057C30.9959 52.5698 31.0506 52.4292 31.0947 52.2851Z" fill="#A51C30"/>
<path id="Vector_7" d="M28.3284 52.5085C26.4597 52.198 26.5077 51.975 26.8351 51.6956C27.1814 51.3956 27.5525 51.1256 27.9445 50.8883C28.1534 50.7754 26.9368 51.1508 26.5839 51.3851C26.2311 51.6194 25.7936 52.3505 26.6432 52.74C27.4928 53.1295 26.7476 54.7639 27.4561 55.3877C28.1646 56.0115 29.209 54.7328 30.6373 55.1337C30.7361 55.1591 30.4906 53.9368 30.6599 53.2142C30.7672 52.7513 29.5195 52.7033 28.3284 52.5085Z" fill="#A51C30"/>
<path id="Vector_8" d="M30.8379 45.7365C30.9367 45.7291 31.0311 45.6927 31.1094 45.632C31.1877 45.5712 31.2464 45.4888 31.2782 45.395C31.4024 45.1127 31.1089 44.9264 30.8605 44.8728C30.8129 44.8661 30.768 44.8466 30.7306 44.8163L30.6601 44.853L30.7222 44.8954L30.7504 44.9208C30.8203 44.9843 30.8744 45.0634 30.9082 45.1517C30.9421 45.2399 30.9547 45.3349 30.9452 45.4289C30.9334 45.5383 30.8967 45.6435 30.8379 45.7365Z" fill="#A51C30"/>
<path id="Vector_9" d="M31.2784 47.4159C31.3627 47.4003 31.4401 47.3591 31.5002 47.298C31.5603 47.2369 31.6001 47.1588 31.6143 47.0743C31.6792 46.8316 31.4167 46.7187 31.2078 46.7074C30.999 46.6961 31.0046 46.5324 31.1288 46.4533C31.253 46.3743 31.4337 46.2106 31.332 46.0807C31.2304 45.9509 31.0498 46.0045 30.9481 46.0017C30.9282 45.9776 30.9065 45.9549 30.8832 45.9339C30.8042 45.8606 30.7505 45.869 30.6997 45.9085C30.6055 46.0065 30.4982 46.0911 30.3808 46.1598C30.1645 46.279 29.9675 46.4303 29.7965 46.6086L29.407 47.1138C29.7051 47.57 29.9504 48.0587 30.138 48.5704C30.155 48.6099 30.1691 48.6522 30.1832 48.6946C30.2509 48.8837 30.313 49.0813 30.3695 49.2845C30.5332 49.1998 30.8014 49.0897 30.9707 49.0192C31.1401 48.9486 31.1909 48.8188 31.0102 48.6917C30.8296 48.5647 30.9143 48.4095 31.0611 48.3643C31.1418 48.3481 31.2179 48.3144 31.2842 48.2656C31.3505 48.2169 31.4054 48.1542 31.4449 48.082C31.5353 47.9183 31.5494 47.7518 31.3066 47.7574C31.0639 47.7631 31.1232 47.4639 31.2784 47.4159Z" fill="#A51C30"/>
<path id="Vector_10" d="M28.9044 37.0343C28.6645 37.071 28.6363 36.8847 28.7605 36.7661C28.8847 36.6476 29.0427 36.4246 28.9044 36.3032C28.7661 36.1818 28.5629 36.2835 28.4556 36.3032C28.4285 36.2798 28.3992 36.259 28.3681 36.2411C28.1451 36.1028 28.131 36.3625 27.9927 36.4472C27.8544 36.5319 27.7866 36.2891 27.5749 36.4782C27.3632 36.6673 27.5749 36.9694 27.6286 37.1698C27.6822 37.3702 27.3717 37.4238 27.3463 37.3674C27.3209 37.3109 27.2278 37.0851 27.064 37.4013C26.9003 37.7174 27.256 38.0279 27.5044 38.2481C27.7528 38.4682 27.5524 38.5106 27.3774 38.4259C27.2023 38.3412 27.0189 38.3186 27.0245 38.5953C27.0302 38.8719 27.2193 38.9425 27.4338 38.9989C27.6483 39.0554 27.8459 39.0554 27.8911 39.2812C27.9363 39.507 27.7556 39.3122 27.6455 39.4816C27.5354 39.6509 27.6596 39.7639 27.8685 39.8683C27.8637 39.9425 27.8456 40.0151 27.8149 40.0828C27.7274 40.2183 27.5552 40.032 27.4451 40.2945C27.2475 40.0998 27.0443 39.8993 26.8806 39.73C26.7168 39.5606 26.7394 40.5994 26.7676 41.2232C26.7818 41.5281 27.0838 41.6043 27.3717 41.7539C27.3721 41.6401 27.4087 41.5294 27.4761 41.4377C27.561 41.3364 27.6695 41.2576 27.7921 41.2083C27.9148 41.1591 28.0476 41.1409 28.179 41.1555C28.2106 41.1107 28.2466 41.0691 28.2863 41.0313C28.3674 40.9327 28.4808 40.8661 28.6064 40.8434C28.7321 40.8206 28.8616 40.8432 28.9722 40.9071C29.0293 40.9426 29.0832 40.9833 29.1331 41.0284C29.2361 40.9603 29.3568 40.924 29.4803 40.924C29.6037 40.924 29.7245 40.9603 29.8275 41.0284C29.9645 41.1178 30.0712 41.2465 30.1337 41.3976C30.1962 41.5487 30.2114 41.7153 30.1775 41.8752C30.2503 41.8464 30.329 41.8352 30.407 41.8426C30.485 41.8499 30.5601 41.8756 30.6263 41.9176C30.7117 41.9698 30.7895 42.0334 30.8577 42.1067C30.9033 42.1546 30.9431 42.2076 30.9763 42.2648C30.9776 42.245 30.9776 42.2252 30.9763 42.2055C31.0215 42.1462 31.0723 42.0559 30.9311 42.0023C30.9208 41.9543 30.9247 41.9044 30.9424 41.8586C30.96 41.8128 30.9907 41.7732 31.0307 41.7447C31.0706 41.7162 31.118 41.7 31.167 41.6981C31.2161 41.6962 31.2646 41.7087 31.3066 41.7341C31.4211 41.7872 31.5458 41.8147 31.6721 41.8147C31.7983 41.8147 31.9231 41.7872 32.0377 41.7341C32.2973 41.6127 32.461 41.4264 32.1675 41.2119C31.8739 40.9974 32.1675 40.7038 32.4074 40.7857C32.5236 40.8439 32.655 40.8646 32.7835 40.8449C32.9119 40.8252 33.031 40.766 33.1244 40.6756C33.4236 40.4413 33.2091 40.0659 32.9635 39.8655C32.7179 39.6651 32.876 39.4675 33.1018 39.4844C33.3276 39.5013 33.6917 39.4646 33.6861 39.2163C33.6805 38.9679 33.4038 38.8606 33.2881 38.7731H33.3107C33.3076 38.7258 33.3019 38.6787 33.2937 38.632C33.2316 38.2876 32.9635 38.5078 32.7603 38.4457C32.557 38.3836 32.7292 38.1041 32.3566 38.0618C31.984 38.0194 31.8768 38.5021 31.7215 38.7307C31.5663 38.9594 31.2445 38.7025 31.2727 38.6207C31.3009 38.5388 31.4421 38.2565 30.9735 38.3581C30.5049 38.4598 30.5303 39.1005 30.5416 39.5352C30.5529 39.9699 30.3243 39.8175 30.2593 39.5719C30.1944 39.3263 30.0448 39.1231 29.7795 39.3743C29.5141 39.6255 29.6101 39.8768 29.7456 40.1336C29.8811 40.3905 30.0589 40.5881 29.8642 40.8421C29.6694 41.0962 29.7061 40.8196 29.5367 40.7829C29.5771 40.7124 29.5983 40.6326 29.5983 40.5514C29.5983 40.4702 29.5771 40.3904 29.5367 40.3199C29.4238 40.0377 29.102 40.128 28.9016 40.2635C28.7012 40.399 28.5883 40.2465 28.6504 40.0828C28.6493 40.0734 28.6493 40.064 28.6504 40.0546C28.8113 39.936 29.0145 39.8006 29.1528 39.7102C29.3617 39.5747 29.3561 39.428 29.1274 39.3348C28.8988 39.2417 28.9524 39.0271 29.1077 38.9566C29.1956 38.9181 29.2741 38.8611 29.3379 38.7895C29.4017 38.7179 29.4493 38.6333 29.4774 38.5416C29.5395 38.3384 29.5198 38.1493 29.2488 38.2057C28.9778 38.2622 28.9665 37.946 29.1302 37.8557C29.2225 37.8212 29.3014 37.7583 29.3556 37.6762C29.4099 37.594 29.4367 37.4968 29.4323 37.3984C29.4577 37.071 29.1387 37.0004 28.9044 37.0343Z" fill="#A51C30"/>
<path id="Vector_11" d="M32.0939 43.3572C32.2632 43.4306 32.5483 43.4983 32.6104 43.3064C32.6725 43.1144 32.4891 42.962 32.427 42.8632H32.4411C32.4531 42.8253 32.4625 42.7867 32.4693 42.7475C32.5116 42.4652 32.2519 42.5668 32.1108 42.4652C31.9697 42.3636 32.1786 42.183 31.9048 42.0616C31.631 41.9402 31.4249 42.2705 31.2471 42.4031C31.2186 42.4246 31.1839 42.4363 31.1483 42.4363C31.1126 42.4363 31.0779 42.4246 31.0495 42.4031C31.1057 42.6851 31.0521 42.9778 30.8999 43.2217C30.9592 43.2336 31.0163 43.2545 31.0692 43.2838C31.145 43.3354 31.2093 43.4022 31.2579 43.4799C31.3065 43.5577 31.3384 43.6447 31.3515 43.7354C31.3946 43.9006 31.3858 44.0751 31.3261 44.2351C31.3946 44.2748 31.4718 44.2973 31.5509 44.3007C31.63 44.3042 31.7088 44.2884 31.7806 44.2548C32.0628 44.156 32.0064 43.8145 31.8737 43.5943C31.741 43.3741 31.9245 43.281 32.0939 43.3572Z" fill="#A51C30"/>
<path id="Vector_12" d="M29.4942 46.1603C29.5189 46.2329 29.5303 46.3094 29.5281 46.3861C29.7249 46.1731 29.9546 45.993 30.2083 45.8526C30.5499 45.6465 30.708 45.3614 30.5132 45.1808C30.3184 45.0001 30.1519 45.3191 30.1321 45.0001C30.1124 44.6812 30.3692 44.6134 30.6261 44.4779C30.883 44.3424 31.1031 44.1956 31.0241 43.8287C30.9451 43.4617 30.7136 43.5464 30.516 43.7243C30.3184 43.9021 30.0446 43.888 30.2958 43.5351C30.5471 43.1823 30.9281 42.6601 30.595 42.3129C30.262 41.9657 30.2225 42.2818 30.1999 42.3665C30.1773 42.4512 29.768 42.4794 29.7652 42.2028C29.7623 41.9262 29.9458 41.4689 29.6127 41.2967C29.2797 41.1245 29.2655 41.4548 29.0623 41.3899C28.8591 41.325 28.7575 40.9947 28.5147 41.2459C28.4797 41.2791 28.4485 41.316 28.4216 41.356C28.761 41.5014 29.0487 41.7455 29.2476 42.0566C29.4464 42.3677 29.5471 42.7314 29.5365 43.1004C29.5159 43.588 29.4324 44.071 29.2881 44.5372C29.2451 44.8188 29.2547 45.1059 29.3164 45.384C29.3549 45.6471 29.4144 45.9066 29.4942 46.1603Z" fill="#A51C30"/>
<path id="Vector_13" d="M29.3419 43.0153C29.3594 42.6901 29.2809 42.3669 29.1163 42.0859C28.9518 41.8049 28.7083 41.5784 28.4161 41.4346C28.3916 41.4495 28.3661 41.4627 28.3399 41.4741C28.2044 41.491 27.8854 41.4176 27.7386 41.6209C27.5918 41.8241 27.8741 42.0584 28.0717 42.1854C28.2693 42.3124 28.2919 42.5467 27.9757 42.5749C27.6596 42.6032 27.2701 42.7979 27.3914 43.1621C27.4181 43.2893 27.4838 43.4051 27.5795 43.4931C27.6751 43.5812 27.7959 43.6372 27.9249 43.6532C28.1592 43.7125 28.2495 44.1274 27.8826 44.1387C27.5156 44.15 27.5523 44.4012 27.6991 44.6468C27.7637 44.7557 27.8511 44.8492 27.9554 44.9208C28.0598 44.9925 28.1784 45.0406 28.3032 45.0618C28.5262 45.0984 28.6617 45.344 28.402 45.5529C28.1423 45.7618 28.179 45.9368 28.4895 46.0441C28.8 46.1513 29.0964 46.2078 29.1952 46.3433L29.2375 46.3969C29.2121 46.3009 29.1839 46.1993 29.1528 46.0949C29.068 45.8334 29.0057 45.5652 28.9665 45.2932C28.9369 45.0087 28.9627 44.7211 29.0427 44.4464C29.2071 43.9852 29.3078 43.5037 29.3419 43.0153Z" fill="#A51C30"/>
<path id="Vector_14" d="M33.734 56.0392C33.909 55.7739 34.3296 54.6279 34.9506 54.9948C35.0168 55.0418 35.0686 55.1064 35.1002 55.1811C35.2187 55.7711 33.8159 55.7231 34.4735 56.4259C34.5695 56.5276 35.2187 56.8268 35.4248 56.9594C35.5347 56.2843 35.4884 55.5928 35.2893 54.9384C35.2738 54.864 35.2398 54.7948 35.1905 54.7371C35.1412 54.6794 35.078 54.635 35.007 54.6081C34.1348 53.8488 31.5069 54.6815 31.0552 54.2299C30.9028 54.0803 30.8802 55.263 31.4843 56.186C31.9416 56.0082 33.6465 56.1719 33.734 56.0392Z" fill="#A51C30"/>
<path id="Vector_15" d="M26.8974 48.5086C27.3292 48.4578 27.1796 48.6978 26.9566 48.7909C26.7337 48.8841 26.5304 49.0449 26.8042 49.2877C27.078 49.5304 27.3208 49.4119 27.5635 49.251C27.8063 49.0901 27.9898 48.901 28.2607 49.0703C28.5317 49.2397 28.1704 49.2312 28.2353 49.4881C28.3002 49.745 28.6249 49.7478 28.9692 49.5474C29.2147 49.3919 29.4834 49.2766 29.7652 49.2058C29.698 49.1696 29.6371 49.123 29.5846 49.0675C29.4033 48.876 29.2059 48.7004 28.9946 48.5425C28.7568 48.3394 28.4986 48.1616 28.224 48.0118C27.7752 47.8227 27.4196 47.8255 26.8466 47.5404C26.6577 47.464 26.4868 47.3493 26.3444 47.2036C26.2021 47.0578 26.0915 46.8842 26.0195 46.6936C26.1522 46.9759 26.4881 47.1678 26.9115 47.3344C27.2707 47.4767 27.6407 47.59 28.018 47.6731C28.2974 47.7351 28.5621 47.8511 28.797 48.0147C29.0179 48.1797 29.2238 48.3639 29.4124 48.5651C29.4886 48.6413 29.6749 48.9405 29.7483 49.0111C29.7483 48.9885 29.7285 48.9659 29.7201 48.9461C29.6495 48.7937 29.7427 48.5115 29.7963 48.1868C29.8499 47.8622 29.7144 47.7437 29.4068 47.8707C29.0991 47.9977 28.9523 47.7634 29.0229 47.5489C29.0651 47.4298 29.0807 47.3028 29.0685 47.1769C29.0563 47.0511 29.0166 46.9295 28.9523 46.8206C28.8083 46.5723 28.6079 46.4255 28.4188 46.7388C28.2297 47.0521 27.9107 46.7755 27.9728 46.5384C28.0205 46.4174 28.0296 46.2846 27.9988 46.1582C27.9679 46.0318 27.8987 45.9181 27.8006 45.8327C27.5381 45.5504 27.1825 45.8017 27.0046 46.067C26.8268 46.3323 26.6151 46.1912 26.6123 45.9625C26.6094 45.7339 26.5389 45.3782 26.2933 45.398C26.0477 45.4178 25.9659 45.7113 25.8868 45.8327C25.8868 45.8327 25.8868 45.8186 25.8868 45.8129C25.8381 45.8182 25.7899 45.8276 25.7429 45.8412C25.4098 45.9343 25.6497 46.1799 25.6102 46.3888C25.5707 46.5977 25.2687 46.4509 25.263 46.8263C25.2574 47.2017 25.7429 47.2638 25.9856 47.3908C26.2284 47.5179 26.0026 47.8679 25.9179 47.8481C25.8332 47.8284 25.5368 47.7126 25.6836 48.1699C25.8304 48.6272 26.4655 48.5594 26.8974 48.5086Z" fill="#A51C30"/>
<path id="Vector_16" d="M24.3034 37.7651C24.3257 37.6694 24.354 37.5751 24.388 37.4828C24.4576 37.3102 24.5666 37.1563 24.7063 37.0332C24.846 36.9102 25.0125 36.8216 25.1925 36.7743C27.2164 36.1957 27.764 35.8005 27.8487 35.236C27.8797 35.0243 27.8487 34.6912 27.8797 34.3609C27.9079 34.2141 27.939 34.0561 27.9785 33.8895C28.0943 33.3673 27.4507 32.6701 26.9652 32.227C26.8083 32.5441 26.6753 32.8724 26.5672 33.2093C26.7206 33.2786 26.8679 33.3608 27.0075 33.4548C27.2898 33.6553 27.3349 33.9319 27.4027 34.2819C27.0498 34.6093 26.3978 34.9001 25.4268 35.236C25.0971 35.3353 24.7981 35.517 24.558 35.7639C24.318 36.0109 24.1449 36.3149 24.055 36.6473C23.9364 37.0736 24.055 38.4397 24.0013 38.9902C24.0013 39.0099 24.0013 39.0184 24.0013 39.0184C24.0013 39.3825 24.8848 40.4834 24.9526 40.235C25.053 39.7706 25.1135 39.2984 25.1332 38.8236C25.1502 38.5583 24.1594 38.6458 24.2864 37.7821L24.3034 37.7651Z" fill="#A51C30"/>
<path id="Vector_17" d="M25.4015 32.8708L25.5229 32.8877C25.5795 32.7498 25.6436 32.6151 25.7148 32.4841C25.7317 32.4657 25.7468 32.4459 25.76 32.4248C26.0225 31.9901 26.4685 32.072 27.0895 32.0212H27.1262C27.2366 32.0228 27.3468 32.0095 27.4536 31.9816C27.5444 31.9583 27.6325 31.9251 27.7162 31.8828C27.8512 31.8325 27.9701 31.7467 28.0605 31.6344C28.0728 31.6182 28.0841 31.6012 28.0944 31.5836C28.3308 31.2546 28.4926 30.8779 28.5686 30.48C28.6956 30.0001 29.1331 30.4376 28.9638 29.8138C28.8678 29.4694 29.1416 29.19 28.9045 29.269C28.6674 29.3481 27.9533 29.3565 27.8573 30.415C27.8334 30.696 27.7445 30.9675 27.5976 31.2082C27.1205 31.6486 26.4826 31.2082 25.7628 31.9562C25.6919 32.0364 25.6277 32.1223 25.5709 32.2131C25.2209 32.7184 25.2322 32.8567 25.4015 32.8708Z" fill="#A51C30"/>
<path id="Vector_18" d="M55.7625 51.6612C55.8528 51.0007 55.9544 50.3995 56.0815 49.8491C55.8189 49.6628 55.8246 49.8858 55.8161 49.9507C55.8077 50.0156 55.5113 50.0833 55.4774 49.8801C55.4435 49.6769 55.5254 49.3156 55.2601 49.2281C54.9947 49.1406 55.023 49.3861 54.8649 49.3636C54.7068 49.341 54.5826 49.1039 54.4443 49.3184C54.4226 49.3466 54.4036 49.3768 54.3878 49.4087H54.402C54.2975 49.4341 54.0745 49.4257 53.9955 49.5866C53.9164 49.7474 54.1451 49.8942 54.3032 49.9507C54.4612 50.0071 54.5092 50.1934 54.2777 50.2527C54.0463 50.312 53.7838 50.4983 53.9136 50.7523C53.9479 50.8433 54.0101 50.9212 54.0911 50.9749C54.1722 51.0286 54.2681 51.0554 54.3653 51.0515C54.5459 51.0685 54.6475 51.3649 54.3935 51.4157C54.1394 51.4665 54.1761 51.6471 54.3144 51.8108C54.3748 51.8837 54.4502 51.9426 54.5354 51.9835C54.6207 52.0245 54.7138 52.0464 54.8084 52.0479C54.8404 52.045 54.8726 52.0504 54.9018 52.0635C54.9311 52.0767 54.9564 52.0972 54.9755 52.123C54.9945 52.1489 55.0065 52.1792 55.0104 52.211C55.0143 52.2429 55.0098 52.2752 54.9975 52.3048C54.9146 52.2822 54.8294 52.269 54.7435 52.2653C54.3257 52.2484 53.8176 52.2173 53.6483 52.3415C53.6468 52.3461 53.6468 52.351 53.6483 52.3556C53.6285 52.4177 53.5354 52.5391 53.5947 52.6379C53.6539 52.7367 53.8064 52.6633 53.8769 52.6012C53.9475 52.5391 54.0717 52.5786 54.0237 52.7198C53.9757 52.8609 53.9842 53.0585 54.1592 53.0782C54.2183 53.0926 54.2805 53.0874 54.3365 53.0635C54.3924 53.0395 54.4392 52.9982 54.4697 52.9456C54.5403 52.8581 54.7322 52.9004 54.6701 53.0585C54.608 53.2166 54.7153 53.2476 54.8451 53.2307C54.902 53.2235 54.9567 53.2042 55.0054 53.174C55.0541 53.1438 55.0957 53.1034 55.1274 53.0557C55.1867 52.9682 55.3193 52.9597 55.356 53.1093C55.3927 53.2589 55.4464 53.2391 55.5819 53.1657C55.6389 53.1312 55.6919 53.0905 55.7399 53.0444C55.7385 53.0303 55.7385 53.0161 55.7399 53.002C55.8444 52.4996 55.7258 51.9181 55.7625 51.6612ZM55.4802 52.5843C55.4111 52.4436 55.3545 52.2972 55.3109 52.1467C55.2558 51.9398 55.2414 51.7241 55.2685 51.5116C55.3248 51.1654 55.3353 50.8133 55.2996 50.4644C55.2733 50.1851 55.1505 49.9236 54.9524 49.7249C55.0787 49.8298 55.1831 49.9586 55.2596 50.1039C55.3361 50.2492 55.3833 50.4082 55.3984 50.5717C55.4389 50.9341 55.4332 51.3002 55.3814 51.6612C55.3818 51.8759 55.423 52.0886 55.5028 52.2879C55.5445 52.4333 55.5983 52.5749 55.6637 52.7113C55.6011 52.6779 55.5439 52.6351 55.4943 52.5843H55.4802Z" fill="#A51C30"/>
<path id="Vector_19" d="M60.0246 51.3851C59.6689 51.1508 58.4551 50.7754 58.664 50.8883C59.0559 51.1256 59.427 51.3956 59.7733 51.6956C60.1008 51.9779 60.1487 52.198 58.2801 52.5085C57.0889 52.7033 55.8413 52.7513 55.9514 53.2142C56.1179 53.9368 55.8723 55.1591 55.9711 55.1337C57.3994 54.7328 58.4438 56.0115 59.1523 55.3877C59.8608 54.7639 59.1156 53.1295 59.9653 52.74C60.8149 52.3505 60.3774 51.6194 60.0246 51.3851Z" fill="#A51C30"/>
<path id="Vector_20" d="M55.8866 44.8954L55.9487 44.853L55.8782 44.8163C55.8416 44.8461 55.7978 44.8656 55.7512 44.8728C55.4999 44.9264 55.2064 45.1155 55.3306 45.395C55.3626 45.4893 55.4217 45.572 55.5006 45.6327C55.5794 45.6935 55.6744 45.7296 55.7737 45.7365C55.7133 45.6439 55.6747 45.5387 55.6608 45.4289C55.6523 45.3347 55.6657 45.2398 55.7 45.1516C55.7343 45.0635 55.7885 44.9845 55.8584 44.9208L55.8866 44.8954Z" fill="#A51C30"/>
<path id="Vector_21" d="M55.5876 48.6832C55.4069 48.8102 55.4239 48.9288 55.6271 49.0106C55.8303 49.0925 56.0646 49.1913 56.2283 49.276C56.2848 49.0727 56.3469 48.8751 56.4146 48.686C56.4146 48.6437 56.4429 48.6013 56.4598 48.5618C56.6463 48.0496 56.8916 47.5608 57.1909 47.1053L56.8014 46.6C56.6304 46.4218 56.4334 46.2704 56.2171 46.1512C56.0997 46.0825 55.9924 45.998 55.8981 45.9C55.8473 45.8605 55.7937 45.852 55.7146 45.9254C55.6914 45.9464 55.6697 45.969 55.6497 45.9931C55.5537 45.9931 55.3674 45.948 55.2658 46.0722C55.1642 46.1964 55.342 46.3545 55.469 46.4448C55.5961 46.5351 55.6017 46.6904 55.39 46.6988C55.1783 46.7073 54.9186 46.823 54.9863 47.0658C55 47.1501 55.0393 47.2281 55.0989 47.2892C55.1585 47.3503 55.2355 47.3916 55.3194 47.4073C55.4747 47.4553 55.5198 47.7291 55.2799 47.7291C55.04 47.7291 55.0513 47.89 55.1416 48.0537C55.1811 48.1259 55.236 48.1886 55.3023 48.2373C55.3686 48.2861 55.4448 48.3198 55.5255 48.336C55.6836 48.3896 55.7654 48.5562 55.5876 48.6832Z" fill="#A51C30"/>
<path id="Vector_22" d="M53.5184 39.4417C53.7442 39.4247 53.9023 39.6195 53.6567 39.8227C53.4111 40.026 53.1966 40.3873 53.4958 40.6328C53.5896 40.7235 53.7093 40.7828 53.8382 40.8025C53.9672 40.8222 54.099 40.8014 54.2156 40.7429C54.4443 40.6611 54.7491 40.9546 54.4527 41.1692C54.1564 41.3837 54.3229 41.57 54.5826 41.6914C54.6971 41.7444 54.8218 41.7719 54.9481 41.7719C55.0743 41.7719 55.1991 41.7444 55.3137 41.6914C55.3556 41.666 55.4042 41.6535 55.4532 41.6554C55.5022 41.6572 55.5496 41.6735 55.5895 41.702C55.6295 41.7305 55.6602 41.7701 55.6779 41.8158C55.6955 41.8616 55.6994 41.9116 55.6891 41.9595C55.5479 42.0131 55.5988 42.1035 55.6439 42.1627C55.6426 42.1825 55.6426 42.2023 55.6439 42.222C55.6771 42.1649 55.7169 42.1118 55.7625 42.064C55.83 41.99 55.908 41.9263 55.9939 41.8748C56.0601 41.8329 56.1353 41.8072 56.2133 41.7998C56.2913 41.7925 56.3699 41.8037 56.4427 41.8325C56.4099 41.6722 56.4259 41.5058 56.4888 41.3548C56.5518 41.2038 56.6586 41.0752 56.7956 40.9857C56.8986 40.9176 57.0193 40.8813 57.1428 40.8813C57.2662 40.8813 57.387 40.9176 57.4899 40.9857C57.5393 40.9399 57.5933 40.8992 57.6509 40.8643C57.7614 40.8005 57.891 40.7779 58.0166 40.8006C58.1422 40.8234 58.2556 40.8899 58.3368 40.9885C58.3766 41.027 58.4134 41.0686 58.4469 41.1127C58.5777 41.0989 58.71 41.1174 58.832 41.1666C58.9541 41.2159 59.0622 41.2943 59.1469 41.395C59.2127 41.4875 59.2491 41.5976 59.2514 41.7111C59.5336 41.5615 59.8413 41.4853 59.8554 41.1804C59.8836 40.5566 59.9232 39.5009 59.7425 39.6872C59.5618 39.8735 59.3643 40.0683 59.178 40.2518C59.0679 39.9893 58.8957 40.1756 58.8082 40.0401C58.7775 39.9724 58.7593 39.8997 58.7546 39.8255C58.9634 39.7296 59.0707 39.58 58.9775 39.4388C58.8844 39.2977 58.6953 39.4727 58.7319 39.2384C58.7686 39.0041 58.9747 38.9957 59.1892 38.9561C59.4038 38.9166 59.5929 38.8263 59.5985 38.5525C59.6042 38.2787 59.4179 38.2985 59.2457 38.3831C59.0735 38.4678 58.8703 38.417 59.1187 38.2053C59.3671 37.9936 59.7397 37.6803 59.5618 37.3585C59.384 37.0367 59.2796 37.2682 59.2626 37.3246C59.2457 37.3811 58.9239 37.3246 58.9803 37.127C59.0368 36.9294 59.2457 36.6246 59.034 36.4355C58.8223 36.2463 58.7517 36.4891 58.6162 36.4044C58.4808 36.3197 58.4638 36.06 58.2408 36.1984C58.2097 36.2162 58.1804 36.237 58.1533 36.2605C58.0461 36.2435 57.8428 36.1475 57.7045 36.2605C57.5662 36.3734 57.7242 36.6077 57.8484 36.7234C57.9726 36.8391 57.9444 37.0282 57.7045 36.9915C57.4645 36.9548 57.1399 37.0282 57.171 37.3133C57.1665 37.4117 57.1934 37.5089 57.2476 37.5911C57.3019 37.6733 57.3808 37.7361 57.473 37.7706C57.6339 37.8609 57.6254 38.1771 57.3545 38.1206C57.0835 38.0642 57.0722 38.2533 57.1258 38.4565C57.1538 38.5479 57.2011 38.6322 57.2644 38.7038C57.3277 38.7753 57.4055 38.8325 57.4928 38.8715C57.6508 38.942 57.7045 39.1537 57.4759 39.2497C57.2472 39.3457 57.2416 39.4896 57.4505 39.6251C57.5888 39.7155 57.792 39.8509 57.9557 39.9695V39.9977C58.0178 40.1614 57.9077 40.3195 57.7045 40.1784C57.5012 40.0372 57.1823 39.9639 57.0694 40.2348C57.029 40.3053 57.0078 40.3851 57.0078 40.4663C57.0078 40.5475 57.029 40.6273 57.0694 40.6978C56.9 40.7345 56.9113 40.98 56.742 40.757C56.5726 40.534 56.7222 40.3054 56.8577 40.0485C56.9932 39.7917 57.092 39.5404 56.8266 39.2892C56.5613 39.038 56.4173 39.2412 56.3468 39.4868C56.2762 39.7324 56.0476 39.8848 56.0645 39.4501C56.0814 39.0154 56.1012 38.3747 55.6326 38.2731C55.164 38.1714 55.3052 38.4537 55.3334 38.5356C55.3617 38.6174 55.0511 38.8715 54.8818 38.6457C54.7124 38.4198 54.6221 37.9371 54.2495 37.9767C53.8769 38.0162 54.0519 38.3041 53.8459 38.3606C53.6398 38.417 53.3745 38.2025 53.3124 38.5469C53.3028 38.5933 53.2971 38.6406 53.2954 38.688H53.318C53.2051 38.7755 52.9285 38.8912 52.9228 39.1312C52.9172 39.3711 53.2926 39.4614 53.5184 39.4417Z" fill="#A51C30"/>
<path id="Vector_23" d="M54.814 44.2688C54.8852 44.3024 54.9636 44.3182 55.0422 44.3147C55.1209 44.3113 55.1976 44.2888 55.2656 44.2491C55.2079 44.0886 55.2001 43.9145 55.243 43.7495C55.2578 43.6576 55.2919 43.5698 55.3429 43.492C55.394 43.4141 55.461 43.348 55.5394 43.2978C55.5916 43.269 55.6477 43.2481 55.7059 43.2357C55.556 42.991 55.5036 42.6988 55.5592 42.4171C55.5305 42.4382 55.4959 42.4496 55.4604 42.4496C55.4248 42.4496 55.3902 42.4382 55.3616 42.4171C55.1838 42.2845 54.9748 41.9458 54.7039 42.0756C54.4329 42.2054 54.639 42.3776 54.4978 42.4792C54.3567 42.5809 54.097 42.4792 54.1393 42.7615C54.1454 42.8006 54.1539 42.8392 54.1648 42.8772H54.1817C54.1196 42.976 53.9417 43.1369 53.9982 43.3204C54.0546 43.5039 54.3482 43.4446 54.5148 43.3712C54.6813 43.2978 54.8535 43.4023 54.718 43.6224C54.5825 43.8426 54.5232 44.1842 54.814 44.2688Z" fill="#A51C30"/>
<path id="Vector_24" d="M57.3293 44.5372C57.185 44.071 57.1015 43.588 57.0809 43.1004C57.0715 42.7298 57.1742 42.3649 57.3757 42.0536C57.5772 41.7423 57.868 41.4992 58.21 41.356C58.1821 41.3167 58.151 41.2799 58.1169 41.2459C57.8741 40.9947 57.7725 41.325 57.5692 41.3899C57.366 41.4548 57.3519 41.1217 57.0047 41.2967C56.6575 41.4717 56.8523 41.929 56.8523 42.2028C56.8523 42.4766 56.4402 42.4484 56.4176 42.3665C56.395 42.2847 56.3555 41.9685 56.0224 42.3129C55.6893 42.6573 56.0704 43.1795 56.3216 43.5351C56.5728 43.8908 56.299 43.888 56.1014 43.7243C55.9038 43.5605 55.6752 43.473 55.5962 43.8287C55.5171 44.1844 55.7345 44.3424 55.9913 44.4779C56.2482 44.6134 56.5023 44.6812 56.4853 45.0001C56.4684 45.3191 56.299 45.0001 56.1043 45.1808C55.9095 45.3614 56.0675 45.6465 56.4063 45.8526C56.6609 45.993 56.8915 46.1731 57.0894 46.3861C57.0871 46.3094 57.0986 46.2329 57.1233 46.1603C57.2026 45.9094 57.2621 45.6527 57.3011 45.3925C57.3638 45.1116 57.3734 44.8215 57.3293 44.5372Z" fill="#A51C30"/>
<path id="Vector_25" d="M58.6841 43.6393C58.813 43.6228 58.9335 43.5667 59.0291 43.4787C59.1247 43.3907 59.1905 43.2752 59.2176 43.1481C59.3361 42.784 58.9353 42.5836 58.6333 42.561C58.3313 42.5384 58.351 42.2787 58.5373 42.1715C58.7236 42.0642 59.0143 41.8243 58.8704 41.6069C58.7264 41.3896 58.4046 41.4771 58.2691 41.4601C58.2426 41.4493 58.2171 41.4361 58.193 41.4206C57.9008 41.5645 57.6572 41.7909 57.4927 42.072C57.3281 42.353 57.2496 42.6761 57.2671 43.0013C57.303 43.4831 57.4036 43.9578 57.5663 44.4127C57.6463 44.6874 57.6721 44.975 57.6425 45.2595C57.6033 45.5315 57.541 45.7997 57.4562 46.0612C57.4251 46.1656 57.3969 46.2672 57.3715 46.3632L57.4139 46.3096C57.5127 46.1741 57.8062 46.1204 58.1196 46.0103C58.4329 45.9003 58.4667 45.7281 58.2071 45.5192C57.9474 45.3103 58.0828 45.0647 58.3058 45.028C58.4305 45.0065 58.549 44.9582 58.6532 44.8866C58.7575 44.815 58.8451 44.7217 58.9099 44.6131C59.0567 44.3675 59.0905 44.1191 58.7264 44.105C58.3623 44.0909 58.4583 43.6986 58.6841 43.6393Z" fill="#A51C30"/>
<path id="Vector_26" d="M55.5651 54.2272C55.1078 54.6788 52.4799 53.8461 51.6133 54.6054C51.542 54.6319 51.4786 54.6761 51.4292 54.7339C51.3798 54.7917 51.346 54.8611 51.331 54.9357C51.132 55.5902 51.0856 56.2816 51.1956 56.9568C51.4016 56.8241 52.0424 56.5249 52.1468 56.4233C52.8045 55.7204 51.4016 55.7684 51.5202 55.1785C51.5518 55.1037 51.6036 55.0392 51.6697 54.9922C52.2907 54.6365 52.7113 55.7712 52.8864 56.0365C52.9739 56.172 54.6816 56.0083 55.1445 56.1833C55.7401 55.2603 55.7175 54.0776 55.5651 54.2272Z" fill="#A51C30"/>
<path id="Vector_27" d="M60.9986 46.3945C60.9591 46.1856 61.199 45.94 60.866 45.8469C60.8189 45.8333 60.7707 45.8239 60.722 45.8187V45.8384C60.643 45.7171 60.5526 45.432 60.3155 45.4037C60.0784 45.3755 59.9965 45.734 59.9965 45.9683C59.9965 46.2026 59.7849 46.3352 59.6042 46.0727C59.4236 45.8102 59.0707 45.5618 58.8082 45.8384C58.7101 45.9238 58.6409 46.0376 58.61 46.1639C58.5792 46.2903 58.5883 46.4231 58.636 46.5441C58.6981 46.7812 58.3763 47.0578 58.19 46.7445C58.0037 46.4312 57.8005 46.578 57.6565 46.8264C57.5932 46.9355 57.5538 47.057 57.5411 47.1826C57.5285 47.3082 57.5428 47.435 57.5831 47.5546C57.6565 47.7692 57.5069 48.0063 57.2021 47.8764C56.8972 47.7466 56.7561 47.8764 56.8126 48.1926C56.869 48.5087 56.9593 48.7995 56.8887 48.9519C56.8776 48.9727 56.8682 48.9945 56.8605 49.0168C56.9339 48.9462 57.1202 48.647 57.1964 48.5708C57.3847 48.3703 57.5896 48.1862 57.8089 48.0204C58.0452 47.8573 58.3107 47.7414 58.5908 47.6788C58.9679 47.5949 59.3379 47.4816 59.6974 47.3401C60.1208 47.1736 60.4567 46.9844 60.5865 46.6994C60.5156 46.8901 60.4057 47.0639 60.2638 47.2097C60.1218 47.3556 59.951 47.4701 59.7623 47.5462C59.1977 47.8284 58.8336 47.8284 58.3848 48.0176C58.1102 48.1673 57.852 48.3451 57.6142 48.5482C57.4029 48.7061 57.2056 48.8818 57.0243 49.0733C56.9718 49.1287 56.9108 49.1754 56.8436 49.2116C57.1254 49.2824 57.3941 49.3977 57.6396 49.5531C57.984 49.7535 58.3086 49.7535 58.3735 49.4938C58.4384 49.2341 58.0912 49.2454 58.3481 49.0761C58.605 48.9067 58.7997 49.0958 59.0453 49.2567C59.2909 49.4176 59.5308 49.539 59.8046 49.2934C60.0784 49.0478 59.8893 48.8926 59.6522 48.7966C59.4151 48.7007 59.2824 48.4635 59.7114 48.5144C60.1405 48.5652 60.7813 48.647 60.9281 48.1897C61.0748 47.7325 60.7756 47.8482 60.691 47.868C60.6063 47.8877 60.3833 47.5433 60.6232 47.4107C60.8631 47.278 61.3543 47.2131 61.3458 46.8461C61.3373 46.4792 61.0381 46.6062 60.9986 46.3945Z" fill="#A51C30"/>
<path id="Vector_28" d="M62.5453 36.6392C62.4552 36.3073 62.2823 36.0038 62.0429 35.757C61.8034 35.5101 61.5053 35.3281 61.1763 35.2279C60.2138 34.8919 59.5617 34.6012 59.2004 34.2738C59.2682 33.9238 59.3133 33.6471 59.5956 33.4467C59.7349 33.3521 59.8822 33.2699 60.0359 33.2011C59.9278 32.8643 59.7948 32.536 59.6379 32.2188C59.1524 32.662 58.5088 33.3479 58.6246 33.8814C58.6613 34.048 58.6951 34.206 58.7234 34.3528C58.7516 34.6831 58.7234 35.0161 58.7544 35.2279C58.8391 35.7924 59.3867 36.1876 61.4106 36.7662C61.5904 36.8132 61.7566 36.9018 61.8959 37.0249C62.0351 37.148 62.1435 37.3021 62.2123 37.4747C62.2487 37.5667 62.2789 37.661 62.3026 37.757C62.4296 38.6207 61.436 38.5332 61.4558 38.7986C61.4741 39.2735 61.5345 39.7458 61.6364 40.2099C61.7042 40.4583 62.5877 39.3631 62.5877 38.9933C62.5877 38.9933 62.5877 38.9933 62.5877 38.9651C62.5594 38.4316 62.6639 37.0654 62.5453 36.6392Z" fill="#A51C30"/>
<path id="Vector_29" d="M58.0406 30.4771C58.1166 30.8751 58.2785 31.2517 58.5148 31.5808C58.5251 31.5983 58.5364 31.6153 58.5487 31.6316C58.6391 31.7438 58.7581 31.8296 58.8931 31.88C58.9768 31.9223 59.0648 31.9554 59.1556 31.9788C59.2624 32.0066 59.3726 32.0199 59.483 32.0183H59.5197C60.1407 32.0691 60.5867 31.9872 60.8492 32.4219C60.8624 32.443 60.8776 32.4628 60.8944 32.4812C60.9656 32.6122 61.0297 32.7469 61.0863 32.8848L61.2077 32.8679C61.3771 32.8679 61.3884 32.7155 61.0383 32.2074C60.9833 32.1162 60.92 32.0302 60.8492 31.9505C60.1266 31.2025 59.4915 31.6429 59.0144 31.2025C58.8675 30.9618 58.7787 30.6903 58.7548 30.4093C58.6588 29.3508 57.9446 29.3395 57.7075 29.2633C57.4704 29.1871 57.7442 29.4637 57.6483 29.8081C57.4676 30.4347 57.9136 29.9972 58.0406 30.4771Z" fill="#A51C30"/>
<path id="Vector_30" d="M42.5552 60.1859V60.6178C42.8036 60.6404 43.0492 60.6517 43.2863 60.6517C43.5234 60.6517 43.7915 60.6517 44.054 60.6206V60.1859C43.8028 60.2 43.5516 60.2085 43.2947 60.2085C43.0379 60.2085 42.8008 60.2 42.5552 60.1859Z" fill="#CCCCCC"/>
<path id="Vector_31" d="M49.7557 48.5876C49.8697 48.5428 49.9661 48.4621 50.0302 48.3577C50.0944 48.2533 50.1229 48.1309 50.1113 48.0089C50.1113 47.6815 49.9194 47.419 49.6766 47.419H49.5919C48.954 47.1564 46.3797 46.9617 43.3057 46.9617C40.2318 46.9617 37.6603 47.1564 37.0168 47.419H36.9321C36.6921 47.419 36.4974 47.6815 36.4974 48.0089C36.4858 48.1309 36.5143 48.2533 36.5785 48.3577C36.6426 48.4621 36.739 48.5428 36.853 48.5876C36.9208 50.7413 38.733 52.5591 41.2339 53.214C41.1109 53.3353 41.0266 53.4904 40.9919 53.6597C40.9572 53.829 40.9735 54.0047 41.0389 54.1647C41.1042 54.3247 41.2155 54.4616 41.3588 54.5582C41.5021 54.6548 41.6708 54.7066 41.8436 54.7072H41.9847C42.267 54.8794 42.5493 55.1052 42.5493 55.3931V56.4516C42.6735 56.4516 42.8005 56.4714 42.9303 56.4742H43.1618V54.9104C43.1618 54.873 43.1767 54.8371 43.2031 54.8106C43.2296 54.7842 43.2655 54.7693 43.303 54.7693C43.3404 54.7693 43.3763 54.7842 43.4027 54.8106C43.4292 54.8371 43.4441 54.873 43.4441 54.9104V56.4827H43.7264C43.8364 56.4827 43.9465 56.4827 44.0566 56.4601V55.4016C44.0566 55.1193 44.3389 54.8878 44.6211 54.7157H44.7594C44.9328 54.7165 45.1025 54.6654 45.2467 54.5691C45.3909 54.4727 45.5029 54.3355 45.5685 54.1749C45.634 54.0144 45.6501 53.8379 45.6146 53.6682C45.579 53.4985 45.4936 53.3432 45.3692 53.2224C47.8757 52.5563 49.6879 50.7413 49.7557 48.5876ZM36.9321 47.9524C36.9321 47.8734 37.1127 47.8113 37.3357 47.8113H49.273C49.4959 47.8113 49.6766 47.8734 49.6766 47.9524C49.6766 48.0315 49.4959 48.0908 49.273 48.0908C49.273 48.0908 46.7833 48.215 43.3057 48.215C39.4104 48.215 37.3357 48.0908 37.3357 48.0908C37.1127 48.0908 36.9321 48.0287 36.9321 47.9524ZM45.6204 49.1719C45.6204 49.9453 44.209 52.4688 44.209 52.2768C44.209 51.9946 44.6776 49.9425 44.6776 49.1719C44.6776 48.4013 44.8893 48.7851 45.1518 48.7851C45.4143 48.7851 45.6204 48.3984 45.6204 49.1719ZM44.082 49.1719C44.082 49.9453 43.6784 52.3446 43.3622 52.3446C43.0461 52.3446 42.6424 49.9453 42.6424 49.1719C42.6424 48.3984 42.967 48.7851 43.3622 48.7851C43.7574 48.7851 44.082 48.3984 44.082 49.1719ZM42.4025 52.2768C42.4025 52.466 40.9911 49.9425 40.9911 49.1719C40.9911 48.4013 41.2057 48.7851 41.4653 48.7851C41.725 48.7851 41.9396 48.3984 41.9396 49.1719C41.9396 49.9453 42.4025 52.003 42.4025 52.2797V52.2768ZM37.5277 49.1295C37.5277 48.421 37.5728 48.7739 37.7422 48.7739C37.9116 48.7739 38.047 48.421 38.047 49.1295C38.047 50.4759 39.7407 51.447 39.8733 51.7179C39.9552 51.8845 37.5277 50.2925 37.5277 49.1323V49.1295ZM38.5777 49.1493C38.5777 48.4097 38.6285 48.7767 38.8092 48.7767C38.9898 48.7767 39.1366 48.4097 39.1366 49.1493C39.1366 50.5606 40.723 51.7377 40.802 51.9974C40.8556 52.1752 38.5777 50.3602 38.5777 49.1521V49.1493ZM39.7943 49.169C39.7943 48.3956 39.9411 48.7823 40.1217 48.7823C40.3024 48.7823 40.4492 48.3956 40.4492 49.169C40.4492 50.6312 41.5783 51.9212 41.5783 52.2006C41.5952 52.3897 39.7943 50.4308 39.7943 49.1719V49.169ZM44.9486 54.0156H41.6601C41.4512 54.0156 41.2875 53.9338 41.2875 53.835C41.2875 53.7362 41.4512 53.6515 41.6601 53.6515H44.9486C45.1575 53.6515 45.3212 53.7334 45.3212 53.835C45.3212 53.9366 45.1575 54.0184 44.9486 54.0184V54.0156ZM45.0135 52.2006C45.0135 51.9183 46.1567 50.6312 46.1567 49.169C46.1567 48.3956 46.3063 48.7823 46.4869 48.7823C46.6676 48.7823 46.8144 48.3956 46.8144 49.169C46.8144 50.4308 45.0135 52.3897 45.0135 52.2034V52.2006ZM45.8039 51.9974C45.8829 51.7377 47.4692 50.5522 47.4692 49.1493C47.4692 48.4097 47.616 48.7767 47.7967 48.7767C47.9773 48.7767 48.0282 48.4097 48.0282 49.1493C48.0282 50.3602 45.7559 52.1752 45.8039 52.0002V51.9974ZM46.7353 51.7151C46.868 51.4328 48.5616 50.4731 48.5616 49.1267C48.5616 48.4182 48.6971 48.771 48.8665 48.771C49.0359 48.771 49.081 48.4182 49.081 49.1267C49.081 50.2925 46.6563 51.8845 46.7353 51.7208V51.7151Z" fill="#CCCCCC"/>
<path id="Vector_32" d="M48.5788 22.7767C48.5918 22.8696 48.5855 22.9642 48.5603 23.0546C48.535 23.1449 48.4913 23.2291 48.432 23.3017C48.4261 23.309 48.4195 23.3156 48.4122 23.3215L48.336 23.3893C48.2967 23.4162 48.2551 23.4398 48.2118 23.4598H48.3135C48.4993 23.4277 48.669 23.3344 48.7958 23.1948C48.9227 23.0552 48.9993 22.8773 49.0135 22.6892C49.0072 22.4687 48.974 22.2497 48.9147 22.0372C48.8991 21.87 48.8991 21.7019 48.9147 21.5347C49.1207 21.6166 49.3974 21.721 49.6034 21.7831C49.7053 21.8173 49.8121 21.8345 49.9196 21.8339C50.2978 22.1557 49.8913 22.5227 49.8377 22.5961C49.5215 23.0392 49.5215 23.3808 49.8038 23.7252C49.9599 23.8712 50.1017 24.0319 50.2272 24.205C50.2512 24.0988 50.2481 23.9883 50.218 23.8837C50.1879 23.7791 50.1318 23.6838 50.055 23.6066C50.0047 23.5509 49.9629 23.4882 49.9309 23.4203C49.9127 23.3437 49.9152 23.2636 49.938 23.1883C49.9608 23.1129 50.0031 23.0449 50.0607 22.9912C50.0776 23.1487 50.152 23.2945 50.2696 23.4005C50.5772 23.6292 50.9244 23.4429 51.0148 23.5304C51.0468 23.5598 51.0753 23.593 51.0995 23.6292C51.1199 23.5849 51.1305 23.5368 51.1305 23.488C51.1305 23.4393 51.1199 23.3911 51.0995 23.3469C51.043 23.2594 50.8877 23.2538 50.7297 23.2594C50.5716 23.2651 50.4474 23.1634 50.4248 23.0731C50.4023 22.9828 50.47 22.8247 50.6619 22.7598C50.7822 22.713 50.8829 22.6264 50.9471 22.5144C51.0113 22.4025 51.0352 22.2719 51.0148 22.1444C51.0148 21.7436 50.5829 21.6928 50.1143 21.6702H49.9506C49.6717 21.6286 49.3988 21.5538 49.1377 21.4472C49.0219 21.4049 48.9119 21.3654 48.83 21.3428C48.7196 21.2948 48.599 21.2745 48.4789 21.2839C48.3589 21.2932 48.2429 21.3319 48.1412 21.3964C47.8872 21.546 48.1695 21.961 48.3699 22.263C48.4918 22.408 48.5649 22.5878 48.5788 22.7767Z" fill="#CCCCCC"/>
<path id="Vector_33" d="M35.6449 23.5389C35.7381 23.4514 36.0853 23.6377 36.3901 23.409C36.5094 23.3039 36.585 23.1578 36.6018 22.9997C36.6594 23.0534 36.7018 23.1214 36.7246 23.1967C36.7474 23.2721 36.7498 23.3522 36.7317 23.4288C36.6996 23.4966 36.6578 23.5594 36.6075 23.6151C36.5307 23.6923 36.4747 23.7876 36.4446 23.8922C36.4145 23.9968 36.4113 24.1073 36.4353 24.2135C36.5599 24.0397 36.7018 23.879 36.8587 23.7336C37.141 23.3836 37.141 23.0421 36.8248 22.6045C36.7712 22.5312 36.3647 22.1642 36.743 21.8424C36.8504 21.8429 36.9572 21.8258 37.0591 21.7916C37.2652 21.7295 37.539 21.6251 37.7478 21.5432C37.7591 21.7108 37.7535 21.8792 37.7309 22.0456C37.6724 22.2583 37.6402 22.4772 37.6349 22.6977C37.6491 22.8857 37.7257 23.0637 37.8525 23.2033C37.9794 23.3429 38.1491 23.4361 38.335 23.4683H38.4366C38.3933 23.4483 38.3517 23.4247 38.3124 23.3977C38.2841 23.3764 38.2577 23.3528 38.2333 23.3272L38.2164 23.3102C38.1571 23.2376 38.1134 23.1534 38.0881 23.0631C38.0629 22.9727 38.0566 22.8781 38.0696 22.7852C38.0916 22.5949 38.1725 22.4162 38.3011 22.2743C38.5015 21.9638 38.7866 21.5573 38.5325 21.4077C38.4309 21.3432 38.3149 21.3045 38.1949 21.2952C38.0748 21.2858 37.9542 21.306 37.8438 21.3541C37.7591 21.3767 37.6519 21.4162 37.5361 21.4585C37.2742 21.5654 37.0003 21.6403 36.7204 21.6815H36.5595C36.0909 21.7041 35.6703 21.7549 35.659 22.1557C35.6386 22.2832 35.6625 22.4138 35.7267 22.5257C35.7909 22.6377 35.8916 22.7243 36.0119 22.7711C36.0825 22.7859 36.1455 22.8258 36.1891 22.8834C36.2326 22.941 36.2539 23.0124 36.249 23.0844C36.232 23.1747 36.1417 23.2763 35.9441 23.2707C35.7465 23.2651 35.6308 23.2707 35.5744 23.3582C35.5539 23.4024 35.5433 23.4506 35.5433 23.4993C35.5433 23.5481 35.5539 23.5962 35.5744 23.6405C35.5929 23.6034 35.6167 23.5692 35.6449 23.5389Z" fill="#CCCCCC"/>
<path id="Vector_34" d="M43.7971 29.9296H42.8261V31.3212H41.4317V32.2922H42.8261V33.6866H43.7971V32.2922H45.1915V31.3212H43.7971V29.9296Z" fill="#CCCCCC"/>
<path id="Vector_35" d="M30.1125 55.3648C29.5343 55.4966 28.9801 55.7175 28.4697 56.0197C28.8434 57.5722 29.6592 58.9831 30.8182 60.0815L30.9368 60.1916C30.9786 60.0759 31.0144 59.9582 31.044 59.8388C31.1513 59.3646 31.2444 58.8903 31.3263 58.4274C31.3828 58.0943 31.4477 57.7669 31.5267 57.4762C31.0805 56.8406 30.7419 56.1358 30.5247 55.3902C30.392 55.3454 30.2497 55.3366 30.1125 55.3648Z" fill="#CCCCCC"/>
<path id="Vector_36" d="M26.2537 36.7885C26.0166 36.8929 25.7569 36.9917 25.4775 37.0707C25.5142 37.9599 25.4577 39.1482 25.1585 41.4008C24.974 42.7972 25.1528 44.2177 25.6779 45.5247H25.6948C25.742 45.4205 25.8115 45.3278 25.8983 45.2532C25.9851 45.1786 26.0871 45.1239 26.1973 45.0929H26.2566C26.3299 45.0844 26.4041 45.0913 26.4746 45.1132C26.5451 45.1351 26.6102 45.1714 26.6659 45.2199C26.7942 45.3493 26.8773 45.5165 26.903 45.6969C26.9855 45.6137 27.0808 45.5441 27.1852 45.4909C26.6877 44.7002 26.3777 43.8061 26.2791 42.877C26.0731 41.4375 26.5162 39.2724 26.2537 36.7885Z" fill="#CCCCCC"/>
<path id="Vector_37" d="M29.9966 52.4464C29.9712 52.246 29.9486 52.0484 29.9204 51.848C29.8246 51.0991 29.6851 50.3564 29.5026 49.6237C29.3742 49.6831 29.2489 49.7491 29.1272 49.8213C29.0016 49.8951 28.8655 49.9494 28.7235 49.9822C28.6441 50.01 28.5599 50.021 28.476 50.0148C28.3921 50.0086 28.3105 49.9851 28.2361 49.9459C28.1616 49.9067 28.0961 49.8526 28.0435 49.787C27.9909 49.7214 27.9524 49.6456 27.9304 49.5645C27.9154 49.5084 27.9097 49.4502 27.9134 49.3923L27.7384 49.5165L27.6904 49.5475C27.8331 50.1878 27.9274 50.8379 27.9727 51.4924C27.9896 51.7182 28.0038 51.9553 28.015 52.1952C28.1882 52.2272 28.3603 52.2498 28.5316 52.263C29.0231 52.2957 29.5122 52.357 29.9966 52.4464Z" fill="#CCCCCC"/>
<path id="Vector_38" d="M26.3979 32.2104C26.1157 32.4447 25.4608 33.1899 25.3818 34.9795C25.5944 34.9155 25.7892 34.8506 25.9661 34.7847C25.8616 33.0064 26.7 31.9592 26.3979 32.2104Z" fill="#CCCCCC"/>
<path id="Vector_39" d="M56.0844 55.3874C55.8693 56.1333 55.5317 56.8383 55.0851 57.4734C55.1674 57.7868 55.2333 58.1043 55.2827 58.4246C55.3646 58.8904 55.4577 59.3646 55.565 59.836C55.5947 59.9554 55.6305 60.0731 55.6723 60.1888L55.7936 60.0787C56.951 58.9794 57.7656 57.5687 58.1393 56.0169C57.6282 55.7143 57.0729 55.4934 56.4937 55.362C56.3574 55.3346 56.2162 55.3433 56.0844 55.3874Z" fill="#CCCCCC"/>
<path id="Vector_40" d="M61.4504 41.4147C61.1512 39.1565 61.0976 37.9738 61.1343 37.0847C60.852 36.9925 60.5923 36.8984 60.3552 36.8024C60.0927 39.2864 60.5359 41.4514 60.3355 42.8882C60.2383 43.8175 59.9282 44.7119 59.4294 45.502C59.5338 45.5552 59.6291 45.6248 59.7116 45.708C59.7373 45.5277 59.8205 45.3604 59.9488 45.231C60.0044 45.1825 60.0695 45.1462 60.14 45.1243C60.2105 45.1025 60.2847 45.0955 60.358 45.104H60.4173C60.5275 45.135 60.6296 45.1897 60.7164 45.2643C60.8031 45.3389 60.8726 45.4316 60.9198 45.5359H60.9367C61.4594 44.2291 61.6363 42.8097 61.4504 41.4147Z" fill="#CCCCCC"/>
<path id="Vector_41" d="M58.6954 49.3923C58.6992 49.4502 58.6935 49.5084 58.6785 49.5645C58.6565 49.6456 58.618 49.7214 58.5654 49.787C58.5128 49.8526 58.4472 49.9067 58.3728 49.9459C58.2984 49.9851 58.2167 50.0086 58.1329 50.0148C58.049 50.021 57.9647 50.01 57.8853 49.9822C57.7434 49.9494 57.6073 49.8951 57.4817 49.8213C57.36 49.7491 57.2347 49.6831 57.1062 49.6237C56.9224 50.3561 56.7829 51.0989 56.6885 51.848C56.6603 52.0484 56.6349 52.246 56.6123 52.4464C57.1003 52.3547 57.5932 52.2915 58.0885 52.2573C58.2598 52.2423 58.432 52.2197 58.6051 52.1896C58.6051 51.9496 58.6305 51.7125 58.6475 51.4867C58.6881 50.8326 58.7777 50.1825 58.9156 49.5419L58.8733 49.5165L58.6954 49.3923Z" fill="#CCCCCC"/>
<path id="Vector_42" d="M60.6429 34.7844C60.8208 34.8493 61.0155 34.9142 61.23 34.9791C61.1482 33.1895 60.4905 32.4387 60.211 32.21C59.9316 31.9814 60.7474 33.0061 60.6429 34.7844Z" fill="#CCCCCC"/>
<path id="Vector_43" d="M54.1987 32.4389C54.0686 32.3723 53.9299 32.3239 53.7866 32.295H53.685C53.7047 32.2667 53.7217 32.2385 53.7386 32.2103H53.7951C55.0681 32.2103 55.4068 31.674 55.4887 31.53C55.3439 31.3595 55.1443 31.2447 54.9241 31.2054C54.8649 31.2054 54.5911 31.2054 54.2213 31.2393L54.2552 31.1292C54.8733 30.988 55.5931 30.6917 55.7343 30.0707C55.3057 29.9527 54.8531 29.9527 54.4245 30.0707V29.9803C54.9891 29.7715 55.6439 29.2577 55.6976 28.9077L55.6637 28.8908C55.5451 28.84 55.3814 28.7694 54.8169 28.8484C54.6548 28.8908 54.4963 28.9455 54.3427 29.0122C54.3427 28.9642 54.3257 28.9134 54.3144 28.8625C54.879 28.6085 55.5451 28.0665 55.5903 27.6996L55.5536 27.6827C55.4266 27.6318 55.2544 27.5613 54.6504 27.6629C54.4477 27.7214 54.2503 27.7969 54.0604 27.8887C54.0604 27.8718 54.0604 27.8548 54.0604 27.8407C55.006 27.0984 54.9495 26.5169 54.9552 26.3249C54.8508 26.3249 54.7096 26.26 54.0322 26.6241C53.939 26.6749 53.812 26.7483 53.6681 26.8358L53.6229 26.7342L53.7048 26.6552C54.3878 25.9862 54.2862 25.5684 54.0971 25.2015C53.7631 25.3913 53.4588 25.6291 53.1938 25.9072L53.1487 25.8281L53.1797 25.7914C53.8036 25.0688 53.5721 24.5636 53.3519 24.2135C53.1569 24.5282 52.9329 24.824 52.6829 25.0971L52.6321 25.0265C52.7446 24.7387 52.7628 24.4227 52.6842 24.1239C52.6055 23.8252 52.4341 23.559 52.1946 23.3639C52.1065 23.6175 52.0028 23.8655 51.8841 24.1063C51.5847 24.6281 51.2529 25.1306 50.8905 25.6108C50.2949 26.4322 48.8271 27.8831 49.0727 28.5041C49.3549 29.1928 49.8348 29.9154 49.3211 30.5054C48.9654 30.9259 48.223 30.5816 47.7912 30.1074C47.9898 29.8803 48.0912 29.5843 48.0734 29.2831C47.5343 29.4779 46.6931 29.2831 46.4617 29.0009C46.5568 28.998 46.6488 28.9666 46.7259 28.9107C46.8029 28.8548 46.8613 28.7771 46.8936 28.6875C46.4941 28.5906 46.1247 28.3967 45.8181 28.123C45.1463 27.471 45.341 26.9939 45.6374 26.1471C45.6632 25.9538 45.7464 25.7726 45.8762 25.6271C46.0061 25.4816 46.1767 25.3785 46.3658 25.331C46.555 25.2836 46.7541 25.2941 46.9372 25.361C47.1204 25.428 47.2793 25.5485 47.3932 25.7068C47.6456 25.8472 47.9401 25.8923 48.223 25.8338C48.223 25.8338 47.6754 25.4866 47.2944 25.2382C47.5967 25.2447 47.893 25.3241 48.1581 25.4697C48.3299 25.5839 48.5254 25.6575 48.7298 25.6849C48.9343 25.7123 49.1422 25.6927 49.338 25.6277C49.4029 25.6023 49.6485 25.4104 49.2674 25.5035C48.6577 25.6531 48.017 25.0321 47.7827 24.9587C48.3106 25.0293 48.8327 25.1592 48.9315 25.385C49.0204 25.3338 49.0914 25.2565 49.1348 25.1636C49.1783 25.0706 49.192 24.9666 49.1743 24.8656C49.0699 24.5833 48.5731 24.3377 48.2315 24.1656C48.2315 24.1656 48.4206 23.7817 47.746 23.5587L47.7742 23.5446V23.3978C47.7742 23.3554 47.8391 23.2143 47.8984 23.0703V23.0393C47.9552 22.9506 47.9873 22.8484 47.9913 22.7432C47.9953 22.6379 47.971 22.5336 47.921 22.4409C47.8602 22.3761 47.7853 22.3261 47.7021 22.2948C47.6189 22.2635 47.5296 22.2517 47.4411 22.2602H47.3847V22.2376C47.386 22.1995 47.3729 22.1622 47.348 22.1332V22.1022V22.0485H47.4327H47.4666V21.7663H47.4327L47.3311 21.7804V21.6929V21.659H47.0686V21.6929V21.7804L46.981 21.7663H46.9443V22.0485H46.981H47.0657V22.1022V22.1389H47.0827C47.0603 22.1669 47.0483 22.2018 47.0488 22.2376C47.0488 22.2376 47.0488 22.2546 47.0488 22.2602H46.9923C46.8952 22.2503 46.7971 22.2612 46.7046 22.2924C46.6121 22.3236 46.5273 22.3742 46.456 22.4409C46.2951 22.6328 46.4024 22.8671 46.4814 23.0393L46.4984 23.0703C46.5464 23.1776 46.5943 23.2933 46.6254 23.3526C45.7786 23.22 45.0221 23.0421 44.6269 22.9433C44.4895 22.775 44.3825 22.5839 44.3108 22.3788V22.1953C44.3108 22.1784 44.3362 22.136 44.3588 22.0768C44.4124 21.9469 44.4999 21.738 44.5902 21.5404L44.6184 21.484C44.7624 21.1707 44.9628 20.7416 44.6636 20.386C44.5337 20.264 44.3787 20.1718 44.2096 20.1158C44.0405 20.0597 43.8612 20.0411 43.6841 20.0613C43.6496 20.0641 43.6155 20.0707 43.5825 20.0811C43.5839 20.067 43.5839 20.0528 43.5825 20.0388C43.5833 19.9728 43.5625 19.9083 43.5232 19.8553H43.5514L43.5345 19.7875L43.512 19.6916L43.67 19.7141H43.7349V19.1948H43.67L43.5063 19.2202L43.5317 19.0649V19H43.0519V19.0649L43.0744 19.223L42.8853 19.1948H42.8204V19.7141H42.8853L43.0405 19.6887L43.0236 19.7904V19.8468C42.9793 19.9009 42.9553 19.9688 42.9559 20.0388C42.9545 20.0528 42.9545 20.067 42.9559 20.0811C42.9219 20.07 42.8869 20.0625 42.8514 20.0585C42.6895 20.042 42.526 20.0632 42.3737 20.1205C42.2214 20.1778 42.0844 20.2696 41.9736 20.3888C41.7082 20.7416 41.8861 21.1678 42.0131 21.4812L42.0385 21.5376C42.1486 21.8199 42.2417 22.0626 42.2671 22.1389V22.4042L42.3405 22.4437C42.2663 22.6263 42.1665 22.7973 42.0441 22.9518C41.6489 23.0506 40.8925 23.2341 40.0457 23.3611C40.0739 23.2905 40.1219 23.1748 40.1727 23.0788L40.1868 23.0478C40.2658 22.8756 40.3759 22.6413 40.2122 22.4494C40.141 22.3825 40.0563 22.3318 39.9637 22.3006C39.8712 22.2694 39.773 22.2586 39.6759 22.2687H39.6223V22.2461C39.6227 22.2103 39.6107 22.1754 39.5884 22.1473H39.6053V22.1106V22.057H39.69H39.7239V21.7747H39.69L39.6025 21.7888V21.7013V21.6675H39.34V21.7013V21.7888L39.2383 21.7747H39.2017V22.057H39.2383H39.323V22.1106V22.1417C39.2993 22.1713 39.2863 22.2081 39.2863 22.2461C39.2847 22.2536 39.2847 22.2613 39.2863 22.2687H39.2299C39.1413 22.2588 39.0517 22.27 38.9683 22.3014C38.8849 22.3328 38.8101 22.3835 38.75 22.4494C38.7 22.542 38.6758 22.6464 38.6798 22.7516C38.6837 22.8569 38.7158 22.9591 38.7726 23.0478V23.0788C38.8347 23.2228 38.8827 23.3611 38.8996 23.4063V23.553L38.9279 23.5671C38.2532 23.7901 38.4424 24.174 38.4424 24.174C38.098 24.3462 37.5955 24.6031 37.4996 24.8741C37.4811 24.9748 37.4943 25.0788 37.5373 25.1718C37.5802 25.2647 37.6508 25.3422 37.7395 25.3934C37.8411 25.1676 38.3605 25.0378 38.8912 24.9672C38.6597 25.0406 38.0161 25.6616 37.4092 25.512C37.0254 25.4188 37.2737 25.6108 37.3387 25.6362C37.5344 25.7012 37.7424 25.7208 37.9469 25.6934C38.1513 25.666 38.3468 25.5924 38.5186 25.4781C38.7835 25.3323 39.0799 25.2529 39.3823 25.2467C39.0012 25.4951 38.4536 25.8423 38.4536 25.8423C38.7366 25.9007 39.0311 25.8557 39.2835 25.7152C39.615 25.4633 40.0292 25.3454 40.4437 25.385C40.7134 25.578 40.9204 25.8459 41.0392 26.1556C41.3215 27.0024 41.5276 27.4879 40.8586 28.1315C40.5516 28.4046 40.1823 28.5984 39.7831 28.696C39.8152 28.7851 39.8732 28.8626 39.9497 28.9184C40.0261 28.9742 40.1176 29.0059 40.2122 29.0093C39.9835 29.2916 39.1396 29.4948 38.6004 29.2916C38.5842 29.5925 38.6854 29.888 38.8827 30.1158C38.4537 30.59 37.7113 30.9344 37.3528 30.5138C36.839 29.9098 37.3302 29.2013 37.6012 28.5125C37.8496 27.8915 36.3818 26.4407 35.7862 25.6193C35.4239 25.1384 35.0911 24.636 34.7898 24.1147C34.6702 23.874 34.5655 23.626 34.4764 23.3724C34.2374 23.5679 34.0665 23.8341 33.9884 24.1329C33.9103 24.4317 33.929 24.7475 34.0417 25.035L33.9938 25.1055C33.7429 24.8332 33.5189 24.5373 33.3248 24.222C33.1046 24.572 32.8703 25.0688 33.497 25.7999C33.5058 25.8134 33.5162 25.8257 33.528 25.8366C33.5139 25.862 33.497 25.8874 33.4829 25.9156C33.2179 25.6375 32.9136 25.3998 32.5796 25.21C32.3905 25.5769 32.2973 25.9947 32.9691 26.6637L33.0538 26.7427L33.0058 26.8443C32.8647 26.7568 32.7235 26.6834 32.6445 26.6326C31.9671 26.2685 31.8259 26.3193 31.7215 26.3334C31.7215 26.5253 31.6707 27.1068 32.6163 27.8492C32.6147 27.8652 32.6147 27.8812 32.6163 27.8972C32.4253 27.8057 32.227 27.7302 32.0235 27.6714C31.4223 27.5697 31.2501 27.6403 31.1231 27.6911L31.0864 27.7081C31.1315 28.075 31.7864 28.617 32.3594 28.871L32.334 29.0206C32.1793 28.9543 32.0198 28.8995 31.857 28.8569C31.2924 28.7779 31.1344 28.8569 31.0102 28.8992L30.9735 28.9162C31.0299 29.2662 31.6933 29.7799 32.2493 29.9888V30.0707C31.8198 29.9527 31.3663 29.9527 30.9368 30.0707C31.0779 30.6917 31.8005 30.988 32.4187 31.1292L32.4526 31.2393C32.0828 31.2139 31.809 31.1998 31.7469 31.2054C31.5267 31.2447 31.3271 31.3595 31.1823 31.53C31.2473 31.674 31.5888 32.2159 32.876 32.2103H32.9296L32.9832 32.295H32.8844C32.7403 32.3241 32.6007 32.3725 32.4695 32.4389C32.2808 32.6013 32.1337 32.8065 32.0404 33.0373C32.1349 33.1405 32.2524 33.2199 32.3834 33.2689C32.5144 33.318 32.6551 33.3354 32.7941 33.3196C33.0649 33.2563 33.3273 33.1616 33.576 33.0373L33.6522 33.1164L33.5929 33.1305C33.4589 33.1901 33.3343 33.269 33.2232 33.3648C33.0758 33.5666 32.979 33.8009 32.9409 34.0479C33.0564 34.1271 33.1891 34.1777 33.328 34.1953C33.4669 34.213 33.6081 34.1973 33.7397 34.1495C33.9589 34.0438 34.1646 33.9121 34.3522 33.7571L34.4539 33.8277C34.348 33.9178 34.2533 34.0201 34.1716 34.1325C34.0781 34.3643 34.0404 34.6147 34.0615 34.8636C34.1929 34.9131 34.3342 34.9305 34.4736 34.9143C34.6131 34.8981 34.7466 34.8488 34.8631 34.7705C35.0355 34.6318 35.1892 34.4715 35.3204 34.2934L35.5265 34.3809C35.3712 34.5672 35.2442 34.7225 35.2075 34.7818C35.1268 34.9057 35.0761 35.0468 35.0594 35.1938C35.0427 35.3408 35.0606 35.4897 35.1115 35.6286C35.5406 35.733 35.9443 35.3633 36.06 35.2447C36.205 35.0741 36.3371 34.8929 36.4552 34.7027L36.5963 34.7423C36.4855 34.9348 36.4199 35.1501 36.4044 35.3717C36.4241 35.8657 36.664 36.0012 36.7205 36.0266C36.9968 35.9646 37.2437 35.8103 37.4205 35.5891C37.5434 35.4126 37.6315 35.2143 37.6802 35.0048L37.8524 35.0415C37.8138 35.2623 37.8044 35.4872 37.8242 35.7104C37.8496 35.8516 38.05 36.0125 38.1488 36.0774C38.283 36.0425 38.4052 35.9715 38.5017 35.8719C38.5983 35.7723 38.6656 35.6481 38.6964 35.5129C38.755 35.2711 38.7919 35.0245 38.8065 34.7761C39.0464 34.189 39.5658 33.2321 40.2715 33.7035C40.6979 34.1144 40.9725 34.6577 41.0505 35.2447C40.9743 36.4077 40.486 36.848 38.3661 37.2855C37.8298 37.3984 37.1608 37.4266 36.6415 37.6158C36.7516 37.7682 36.856 37.7117 37.0197 37.7541C36.3631 37.9812 35.774 38.3694 35.3063 38.8832C35.4362 39.0102 35.82 38.9933 36.187 38.7505C35.8002 39.2331 35.4582 39.7499 35.1652 40.2945C35.3483 40.3217 35.5352 40.3074 35.712 40.2527C35.8889 40.198 36.0512 40.1042 36.187 39.9784C36.2181 40.1393 36.187 40.9748 35.8285 41.3446C36.0886 41.4079 36.3612 41.3981 36.6161 41.3163L36.2519 42.245C36.3486 42.2407 36.4451 42.2581 36.5342 42.2958C36.7431 42.0954 37.0112 42.039 37.1354 42.2111C37.0945 42.2027 37.0522 42.2027 37.0112 42.2111C36.6669 42.2902 36.5003 42.6487 36.3056 42.8378C36.2597 42.8778 36.2249 42.9289 36.2046 42.9863C36.1843 43.0436 36.1792 43.1053 36.1898 43.1652C36.1995 43.2487 36.2374 43.3263 36.2971 43.3854C36.3017 43.3866 36.3066 43.3866 36.3112 43.3854C36.2727 43.4521 36.2486 43.5261 36.2406 43.6027C36.2604 43.7523 36.0854 43.6027 36.0318 43.3939C36.0033 43.3549 35.9788 43.3133 35.9584 43.2697C35.9584 43.2555 35.9584 43.2443 35.9443 43.233C35.9362 43.2062 35.9305 43.1788 35.9273 43.1511C35.9201 43.1148 35.9201 43.0774 35.9273 43.041C35.9234 42.9892 35.9307 42.9372 35.9487 42.8885C35.9668 42.8398 35.9951 42.7955 36.0318 42.7587C36.1212 42.6708 36.2154 42.5879 36.314 42.5104C36.2983 42.4887 36.2782 42.4706 36.2551 42.4572C36.232 42.4438 36.2063 42.4353 36.1798 42.4324C36.1532 42.4295 36.1263 42.4322 36.1008 42.4402C36.0753 42.4483 36.0518 42.4616 36.0318 42.4793C35.964 42.5527 35.8963 42.6458 35.8539 42.6995C35.805 42.7646 35.7502 42.825 35.6902 42.8801C35.6163 42.9503 35.5728 43.0466 35.5692 43.1485C35.5655 43.2503 35.6018 43.3496 35.6705 43.4249C35.6987 43.4715 35.7328 43.5142 35.7721 43.5519C35.7565 43.6044 35.7565 43.6603 35.7721 43.7128C35.8088 43.8907 35.5519 43.6423 35.4898 43.566C35.4723 43.5505 35.4563 43.5335 35.4418 43.5152C35.409 43.4767 35.385 43.4315 35.3713 43.3828C35.3577 43.334 35.3548 43.2829 35.3628 43.233C35.3628 43.233 35.3628 43.216 35.3628 43.2076C35.3657 43.1307 35.3863 43.0556 35.4231 42.988C35.4598 42.9205 35.5116 42.8623 35.5745 42.818C35.6251 42.7798 35.6732 42.7383 35.7184 42.6938C35.6764 42.6803 35.6318 42.6768 35.5881 42.6837C35.5445 42.6906 35.5031 42.7076 35.4672 42.7333C35.3004 42.8445 35.1691 43.0013 35.089 43.185C35.0725 43.2451 35.0708 43.3084 35.0841 43.3693C35.0974 43.4303 35.1252 43.4871 35.1652 43.535C35.2239 43.5856 35.295 43.6197 35.3713 43.6338C35.3639 43.6512 35.3601 43.6699 35.3601 43.6888C35.3601 43.7077 35.3639 43.7265 35.3713 43.7439C35.4362 43.8511 35.1934 43.7721 35.0579 43.6507C35.0337 43.6302 35.0136 43.6053 34.9987 43.5773C34.8357 43.6946 34.6801 43.8219 34.5329 43.9584C32.9437 45.2512 32.557 47.7832 34.0051 50.5353C35.2696 52.9177 36.6499 56.3332 35.6987 58.2046C35.8059 58.5942 36.4354 59.0514 37.3923 59.4861C37.5849 59.1146 37.7291 58.72 37.8214 58.3119C38.6315 54.8117 36.2322 51.8196 35.0212 49.0873C33.9599 46.6964 35.2301 44.7262 36.7148 44.2887C36.7018 44.2358 36.7018 44.1806 36.7148 44.1278C36.7487 43.9895 36.8278 43.8455 36.8362 43.7721C36.8447 43.6987 36.9379 43.7721 37.031 43.9019C36.983 43.9019 36.904 44.1842 36.904 44.1842L36.8729 44.3084C36.8641 44.3321 36.8641 44.3582 36.8729 44.3818C36.8963 44.4024 36.9265 44.4135 36.9576 44.4129V44.5483C36.7315 44.5509 36.5073 44.591 36.2943 44.6669C36.3648 44.7375 36.3479 44.8504 36.5765 44.8871C36.7367 44.8972 36.8953 44.8513 37.0254 44.7572C37.1183 44.7194 37.208 44.6741 37.2935 44.6217C37.4431 44.5201 37.3246 44.2915 37.2935 44.252C37.2772 44.2338 37.263 44.214 37.2512 44.1927C37.2972 44.1899 37.3434 44.1899 37.3895 44.1927C37.4346 44.1927 37.954 44.1927 38.1121 44.2153H38.1432C38.6936 44.4411 38.6738 44.9943 39.6505 45.5335C40.294 45.8891 40.8642 46.1855 41.2284 46.098C41.2667 46.1411 41.3025 46.1863 41.3356 46.2335C41.553 46.5553 42.1288 46.5948 42.1288 46.5948C42.1288 46.5948 42.0752 46.5214 41.9623 46.3916C42.0674 46.3763 42.1657 46.3301 42.2445 46.2589C41.9644 46.2481 41.6948 46.1493 41.4739 45.9766L41.4514 45.9541C41.7901 45.7254 41.7986 45.477 41.5784 44.9915C41.1917 44.1447 40.8868 43.5124 39.9186 43.0805C39.703 42.9894 39.4761 42.9277 39.244 42.8971C39.2077 42.8897 39.1709 42.885 39.1339 42.8829C38.9109 42.8463 37.9879 42.77 37.5447 42.77C37.3103 42.7722 37.0764 42.791 36.8447 42.8265C36.8735 42.7545 36.9075 42.6847 36.9463 42.6176C37.0534 42.5907 37.1634 42.5774 37.2738 42.5781C37.3838 42.5781 37.556 42.564 37.556 42.564C37.5152 42.4728 37.464 42.3867 37.4036 42.3071C37.6044 41.7238 37.8795 41.1688 38.2222 40.6558C38.4028 40.9099 38.7867 41.099 39.5658 41.0397C39.4491 40.849 39.3713 40.6371 39.3369 40.4162C39.3025 40.1953 39.3122 39.9697 39.3654 39.7526C39.529 39.821 39.7059 39.8522 39.8831 39.8439C40.0603 39.8356 40.2335 39.788 40.39 39.7046C40.39 39.7046 39.896 39.4392 40.1219 38.9933C40.39 38.4626 41.1776 38.2227 41.6151 38.1464C43.0998 37.898 42.5466 40.2296 40.7457 39.7497C40.7231 39.9868 41.3751 40.3961 41.8042 40.4978C41.5022 40.828 40.7457 41.0623 40.4098 40.8929C40.7457 41.6777 41.8607 41.7567 42.4619 41.4801C42.1145 41.8831 41.6253 42.1368 41.0957 42.1886C41.3949 42.5132 41.9058 42.8519 42.4054 42.7192C42.2655 43.0549 42.1834 43.4118 42.1627 43.7749C42.4536 43.6609 42.7257 43.5039 42.97 43.3092C43.0399 43.5978 43.1634 43.8707 43.3341 44.1137C43.5261 43.8395 43.6578 43.5278 43.7208 43.1991C43.9854 43.4458 44.2962 43.6377 44.6354 43.7636C44.6139 43.4061 44.5348 43.0543 44.4011 42.7221C44.8781 42.8096 45.358 42.4878 45.6459 42.1773C45.1155 42.1257 44.6253 41.872 44.2769 41.4688C44.881 41.751 45.9959 41.6664 46.329 40.8816C45.9959 41.0595 45.2366 40.8167 44.9374 40.4865C45.3665 40.3848 46.0157 39.9756 45.9931 39.7385C44.195 40.2183 43.639 37.8868 45.1265 38.1352C45.5612 38.2085 46.3488 38.4485 46.6198 38.982C46.8456 39.428 46.3375 39.6933 46.3375 39.6933C46.4941 39.7765 46.6672 39.824 46.8444 39.8323C47.0216 39.8406 47.1984 39.8095 47.3621 39.7413C47.4157 39.9582 47.4259 40.1837 47.392 40.4046C47.3581 40.6255 47.2808 40.8375 47.1645 41.0284C47.9295 41.0877 48.3247 40.8986 48.5053 40.6445C48.8488 41.1575 49.1248 41.7125 49.3267 42.2958C49.2652 42.3746 49.214 42.4609 49.1743 42.5527C49.1743 42.5527 49.3324 42.5668 49.4566 42.5668C49.5669 42.5665 49.6769 42.5798 49.784 42.6063C49.8217 42.674 49.8556 42.7438 49.8856 42.8152C49.6539 42.7797 49.42 42.7609 49.1856 42.7587C48.7424 42.7587 47.8194 42.835 47.5964 42.8717C47.5594 42.8735 47.5226 42.8782 47.4863 42.8858C47.2542 42.9161 47.0272 42.9778 46.8117 43.0693C45.8435 43.5011 45.5386 44.1221 45.1519 44.9802C44.9318 45.4657 44.9402 45.7141 45.279 45.9428L45.2592 45.9653C45.0383 46.138 44.7687 46.2368 44.4886 46.2476C44.5671 46.3194 44.6655 46.3657 44.7709 46.3803C44.658 46.5101 44.6043 46.5835 44.6043 46.5835C44.6043 46.5835 45.1689 46.544 45.3975 46.2222C45.4306 46.175 45.4664 46.1298 45.5048 46.0867C45.8689 46.1855 46.4391 45.8891 47.0827 45.5222C48.0593 44.983 48.0396 44.4298 48.5872 44.204H48.621C48.7904 44.187 49.2957 44.187 49.3408 44.1814C49.3878 44.1786 49.435 44.1786 49.482 44.1814C49.4703 44.2035 49.4551 44.2236 49.4368 44.2407C49.4171 44.2802 49.2985 44.5229 49.4368 44.6104C49.5224 44.6628 49.612 44.7082 49.705 44.7459C49.8339 44.84 49.9917 44.8859 50.1509 44.8758C50.3768 44.8391 50.3598 44.7262 50.4332 44.6556C50.22 44.5802 49.996 44.5401 49.7699 44.5371V44.4016C49.8001 44.402 49.8294 44.3909 49.8517 44.3705C49.8599 44.3467 49.8599 44.3209 49.8517 44.2971L49.8207 44.1729C49.8207 44.1729 49.7388 43.8907 49.6937 43.8907C49.7868 43.758 49.88 43.6761 49.8856 43.7608C49.8913 43.8455 49.9731 43.9782 50.0098 44.1165C50.0228 44.1693 50.0228 44.2245 50.0098 44.2774C51.4889 44.7121 52.7619 46.6823 51.7034 49.076C50.4925 51.7999 48.096 54.8004 48.9033 58.3006C48.9965 58.7088 49.1417 59.1035 49.3352 59.4748C50.2865 59.0514 50.9159 58.5829 51.0288 58.1933C50.0748 56.3219 51.4551 52.9064 52.7225 50.524C54.1818 47.7719 53.781 45.2399 52.1918 43.9471C52.0456 43.8106 51.891 43.6833 51.7289 43.566C51.713 43.5934 51.693 43.6182 51.6696 43.6394C51.5341 43.7608 51.2913 43.8398 51.3562 43.7326C51.3636 43.7152 51.3674 43.6965 51.3674 43.6775C51.3674 43.6586 51.3636 43.6399 51.3562 43.6225C51.4314 43.6078 51.5015 43.5738 51.5595 43.5237C51.6004 43.4763 51.629 43.4196 51.6428 43.3586C51.6566 43.2975 51.6551 43.234 51.6385 43.1737C51.5573 42.9906 51.4262 42.8341 51.2603 42.7221C51.2244 42.6963 51.183 42.6793 51.1394 42.6724C51.0957 42.6655 51.0511 42.669 51.0091 42.6825C51.0543 42.727 51.1024 42.7685 51.153 42.8067C51.2159 42.851 51.2677 42.9092 51.3045 42.9767C51.3412 43.0443 51.3618 43.1194 51.3647 43.1963C51.3647 43.1963 51.3647 43.2132 51.3647 43.2217C51.372 43.2716 51.3687 43.3226 51.3551 43.3712C51.3415 43.4198 51.3178 43.465 51.2857 43.5039C51.2712 43.5223 51.2552 43.5393 51.2377 43.5548C51.1841 43.631 50.9272 43.8794 50.9554 43.7015C50.974 43.6495 50.974 43.5927 50.9554 43.5406C50.9956 43.503 51.0307 43.4603 51.0599 43.4136C51.1281 43.3379 51.164 43.2385 51.1598 43.1366C51.1555 43.0348 51.1116 42.9386 51.0373 42.8688C50.978 42.813 50.9233 42.7526 50.8736 42.6882C50.834 42.6346 50.7635 42.5414 50.6986 42.468C50.6783 42.4507 50.6548 42.4378 50.6293 42.4299C50.6039 42.4221 50.5772 42.4195 50.5507 42.4225C50.5243 42.4254 50.4987 42.4337 50.4756 42.4468C50.4524 42.46 50.4323 42.4778 50.4163 42.4991C50.5156 42.5758 50.6098 42.6588 50.6986 42.7475C50.7356 42.7841 50.7643 42.8283 50.7828 42.877C50.8013 42.9256 50.8092 42.9777 50.8058 43.0297C50.813 43.0661 50.813 43.1035 50.8058 43.1398C50.803 43.1679 50.7963 43.1954 50.786 43.2217C50.7821 43.2342 50.7774 43.2464 50.772 43.2584C50.7526 43.3026 50.728 43.3443 50.6986 43.3826C50.6478 43.5802 50.4727 43.7411 50.4925 43.5914C50.4817 43.5155 50.4579 43.4419 50.4219 43.3741H50.436C50.4947 43.3143 50.5323 43.237 50.5433 43.1539C50.5538 43.0938 50.5485 43.0319 50.5277 42.9744C50.5069 42.917 50.4714 42.866 50.4248 42.8265C50.23 42.6374 50.0635 42.2789 49.7219 42.1999C49.6809 42.1914 49.6387 42.1914 49.5977 42.1999C49.7191 42.0277 49.9872 42.0841 50.1989 42.2845C50.288 42.2466 50.3845 42.2292 50.4812 42.2337L50.1171 41.3051C50.371 41.3867 50.6426 41.3965 50.9018 41.3333C50.5489 40.9635 50.5151 40.128 50.5433 39.9671C50.6792 40.0928 50.8415 40.1864 51.0184 40.2411C51.1952 40.2958 51.382 40.3102 51.5651 40.2832C51.2732 39.738 50.9311 39.2211 50.5433 38.7392C50.9102 38.982 51.297 38.9989 51.4268 38.8719C50.9591 38.3581 50.37 37.9699 49.7134 37.7428C49.8743 37.7005 49.9957 37.7569 50.0888 37.6045C49.5695 37.4154 48.9005 37.3871 48.3642 37.2742C46.2556 36.8367 45.7588 36.3964 45.6826 35.2334C45.76 34.6462 46.0347 34.1027 46.4617 33.6922C47.1645 33.2208 47.6867 34.1777 47.9266 34.762C47.941 35.0113 47.9779 35.2589 48.0367 35.5016C48.0672 35.637 48.1344 35.7613 48.2311 35.8609C48.3277 35.9605 48.4499 36.0315 48.5844 36.0661C48.6831 36.0012 48.8666 35.8403 48.909 35.6992C48.929 35.4758 48.9186 35.2507 48.8779 35.0302L49.0529 34.9935C49.1 35.2035 49.1883 35.4021 49.3126 35.5778C49.489 35.7981 49.7347 35.9523 50.0098 36.0153C50.0663 35.9899 50.309 35.8544 50.3288 35.3604C50.3105 35.1393 50.2451 34.9247 50.1368 34.731L50.278 34.6914C50.3961 34.8816 50.5282 35.0628 50.6732 35.2334C50.7889 35.352 51.1925 35.7217 51.6216 35.6173C51.6717 35.4782 51.6891 35.3295 51.6724 35.1827C51.6558 35.0358 51.6055 34.8948 51.5256 34.7705C51.4861 34.7112 51.3619 34.556 51.2038 34.3697L51.4127 34.2822C51.544 34.4602 51.6977 34.6205 51.87 34.7592C51.9865 34.8375 52.12 34.8868 52.2595 34.903C52.3989 34.9192 52.5403 34.9018 52.6716 34.8523C52.6915 34.6032 52.6528 34.3528 52.5587 34.1213C52.4788 34.0074 52.3839 33.9048 52.2764 33.8164C52.3131 33.7938 52.347 33.7684 52.3781 33.7458C52.567 33.9004 52.7736 34.0321 52.9934 34.1382C53.1251 34.1858 53.2662 34.2014 53.4051 34.1837C53.544 34.166 53.6767 34.1156 53.7922 34.0366C53.7527 33.79 53.6561 33.556 53.51 33.3535C53.3983 33.2584 53.2738 33.1796 53.1402 33.1192L53.0809 33.1051L53.1571 33.026C53.4051 33.1497 53.6666 33.2444 53.9362 33.3083C54.0756 33.3241 54.2168 33.3067 54.3482 33.2577C54.4796 33.2086 54.5977 33.1293 54.6927 33.026C54.5791 32.7925 54.4093 32.5908 54.1987 32.4389ZM54.5403 29.2493L54.3709 29.3283L54.5403 29.2493ZM54.3653 28.0976L54.1423 28.2077L54.3653 28.0976ZM32.2521 29.3283L32.0828 29.2493L32.2521 29.317V29.3283ZM32.478 28.1992L32.2578 28.0891L32.4808 28.1879C32.4843 28.1897 32.487 28.1927 32.4886 28.1963C32.4901 28.1999 32.4904 28.2039 32.4893 28.2077L32.478 28.1992ZM43.1196 22.6469H43.2438C43.3278 22.6456 43.4116 22.64 43.495 22.63C43.8969 23.0923 44.4002 23.4555 44.9656 23.6913C44.6928 23.6891 44.4248 23.6183 44.1866 23.4853C44.1655 23.6439 44.1969 23.805 44.2759 23.9441C44.3549 24.0832 44.4771 24.1927 44.6241 24.2559C44.3688 24.6801 44.1452 25.1226 43.9551 25.5797C43.8337 25.8931 43.6164 26.3193 43.3115 26.3503C43.0067 26.3193 42.7893 25.8931 42.6651 25.5797C42.4761 25.1226 42.2534 24.6801 41.999 24.2559C42.146 24.193 42.2682 24.0834 42.3468 23.9442C42.4253 23.8049 42.4558 23.6436 42.4337 23.4853C42.1954 23.6183 41.9275 23.6891 41.6546 23.6913C42.215 23.4613 42.7159 23.1071 43.1196 22.6554V22.6469ZM44.7342 34.1467C44.3509 34.5125 43.8414 34.7166 43.3115 34.7166C42.7817 34.7166 42.2722 34.5125 41.8889 34.1467C40.7598 33.1277 39.4049 29.0319 43.3003 29.0319C47.1956 29.0319 45.8576 33.1361 44.7342 34.1551V34.1467Z" fill="#CCCCCC"/>
</g>
</g>
<defs>
<filter id="filter0_b_340_1276" x="-19.5" y="-19.5" width="125" height="125" filterUnits="userSpaceOnUse" color-interpolation-filters="sRGB">
<feFlood flood-opacity="0" result="BackgroundImageFix"/>
<feGaussianBlur in="BackgroundImageFix" stdDeviation="10"/>
<feComposite in2="SourceAlpha" operator="in" result="effect1_backgroundBlur_340_1276"/>
<feBlend mode="normal" in="SourceGraphic" in2="effect1_backgroundBlur_340_1276" result="shape"/>
</filter>
</defs>
</svg>
