<svg width="245" height="80" viewBox="0 0 245 80" fill="none" xmlns="http://www.w3.org/2000/svg">
<path fill-rule="evenodd" clip-rule="evenodd" d="M16.99 72.2371C23.2767 76.4377 30.6678 78.6798 38.2287 78.6798L38.2287 67.7573C53.3096 67.7573 65.535 55.5319 65.535 40.451L76.4575 40.451C76.4575 32.8901 74.2154 25.4989 70.0148 19.2122C65.8142 12.9256 59.8437 8.02568 52.8583 5.13224C45.8729 2.23879 38.1863 1.48173 30.7707 2.9568C23.355 4.43186 16.5433 8.0728 11.1969 13.4192C5.85053 18.7656 2.20959 25.5773 0.734534 32.993C-0.740534 40.4086 0.0165233 48.0951 2.90996 55.0805C5.80341 62.0659 10.7033 68.0364 16.99 72.2371ZM65.535 40.451C65.535 25.3702 53.3096 13.1448 38.2287 13.1448C23.1479 13.1448 10.9225 25.3702 10.9225 40.451C10.9225 55.5318 23.1479 67.7573 38.2287 67.7573L38.2287 40.451L65.535 40.451Z" fill="#2D19BC"/>
<path d="M219.545 66.9956V57.8943H223.933C224.984 57.8943 225.77 58.0998 226.29 58.5107C226.822 58.9096 227.088 59.5019 227.088 60.2875C227.088 60.8676 226.882 61.3572 226.471 61.756C226.072 62.1428 225.552 62.3724 224.912 62.445V62.2274C225.661 62.2516 226.26 62.4691 226.707 62.8801C227.154 63.291 227.378 63.8228 227.378 64.4755C227.378 65.2612 227.088 65.8776 226.507 66.3248C225.939 66.772 225.129 66.9956 224.078 66.9956H219.545ZM220.941 65.9984H224.005C224.646 65.9984 225.136 65.8655 225.474 65.5996C225.824 65.3216 226 64.9288 226 64.4211C226 63.9135 225.824 63.5267 225.474 63.2608C225.136 62.9949 224.646 62.8619 224.005 62.8619H220.941V65.9984ZM220.941 61.8648H223.842C224.434 61.8648 224.894 61.7318 225.22 61.4659C225.546 61.2 225.71 60.8314 225.71 60.36C225.71 59.8886 225.546 59.526 225.22 59.2722C224.894 59.0063 224.434 58.8733 223.842 58.8733H220.941V61.8648Z" fill="#2B303D"/>
<path d="M212.818 67.1588C211.948 67.1588 211.187 66.9714 210.534 66.5967C209.893 66.21 209.398 65.6661 209.047 64.965C208.697 64.2519 208.521 63.4119 208.521 62.445C208.521 61.4659 208.697 60.6259 209.047 59.9249C209.398 59.2239 209.893 58.686 210.534 58.3113C211.187 57.9245 211.948 57.7312 212.818 57.7312C213.701 57.7312 214.462 57.9245 215.103 58.3113C215.755 58.686 216.257 59.2239 216.607 59.9249C216.97 60.6259 217.151 61.4659 217.151 62.445C217.151 63.4119 216.97 64.2519 216.607 64.965C216.257 65.6661 215.755 66.21 215.103 66.5967C214.462 66.9714 213.701 67.1588 212.818 67.1588ZM212.818 65.9622C213.689 65.9622 214.377 65.6661 214.885 65.0738C215.393 64.4695 215.647 63.5932 215.647 62.445C215.647 61.2846 215.387 60.4084 214.867 59.8161C214.359 59.2118 213.676 58.9096 212.818 58.9096C211.96 58.9096 211.277 59.2118 210.77 59.8161C210.262 60.4084 210.008 61.2846 210.008 62.445C210.008 63.5932 210.262 64.4695 210.77 65.0738C211.277 65.6661 211.96 65.9622 212.818 65.9622Z" fill="#2B303D"/>
<path d="M202.736 66.9956V59.0728H199.436V57.8943H207.522V59.0728H204.204V66.9956H202.736Z" fill="#2B303D"/>
<path d="M194.873 67.1588C193.446 67.1588 192.322 66.7478 191.5 65.9259C190.679 65.0919 190.268 63.9377 190.268 62.4631C190.268 61.5082 190.449 60.6803 190.811 59.9793C191.174 59.2662 191.682 58.7162 192.334 58.3294C192.987 57.9306 193.736 57.7312 194.583 57.7312C195.417 57.7312 196.118 57.9064 196.686 58.2569C197.254 58.6074 197.689 59.109 197.991 59.7617C198.293 60.4023 198.444 61.1638 198.444 62.0461V62.59H191.392V61.6654H197.483L197.175 61.9011C197.175 60.9341 196.958 60.1787 196.522 59.6348C196.087 59.0909 195.441 58.819 194.583 58.819C193.676 58.819 192.969 59.1393 192.461 59.7798C191.954 60.4084 191.7 61.2605 191.7 62.3362V62.4993C191.7 63.6355 191.978 64.4997 192.534 65.0919C193.102 65.6721 193.894 65.9622 194.909 65.9622C195.453 65.9622 195.96 65.8836 196.432 65.7265C196.915 65.5573 197.375 65.2853 197.81 64.9106L198.317 65.9441C197.918 66.3308 197.411 66.633 196.794 66.8506C196.19 67.056 195.549 67.1588 194.873 67.1588Z" fill="#2B303D"/>
<path d="M184.482 66.9956V59.0728H181.182V57.8943H189.268V59.0728H185.95V66.9956H184.482Z" fill="#2B303D"/>
<path d="M171.76 66.9956V57.8943H173.101V65.6358H172.612L178.413 57.8943H179.646V66.9956H178.323V59.2359H178.812L173.011 66.9956H171.76Z" fill="#2B303D"/>
<path d="M166.504 67.1588C165.61 67.1588 164.83 66.9654 164.165 66.5786C163.513 66.1918 163.005 65.6419 162.642 64.9288C162.292 64.2157 162.117 63.3696 162.117 62.3906C162.117 61.3995 162.298 60.5594 162.661 59.8705C163.023 59.1695 163.531 58.6377 164.184 58.2751C164.848 57.9125 165.622 57.7312 166.504 57.7312C167.084 57.7312 167.646 57.8339 168.19 58.0394C168.746 58.2448 169.206 58.5349 169.568 58.9096L169.042 59.9612C168.68 59.6106 168.281 59.3508 167.846 59.1816C167.423 59.0123 167.006 58.9277 166.595 58.9277C165.652 58.9277 164.921 59.2239 164.401 59.8161C163.881 60.4084 163.621 61.2726 163.621 62.4087C163.621 63.5328 163.881 64.403 164.401 65.0194C164.921 65.6358 165.652 65.9441 166.595 65.9441C166.994 65.9441 167.405 65.8655 167.828 65.7084C168.263 65.5512 168.668 65.2914 169.042 64.9288L169.568 65.9622C169.193 66.349 168.728 66.6451 168.172 66.8506C167.616 67.056 167.06 67.1588 166.504 67.1588Z" fill="#2B303D"/>
<path d="M151.613 70.9117V59.9974C151.613 59.659 151.595 59.3145 151.558 58.964C151.534 58.6014 151.504 58.2448 151.468 57.8943H152.882L153.081 60.0518H152.864C153.057 59.3387 153.45 58.7767 154.042 58.3657C154.634 57.9427 155.342 57.7312 156.163 57.7312C156.985 57.7312 157.692 57.9185 158.285 58.2932C158.889 58.6679 159.36 59.2057 159.699 59.9068C160.037 60.6078 160.206 61.4539 160.206 62.445C160.206 63.424 160.037 64.264 159.699 64.965C159.372 65.6661 158.907 66.21 158.303 66.5967C157.698 66.9714 156.985 67.1588 156.163 67.1588C155.354 67.1588 154.653 66.9533 154.06 66.5423C153.468 66.1314 153.075 65.5694 152.882 64.8563H153.081V70.9117H151.613ZM155.873 65.9622C156.744 65.9622 157.433 65.6661 157.94 65.0738C158.46 64.4695 158.72 63.5932 158.72 62.445C158.72 61.2846 158.46 60.4084 157.94 59.8161C157.433 59.2118 156.744 58.9096 155.873 58.9096C155.015 58.9096 154.326 59.2118 153.807 59.8161C153.299 60.4084 153.045 61.2846 153.045 62.445C153.045 63.5932 153.299 64.4695 153.807 65.0738C154.326 65.6661 155.015 65.9622 155.873 65.9622Z" fill="#2B303D"/>
<path d="M145.617 67.1588C144.191 67.1588 143.067 66.7478 142.245 65.9259C141.423 65.0919 141.012 63.9377 141.012 62.4631C141.012 61.5082 141.194 60.6803 141.556 59.9793C141.919 59.2662 142.426 58.7162 143.079 58.3294C143.732 57.9306 144.481 57.7312 145.327 57.7312C146.161 57.7312 146.862 57.9064 147.43 58.2569C147.998 58.6074 148.433 59.109 148.736 59.7617C149.038 60.4023 149.189 61.1638 149.189 62.0461V62.59H142.136V61.6654H148.228L147.92 61.9011C147.92 60.9341 147.702 60.1787 147.267 59.6348C146.832 59.0909 146.185 58.819 145.327 58.819C144.421 58.819 143.714 59.1393 143.206 59.7798C142.698 60.4084 142.444 61.2605 142.444 62.3362V62.4993C142.444 63.6355 142.722 64.4997 143.278 65.0919C143.847 65.6721 144.638 65.9622 145.653 65.9622C146.197 65.9622 146.705 65.8836 147.176 65.7265C147.66 65.5573 148.119 65.2853 148.554 64.9106L149.062 65.9441C148.663 66.3308 148.155 66.633 147.539 66.8506C146.935 67.056 146.294 67.1588 145.617 67.1588Z" fill="#2B303D"/>
<path d="M131.392 66.9956V57.8943H135.78C136.831 57.8943 137.617 58.0998 138.136 58.5107C138.668 58.9096 138.934 59.5019 138.934 60.2875C138.934 60.8676 138.729 61.3572 138.318 61.756C137.919 62.1428 137.399 62.3724 136.759 62.445V62.2274C137.508 62.2516 138.106 62.4691 138.553 62.8801C139.001 63.291 139.224 63.8228 139.224 64.4755C139.224 65.2612 138.934 65.8776 138.354 66.3248C137.786 66.772 136.976 66.9956 135.925 66.9956H131.392ZM132.788 65.9984H135.852C136.493 65.9984 136.982 65.8655 137.321 65.5996C137.671 65.3216 137.846 64.9288 137.846 64.4211C137.846 63.9135 137.671 63.5267 137.321 63.2608C136.982 62.9949 136.493 62.8619 135.852 62.8619H132.788V65.9984ZM132.788 61.8648H135.689C136.281 61.8648 136.74 61.7318 137.067 61.4659C137.393 61.2 137.556 60.8314 137.556 60.36C137.556 59.8886 137.393 59.526 137.067 59.2722C136.74 59.0063 136.281 58.8733 135.689 58.8733H132.788V61.8648Z" fill="#2B303D"/>
<path d="M120.609 66.9956V57.8943H121.951V65.6358H121.461L127.263 57.8943H128.496V66.9956H127.172V59.2359H127.662L121.86 66.9956H120.609Z" fill="#2B303D"/>
<path d="M109.774 66.9956V57.8943H111.242V61.7016H116.246V57.8943H117.715V66.9956H116.246V62.8801H111.242V66.9956H109.774Z" fill="#2B303D"/>
<path d="M99.6754 71.1111L99.3309 69.8964C99.899 69.7634 100.37 69.6063 100.745 69.425C101.132 69.2558 101.452 69.0262 101.706 68.7361C101.96 68.446 102.177 68.0834 102.359 67.6483L102.83 66.5786L102.794 67.195L98.8232 57.8943H100.419L103.7 65.8897H103.229L106.474 57.8943H108.015L103.809 67.7571C103.567 68.3372 103.301 68.8207 103.011 69.2075C102.721 69.6063 102.407 69.9266 102.069 70.1683C101.742 70.4222 101.38 70.6216 100.981 70.7666C100.582 70.9117 100.147 71.0265 99.6754 71.1111Z" fill="#2B303D"/>
<path d="M224.273 44.3331V35.2318H228.66C229.712 35.2318 230.498 35.4373 231.017 35.8482C231.549 36.2471 231.815 36.8393 231.815 37.625C231.815 38.2051 231.61 38.6946 231.199 39.0935C230.8 39.4803 230.28 39.7099 229.639 39.7824V39.5649C230.389 39.5891 230.987 39.8066 231.434 40.2176C231.882 40.6285 232.105 41.1603 232.105 41.813C232.105 42.5986 231.815 43.2151 231.235 43.6623C230.667 44.1095 229.857 44.3331 228.805 44.3331H224.273ZM225.669 43.3359H228.733C229.374 43.3359 229.863 43.203 230.201 42.9371C230.552 42.6591 230.727 42.2663 230.727 41.7586C230.727 41.251 230.552 40.8642 230.201 40.5983C229.863 40.3324 229.374 40.1994 228.733 40.1994H225.669V43.3359ZM225.669 39.2023H228.57C229.162 39.2023 229.621 39.0693 229.948 38.8034C230.274 38.5375 230.437 38.1689 230.437 37.6975C230.437 37.2261 230.274 36.8635 229.948 36.6097C229.621 36.3438 229.162 36.2108 228.57 36.2108H225.669V39.2023Z" fill="#2B303D"/>
<path d="M217.546 44.4962C216.676 44.4962 215.914 44.3089 215.261 43.9342C214.621 43.5474 214.125 43.0035 213.775 42.3025C213.424 41.5894 213.249 40.7494 213.249 39.7824C213.249 38.8034 213.424 37.9634 213.775 37.2624C214.125 36.5613 214.621 36.0235 215.261 35.6488C215.914 35.262 216.676 35.0686 217.546 35.0686C218.428 35.0686 219.19 35.262 219.83 35.6488C220.483 36.0235 220.984 36.5613 221.335 37.2624C221.698 37.9634 221.879 38.8034 221.879 39.7824C221.879 40.7494 221.698 41.5894 221.335 42.3025C220.984 43.0035 220.483 43.5474 219.83 43.9342C219.19 44.3089 218.428 44.4962 217.546 44.4962ZM217.546 43.2997C218.416 43.2997 219.105 43.0035 219.613 42.4113C220.12 41.807 220.374 40.9307 220.374 39.7824C220.374 38.6221 220.114 37.7458 219.595 37.1536C219.087 36.5493 218.404 36.2471 217.546 36.2471C216.688 36.2471 216.005 36.5493 215.497 37.1536C214.99 37.7458 214.736 38.6221 214.736 39.7824C214.736 40.9307 214.99 41.807 215.497 42.4113C216.005 43.0035 216.688 43.2997 217.546 43.2997Z" fill="#2B303D"/>
<path d="M207.463 44.3331V36.4103H204.164V35.2318H212.25V36.4103H208.932V44.3331H207.463Z" fill="#2B303D"/>
<path d="M194.741 44.3331V35.2318H196.082V42.9733H195.593L201.394 35.2318H202.627V44.3331H201.304V36.5734H201.793L195.992 44.3331H194.741ZM198.675 34.3797C198.179 34.3797 197.72 34.2951 197.297 34.1259C196.874 33.9567 196.505 33.7029 196.191 33.3644C195.877 33.0139 195.641 32.5848 195.484 32.0772L196.354 31.7509C196.572 32.331 196.868 32.7601 197.243 33.0381C197.629 33.3161 198.113 33.4551 198.693 33.4551C199.273 33.4551 199.751 33.3282 200.125 33.0743C200.5 32.8205 200.826 32.3854 201.104 31.769L201.938 32.0772C201.624 32.8991 201.183 33.4913 200.615 33.8539C200.059 34.2044 199.412 34.3797 198.675 34.3797Z" fill="#2B303D"/>
<path d="M187.21 44.4962C186.401 44.4962 185.694 44.3089 185.089 43.9342C184.485 43.5474 184.013 43.0035 183.675 42.3025C183.349 41.6015 183.186 40.7615 183.186 39.7824C183.186 38.7913 183.349 37.9453 183.675 37.2442C184.013 36.5432 184.485 36.0054 185.089 35.6307C185.694 35.256 186.401 35.0686 187.21 35.0686C188.032 35.0686 188.739 35.2802 189.332 35.7032C189.936 36.1141 190.335 36.6762 190.528 37.3893H190.311L190.51 35.2318H191.924C191.888 35.5823 191.852 35.9389 191.815 36.3015C191.791 36.652 191.779 36.9965 191.779 37.3349V44.3331H190.311V42.1937H190.51C190.317 42.9068 189.918 43.4689 189.313 43.8798C188.709 44.2908 188.008 44.4962 187.21 44.4962ZM187.5 43.2997C188.371 43.2997 189.06 43.0035 189.567 42.4113C190.075 41.807 190.329 40.9307 190.329 39.7824C190.329 38.6221 190.075 37.7458 189.567 37.1536C189.06 36.5493 188.371 36.2471 187.5 36.2471C186.642 36.2471 185.953 36.5493 185.434 37.1536C184.926 37.7458 184.672 38.6221 184.672 39.7824C184.672 40.9307 184.926 41.807 185.434 42.4113C185.953 43.0035 186.642 43.2997 187.5 43.2997Z" fill="#2B303D"/>
<path d="M178.42 44.4962C177.525 44.4962 176.746 44.3029 176.081 43.9161C175.428 43.5293 174.921 42.9794 174.558 42.2663C174.207 41.5531 174.032 40.7071 174.032 39.728C174.032 38.7369 174.214 37.8969 174.576 37.208C174.939 36.5069 175.446 35.9751 176.099 35.6125C176.764 35.2499 177.537 35.0686 178.42 35.0686C179 35.0686 179.562 35.1714 180.106 35.3768C180.662 35.5823 181.121 35.8724 181.484 36.2471L180.958 37.2986C180.595 36.9481 180.196 36.6882 179.761 36.519C179.338 36.3498 178.921 36.2652 178.51 36.2652C177.568 36.2652 176.836 36.5613 176.317 37.1536C175.797 37.7458 175.537 38.61 175.537 39.7462C175.537 40.8702 175.797 41.7405 176.317 42.3569C176.836 42.9733 177.568 43.2815 178.51 43.2815C178.909 43.2815 179.32 43.203 179.743 43.0458C180.178 42.8887 180.583 42.6289 180.958 42.2663L181.484 43.2997C181.109 43.6864 180.644 43.9826 180.088 44.188C179.532 44.3935 178.976 44.4962 178.42 44.4962Z" fill="#2B303D"/>
<path d="M161.721 44.3331V35.2318H168.066V36.4103H163.189V44.3331H161.721Z" fill="#2B303D"/>
<path d="M150.885 44.3331V35.2318H152.354V39.0391H157.358V35.2318H158.826V44.3331H157.358V40.2176H152.354V44.3331H150.885Z" fill="#2B303D"/>
<path d="M140.103 44.3331V35.2318H141.445V42.9733H140.955L146.757 35.2318H147.99V44.3331H146.666V36.5734H147.156L141.354 44.3331H140.103Z" fill="#2B303D"/>
<path d="M133.792 44.3331V36.4103H130.493V35.2318H138.579V36.4103H135.261V44.3331H133.792Z" fill="#2B303D"/>
<path d="M121.07 44.3331V35.2318H122.411V42.9733H121.922L127.724 35.2318H128.956V44.3331H127.633V36.5734H128.122L122.321 44.3331H121.07ZM125.004 34.3797C124.508 34.3797 124.049 34.2951 123.626 34.1259C123.203 33.9567 122.834 33.7029 122.52 33.3644C122.206 33.0139 121.97 32.5848 121.813 32.0772L122.683 31.7509C122.901 32.331 123.197 32.7601 123.572 33.0381C123.959 33.3161 124.442 33.4551 125.022 33.4551C125.602 33.4551 126.08 33.3282 126.454 33.0743C126.829 32.8205 127.155 32.3854 127.433 31.769L128.267 32.0772C127.953 32.8991 127.512 33.4913 126.944 33.8539C126.388 34.2044 125.741 34.3797 125.004 34.3797Z" fill="#2B303D"/>
<path d="M115.147 44.4962C113.72 44.4962 112.596 44.0853 111.774 43.2634C110.952 42.4294 110.542 41.2751 110.542 39.8006C110.542 38.8457 110.723 38.0178 111.085 37.3168C111.448 36.6036 111.956 36.0537 112.608 35.6669C113.261 35.2681 114.01 35.0686 114.856 35.0686C115.69 35.0686 116.391 35.2439 116.96 35.5944C117.528 35.9449 117.963 36.4465 118.265 37.0992C118.567 37.7398 118.718 38.5012 118.718 39.3836V39.9275H111.666V39.0028H117.757L117.449 39.2385C117.449 38.2716 117.231 37.5162 116.796 36.9723C116.361 36.4284 115.715 36.1564 114.856 36.1564C113.95 36.1564 113.243 36.4767 112.735 37.1173C112.228 37.7458 111.974 38.5979 111.974 39.6737V39.8368C111.974 40.973 112.252 41.8372 112.808 42.4294C113.376 43.0096 114.168 43.2997 115.183 43.2997C115.727 43.2997 116.234 43.2211 116.706 43.064C117.189 42.8948 117.648 42.6228 118.084 42.2481L118.591 43.2815C118.192 43.6683 117.685 43.9705 117.068 44.188C116.464 44.3935 115.823 44.4962 115.147 44.4962Z" fill="#2B303D"/>
<path d="M100.038 48.2492V37.3349C100.038 36.9965 100.02 36.652 99.9837 36.3015C99.9595 35.9389 99.9293 35.5823 99.8931 35.2318H101.307L101.507 37.3893H101.289C101.482 36.6762 101.875 36.1141 102.468 35.7032C103.06 35.2802 103.767 35.0686 104.589 35.0686C105.411 35.0686 106.118 35.256 106.71 35.6307C107.314 36.0054 107.786 36.5432 108.124 37.2442C108.463 37.9453 108.632 38.7913 108.632 39.7824C108.632 40.7615 108.463 41.6015 108.124 42.3025C107.798 43.0035 107.332 43.5474 106.728 43.9342C106.124 44.3089 105.411 44.4962 104.589 44.4962C103.779 44.4962 103.078 44.2908 102.486 43.8798C101.893 43.4689 101.501 42.9068 101.307 42.1937H101.507V48.2492H100.038ZM104.299 43.2997C105.169 43.2997 105.858 43.0035 106.365 42.4113C106.885 41.807 107.145 40.9307 107.145 39.7824C107.145 38.6221 106.885 37.7458 106.365 37.1536C105.858 36.5493 105.169 36.2471 104.299 36.2471C103.441 36.2471 102.752 36.5493 102.232 37.1536C101.724 37.7458 101.47 38.6221 101.47 39.7824C101.47 40.9307 101.724 41.807 102.232 42.4113C102.752 43.0035 103.441 43.2997 104.299 43.2997Z" fill="#2B303D"/>
<path d="M210.675 21.6705V12.5693H212.017V20.3108H211.527L217.329 12.5693H218.562V21.6705H217.238V13.9109H217.728L211.926 21.6705H210.675ZM214.61 11.7171C214.114 11.7171 213.655 11.6325 213.232 11.4633C212.809 11.2941 212.44 11.0403 212.126 10.7019C211.811 10.3513 211.576 9.92227 211.419 9.41463L212.289 9.08829C212.506 9.66845 212.803 10.0975 213.177 10.3755C213.564 10.6535 214.047 10.7925 214.628 10.7925C215.208 10.7925 215.685 10.6656 216.06 10.4118C216.435 10.158 216.761 9.72284 217.039 9.10642L217.873 9.41463C217.559 10.2365 217.117 10.8288 216.549 11.1914C215.993 11.5419 215.347 11.7171 214.61 11.7171Z" fill="#2B303D"/>
<path d="M197.184 21.6705V12.5693H198.653V15.8327H201.39C202.563 15.8327 203.445 16.0865 204.037 16.5941C204.642 17.0897 204.944 17.7968 204.944 18.7154C204.944 19.3318 204.805 19.8636 204.527 20.3108C204.261 20.7459 203.862 21.0843 203.33 21.3261C202.81 21.5557 202.164 21.6705 201.39 21.6705H197.184ZM198.653 20.619H201.263C202.001 20.619 202.563 20.4679 202.949 20.1658C203.336 19.8515 203.53 19.3741 203.53 18.7335C203.53 18.0929 203.336 17.6276 202.949 17.3375C202.575 17.0353 202.013 16.8842 201.263 16.8842H198.653V20.619ZM206.322 21.6705V12.5693H207.772V21.6705H206.322Z" fill="#2B303D"/>
<path d="M184.985 21.6705V12.5693H186.218L189.627 18.6791L193.053 12.5693H194.286V21.6705H192.981V14.201H193.361L190.007 20.202H189.264L185.892 14.1828H186.291V21.6705H184.985Z" fill="#2B303D"/>
<path d="M174.203 21.6705V12.5693H175.545V20.3108H175.055L180.857 12.5693H182.09V21.6705H180.766V13.9109H181.256L175.454 21.6705H174.203Z" fill="#2B303D"/>
<path d="M168.948 21.8337C168.053 21.8337 167.274 21.6403 166.609 21.2535C165.956 20.8668 165.448 20.3168 165.086 19.6037C164.735 18.8906 164.56 18.0445 164.56 17.0655C164.56 16.0744 164.741 15.2344 165.104 14.5454C165.467 13.8444 165.974 13.3126 166.627 12.95C167.292 12.5874 168.065 12.4061 168.948 12.4061C169.528 12.4061 170.09 12.5088 170.634 12.7143C171.19 12.9198 171.649 13.2099 172.011 13.5845L171.486 14.6361C171.123 14.2856 170.724 14.0257 170.289 13.8565C169.866 13.6873 169.449 13.6027 169.038 13.6027C168.095 13.6027 167.364 13.8988 166.844 14.491C166.325 15.0833 166.065 15.9475 166.065 17.0836C166.065 18.2077 166.325 19.0779 166.844 19.6944C167.364 20.3108 168.095 20.619 169.038 20.619C169.437 20.619 169.848 20.5404 170.271 20.3833C170.706 20.2262 171.111 19.9663 171.486 19.6037L172.011 20.6371C171.637 21.0239 171.171 21.32 170.615 21.5255C170.059 21.731 169.504 21.8337 168.948 21.8337Z" fill="#2B303D"/>
<path d="M154.267 21.6705V12.5693H155.609V20.3108H155.119L160.921 12.5693H162.154V21.6705H160.83V13.9109H161.32L155.518 21.6705H154.267Z" fill="#2B303D"/>
<path d="M144.157 21.6705V12.5693H148.545C149.596 12.5693 150.382 12.7747 150.902 13.1857C151.433 13.5846 151.699 14.1768 151.699 14.9624C151.699 15.5426 151.494 16.0321 151.083 16.431C150.684 16.8177 150.164 17.0474 149.524 17.1199V16.9023C150.273 16.9265 150.871 17.1441 151.319 17.555C151.766 17.966 151.989 18.4978 151.989 19.1505C151.989 19.9361 151.699 20.5525 151.119 20.9997C150.551 21.4469 149.741 21.6705 148.69 21.6705H144.157ZM145.553 20.6734H148.617C149.258 20.6734 149.747 20.5404 150.086 20.2745C150.436 19.9965 150.612 19.6037 150.612 19.0961C150.612 18.5884 150.436 18.2017 150.086 17.9358C149.747 17.6699 149.258 17.5369 148.617 17.5369H145.553V20.6734ZM145.553 16.5397H148.454C149.046 16.5397 149.506 16.4068 149.832 16.1409C150.158 15.875 150.321 15.5063 150.321 15.035C150.321 14.5636 150.158 14.201 149.832 13.9472C149.506 13.6812 149.046 13.5483 148.454 13.5483H145.553V16.5397Z" fill="#2B303D"/>
<path d="M136.627 21.8337C135.817 21.8337 135.11 21.6464 134.506 21.2717C133.901 20.8849 133.43 20.341 133.092 19.64C132.765 18.9389 132.602 18.0989 132.602 17.1199C132.602 16.1288 132.765 15.2827 133.092 14.5817C133.43 13.8807 133.901 13.3428 134.506 12.9681C135.11 12.5934 135.817 12.4061 136.627 12.4061C137.449 12.4061 138.156 12.6176 138.748 13.0406C139.352 13.4516 139.751 14.0136 139.945 14.7267H139.727L139.927 12.5693H141.341C141.304 12.9198 141.268 13.2763 141.232 13.6389C141.208 13.9895 141.196 14.3339 141.196 14.6724V21.6705H139.727V19.5312H139.927C139.733 20.2443 139.334 20.8063 138.73 21.2173C138.126 21.6282 137.425 21.8337 136.627 21.8337ZM136.917 20.6371C137.787 20.6371 138.476 20.341 138.984 19.7488C139.491 19.1444 139.745 18.2681 139.745 17.1199C139.745 15.9596 139.491 15.0833 138.984 14.491C138.476 13.8867 137.787 13.5845 136.917 13.5845C136.059 13.5845 135.37 13.8867 134.85 14.491C134.343 15.0833 134.089 15.9596 134.089 17.1199C134.089 18.2681 134.343 19.1444 134.85 19.7488C135.37 20.341 136.059 20.6371 136.917 20.6371Z" fill="#2B303D"/>
<path d="M126.894 21.8337C126.121 21.8337 125.39 21.731 124.701 21.5255C124.024 21.3079 123.468 21.0118 123.033 20.6371L123.54 19.6037C123.988 19.9663 124.489 20.2443 125.045 20.4377C125.613 20.619 126.23 20.7096 126.894 20.7096C127.789 20.7096 128.435 20.5707 128.834 20.2927C129.233 20.0147 129.433 19.6218 129.433 19.1142C129.433 18.6187 129.263 18.244 128.925 17.9901C128.587 17.7242 128.091 17.5913 127.438 17.5913H125.299V16.5035H127.257C127.837 16.5035 128.29 16.3766 128.617 16.1228C128.955 15.8568 129.124 15.4942 129.124 15.035C129.124 14.5636 128.943 14.1949 128.581 13.929C128.218 13.651 127.65 13.512 126.876 13.512C126.26 13.512 125.686 13.5966 125.154 13.7658C124.634 13.923 124.139 14.1768 123.667 14.5273L123.178 13.5302C123.673 13.1434 124.247 12.8593 124.9 12.678C125.553 12.4967 126.26 12.4061 127.021 12.4061C128.157 12.4061 129.022 12.6297 129.614 13.0769C130.206 13.512 130.502 14.1345 130.502 14.9443C130.502 15.5124 130.309 16.0019 129.922 16.4128C129.535 16.8117 129.022 17.0474 128.381 17.1199V16.9023C129.106 16.9265 129.692 17.1441 130.14 17.555C130.587 17.966 130.81 18.5038 130.81 19.1686C130.81 19.9784 130.478 20.625 129.813 21.1085C129.161 21.592 128.188 21.8337 126.894 21.8337Z" fill="#2B303D"/>
<path d="M117.962 21.8337C116.536 21.8337 115.412 21.4228 114.59 20.6009C113.768 19.7669 113.357 18.6126 113.357 17.138C113.357 16.1832 113.538 15.3552 113.901 14.6542C114.263 13.9411 114.771 13.3912 115.424 13.0044C116.076 12.6055 116.826 12.4061 117.672 12.4061C118.506 12.4061 119.207 12.5814 119.775 12.9319C120.343 13.2824 120.778 13.784 121.08 14.4367C121.382 15.0773 121.534 15.8387 121.534 16.721V17.2649H114.481V16.3403H120.573L120.264 16.576C120.264 15.6091 120.047 14.8537 119.612 14.3097C119.177 13.7658 118.53 13.4939 117.672 13.4939C116.765 13.4939 116.058 13.8142 115.551 14.4548C115.043 15.0833 114.789 15.9354 114.789 17.0111V17.1743C114.789 18.3104 115.067 19.1746 115.623 19.7669C116.191 20.347 116.983 20.6371 117.998 20.6371C118.542 20.6371 119.05 20.5586 119.521 20.4014C120.005 20.2322 120.464 19.9603 120.899 19.5856L121.407 20.619C121.008 21.0058 120.5 21.3079 119.884 21.5255C119.279 21.731 118.639 21.8337 117.962 21.8337Z" fill="#2B303D"/>
<path d="M100.11 21.6706V8.88889H101.615V14.5455H109.32V8.88889H110.807V21.6706H109.32V15.8327H101.615V21.6706H100.11Z" fill="#2B303D"/>
</svg>
