<svg width="75" height="16" viewBox="0 0 75 16" fill="none" xmlns="http://www.w3.org/2000/svg">
<path fill-rule="evenodd" clip-rule="evenodd" d="M60.8088 0V12.4398H63.252L63.2716 11.3153C63.858 12.2769 64.7506 12.7577 65.9494 12.7577C66.5488 12.7577 67.1026 12.6392 67.6108 12.402C68.1321 12.1649 68.5751 11.8224 68.94 11.3745C69.3048 10.9267 69.5915 10.38 69.8 9.73452C70.0085 9.08905 70.1127 8.35795 70.1127 7.54122C70.1127 6.80354 70.0215 6.13172 69.8391 5.52576C69.6697 4.90664 69.4156 4.37313 69.0768 3.92525C68.738 3.47737 68.321 3.13487 67.8258 2.89776C67.3437 2.64748 67.0079 2.48797 66.1541 2.48797C64.9683 2.48797 64.0274 3.02949 63.3107 4.04381V0H60.8088ZM63.2822 7.43995C63.2822 5.45016 64.151 4.7209 65.2227 4.7209C66.2944 4.7209 67.1632 5.45016 67.1632 7.43995V7.65788C67.1632 9.64767 66.2944 10.5179 65.2227 10.5179C64.151 10.5179 63.2822 9.64767 63.2822 7.65788V7.43995ZM0.333008 2.81938V16H2.83491V11.3369C3.55161 12.3515 4.50285 12.7403 5.68865 12.7403C6.31413 12.7403 6.86794 12.6217 7.35007 12.3845C7.84524 12.1341 8.26223 11.7849 8.60103 11.3369C8.93983 10.8888 9.19393 10.3617 9.36333 9.75557C9.54576 9.13622 9.63697 8.45758 9.63697 7.71964C9.63697 6.90263 9.53273 6.17128 9.32423 5.52558C9.11574 4.87988 8.82907 4.33301 8.4642 3.88498C8.09934 3.43694 7.6563 3.09433 7.13507 2.85713C6.62687 2.61994 6.23213 2.46696 5.45593 2.46696C4.2571 2.46696 3.38221 2.98232 2.79582 3.94428L2.77628 2.81938H0.333008ZM4.75735 4.70059C3.68564 4.70059 2.81685 5.50065 2.81685 7.49081V7.70955C2.81685 9.69972 3.68564 10.4998 4.75735 10.4998C5.82905 10.4998 6.69785 9.69972 6.69785 7.70955V7.49081C6.69785 5.50065 5.82905 4.70059 4.75735 4.70059ZM43.3539 7.15619L44.8789 12.4053H47.4811L50.2361 2.81938H47.6144L46.1517 8.69889L44.641 2.81938H42.0584L40.7322 8.69889L39.172 2.81938H36.4916L39.2247 12.4053H41.8268L43.3539 7.15619ZM59.681 8.22913L53.1674 8.23602V8.35883C53.1674 10.0696 54.1252 10.7307 55.106 10.7307C56.0868 10.7307 56.7559 10.326 57.0646 9.62724H59.5393C59.2399 10.6311 58.7192 11.4038 57.9772 11.9454C57.2352 12.4869 56.35 12.7577 55.3216 12.7577C52.1192 12.7577 50.518 10.9877 50.518 7.4478C50.518 6.6949 50.6222 6.01465 50.8305 5.40705C51.0387 4.79945 51.3381 4.27771 51.7287 3.84182C52.1322 3.40593 52.6204 3.07571 53.1932 2.85116C53.766 2.61341 54.253 2.46696 55.1835 2.46696C56.6676 2.46696 57.7689 2.97665 58.524 3.94088C59.292 4.90512 59.681 6.28744 59.681 8.22913ZM55.106 4.35296C53.8944 4.35296 53.1674 5.36653 53.1674 6.5839V6.67681H57.0446V6.5839C57.0446 5.36653 56.3176 4.35296 55.106 4.35296ZM72.759 12.4288C73.7889 12.4288 74.6238 11.5939 74.6238 10.564C74.6238 9.53415 73.7889 8.69927 72.759 8.69927C71.7291 8.69927 70.8943 9.53415 70.8943 10.564C70.8943 11.5939 71.7291 12.4288 72.759 12.4288ZM20.844 2.81938V12.4053H23.2578V9.76037C23.2559 9.72552 23.255 9.69043 23.255 9.65513V7.31631C23.255 6.02844 24.1344 5.36729 25.2192 5.36729C25.8147 5.36729 25.9117 5.39013 26.4139 5.50845L26.4786 5.52368L26.4828 2.67841H26.1464C25.8826 2.67841 25.6254 2.69162 25.3748 2.71804C25.1242 2.74446 24.8736 2.8105 24.623 2.91617C24.3856 3.00863 24.1481 3.14733 23.9107 3.33225C23.6865 3.51717 23.4161 3.87108 23.2578 4.26089V2.81938H20.844ZM16.8835 11.6253V12.4053H19.4343V6.32103C19.4343 5.71179 19.3618 5.16878 19.2168 4.69199C19.0718 4.20195 18.8345 3.798 18.505 3.48014C18.1886 3.14904 17.7601 2.8974 17.2196 2.72522C16.6923 2.55305 16.0464 2.46696 15.2818 2.46696C14.504 2.46696 13.8449 2.55305 13.3044 2.72522C12.7639 2.88415 12.3223 3.11593 11.9795 3.42054C11.65 3.72516 11.4061 4.08938 11.2479 4.51319C11.1029 4.93701 11.0284 5.20597 11.0153 5.70925H13.4431C13.4783 5.25234 13.679 5.05067 13.8762 4.85253L13.8778 4.85092C14.1415 4.58603 14.5699 4.45359 15.1632 4.45359C15.6641 4.45359 16.0596 4.5463 16.3496 4.73172C16.6528 4.90389 16.8044 5.14891 16.8044 5.46677C16.8044 5.81112 16.6923 6.06276 16.4682 6.22169C16.2441 6.36738 15.8091 6.48658 15.1632 6.57929C14.5172 6.672 13.9174 6.77795 13.3637 6.89715C12.8232 7.0031 12.3553 7.17528 11.9598 7.41367C11.5643 7.65207 11.2545 7.98317 11.0304 8.40699C10.8063 8.81756 10.6238 9.37735 10.6238 10.0793C10.6238 10.8739 10.9513 11.5194 11.4654 12.0227C11.9927 12.5127 12.8166 12.7577 13.9372 12.7577C14.5963 12.7577 15.1763 12.6584 15.6773 12.4597C16.1782 12.2478 16.5803 11.9697 16.8835 11.6253ZM16.3359 8.05914C16.5731 7.9991 16.7568 7.91074 16.887 7.79405C16.8731 8.46467 16.8553 8.59878 16.8253 8.82321C16.8224 8.84508 16.8194 8.8678 16.8162 8.89196C16.7701 9.24591 16.7066 9.39731 16.5687 9.63836C16.4437 9.86774 16.2775 10.0696 16.0699 10.2438C15.8755 10.4064 15.6401 10.5352 15.3638 10.6303C15.1006 10.7137 14.816 10.7458 14.51 10.7266C13.8789 10.687 13.3056 10.3994 13.2941 9.53492C13.3191 9.13697 13.5945 8.86733 13.8647 8.67203C14.135 8.47674 14.6171 8.33217 15.311 8.23834C15.7571 8.17891 16.0987 8.11918 16.3359 8.05914ZM33.4474 12.4053V11.6253C33.1442 11.9697 32.7421 12.2478 32.2412 12.4597C31.7402 12.6584 31.1602 12.7577 30.501 12.7577C29.3805 12.7577 28.5566 12.5127 28.0293 12.0227C27.5152 11.5194 27.1876 10.8739 27.1876 10.0793C27.1876 9.37735 27.3702 8.81756 27.5943 8.40699C27.8184 7.98317 28.1282 7.65207 28.5237 7.41367C28.9191 7.17528 29.3871 7.0031 29.9276 6.89715C30.4813 6.77795 31.0811 6.672 31.727 6.57929C32.373 6.48658 32.808 6.36738 33.0321 6.22169C33.2562 6.06276 33.3683 5.81112 33.3683 5.46677C33.3683 5.14891 33.2167 4.90389 32.9135 4.73172C32.6235 4.5463 32.228 4.45359 31.727 4.45359C31.1338 4.45359 30.7054 4.58603 30.4417 4.85092L30.4401 4.85253C30.2429 5.05067 30.0422 5.25234 30.007 5.70925H27.5791C27.5923 5.20597 27.6668 4.93701 27.8118 4.51319C27.97 4.08938 28.2139 3.72516 28.5434 3.42054C28.8862 3.11593 29.3278 2.88415 29.8683 2.72522C30.4088 2.55305 31.0679 2.46696 31.8457 2.46696C32.6103 2.46696 33.2562 2.55305 33.7835 2.72522C34.324 2.8974 34.7524 3.14904 35.0688 3.48014C35.3984 3.798 35.6357 4.20195 35.7807 4.69199C35.9257 5.16878 35.9982 5.71179 35.9982 6.32103V12.4053H33.4474ZM33.4509 7.79405C33.3207 7.91074 33.137 7.9991 32.8998 8.05914C32.6626 8.11918 32.321 8.17891 31.8749 8.23834C31.181 8.33217 30.6989 8.47674 30.4286 8.67203C30.1583 8.86733 29.883 9.13697 29.858 9.53492C29.8695 10.3994 30.4427 10.687 31.0739 10.7266C31.3798 10.7458 31.6644 10.7137 31.9277 10.6303C32.2039 10.5352 32.4393 10.4064 32.6338 10.2438C32.8413 10.0696 33.0076 9.86774 33.1325 9.63836C33.2705 9.39731 33.334 9.24591 33.3801 8.89196C33.3832 8.86841 33.3862 8.84622 33.389 8.82486L33.3892 8.82321C33.4191 8.59878 33.437 8.46467 33.4509 7.79405Z" fill="white"/>
</svg>
